<?xml version="1.0" encoding="UTF-8" standalone="no"?>
<svg
   viewBox="0 0 1024 1024"
   fill="#ffffff"
   fill-rule="evenodd"
   stroke="#000000"
   stroke-linecap="round"
   stroke-linejoin="round"
   version="1.1"
   id="svg3"
   sodipodi:docname="azure_function_app.svg"
   width="1024"
   height="1024"
   inkscape:version="1.3.2 (091e20ef0f, 2023-11-25)"
   inkscape:export-filename="azure_function_app.png"
   inkscape:export-xdpi="96"
   inkscape:export-ydpi="96"
   xmlns:inkscape="http://www.inkscape.org/namespaces/inkscape"
   xmlns:sodipodi="http://sodipodi.sourceforge.net/DTD/sodipodi-0.dtd"
   xmlns="http://www.w3.org/2000/svg"
   xmlns:svg="http://www.w3.org/2000/svg">
  <defs
     id="defs3" />
  <sodipodi:namedview
     id="namedview3"
     pagecolor="#ffffff"
     bordercolor="#000000"
     borderopacity="0.25"
     inkscape:showpageshadow="2"
     inkscape:pageopacity="0.0"
     inkscape:pagecheckerboard="0"
     inkscape:deskcolor="#d1d1d1"
     inkscape:zoom="0.51505309"
     inkscape:cx="1439.6574"
     inkscape:cy="232.01492"
     inkscape:window-width="3440"
     inkscape:window-height="1329"
     inkscape:window-x="0"
     inkscape:window-y="0"
     inkscape:window-maximized="1"
     inkscape:current-layer="svg3" />
  <rect
     style="fill:#ffffff;fill-opacity:1;stroke:none;stroke-width:18.4234;paint-order:markers fill stroke"
     id="rect3"
     width="1024"
     height="1024"
     x="0"
     y="0" />
  <g
     id="use1"
     transform="matrix(8.544457,0,0,8.544457,127.49944,170.22172)">
    <path
       d="m 89.419,40.543 c 0.843,-0.814 0.703,-2.305 0,-3.119 L 85.061,33.221 65.663,15.052 c -0.843,-0.814 -2.109,-0.814 -3.093,0 v 0 c -0.843,0.813 -1.125,2.305 0,3.119 l 20.382,19.254 c 0.843,0.813 0.843,2.305 0,3.119 L 62.149,60.475 c -0.844,0.814 -0.844,2.305 0,3.119 v 0 c 0.843,0.814 2.39,0.678 3.092,0 l 19.258,-18.441 0.141,-0.136 4.779,-4.475 z m -88.838,0 c -0.843,-0.814 -0.703,-2.305 0,-3.119 L 4.939,33.221 24.337,15.052 c 0.843,-0.814 2.108,-0.814 3.093,0 v 0 c 0.843,0.813 1.124,2.305 0,3.119 L 7.469,37.424 c -0.843,0.813 -0.843,2.305 0,3.119 l 20.382,19.932 c 0.843,0.814 0.843,2.305 0,3.119 v 0 c -0.843,0.814 -2.39,0.678 -3.093,0 L 5.079,45.424 4.938,45.288 0.581,40.542 Z"
       fill="#3999c6"
       stroke="none"
       id="path4" />
    <path
       d="M 66.928,0 H 39.518 L 24.758,40.136 42.751,40.272 28.694,80 67.49,26.983 H 48.654 Z"
       fill="#fcd116"
       stroke="none"
       id="path5" />
    <path
       d="M 48.654,26.983 66.928,0 H 52.59 L 37.409,33.356 55.402,33.492 28.694,80 67.49,26.983 Z"
       fill="#ff8c00"
       opacity="0.3"
       stroke="none"
       id="path6" />
  </g>
</svg>
