<svg width="8176" height="2304" viewBox="0 0 8176 2304" fill="none" xmlns="http://www.w3.org/2000/svg">
<g clip-path="url(#clip0_121_1878)">
<rect width="8176" height="2304" fill="white"/>
<path d="M2172 1536H7856C7891.35 1536 7920 1564.65 7920 1600V1984C7920 2019.35 7891.35 2048 7856 2048H2172V1536Z" fill="#313FB9" fill-opacity="0.25"/>
<path d="M7270.33 1758.63C7279.7 1758.63 7287.58 1762.74 7292.84 1769.44L7299.33 1760.5H7309.21V1822.58H7292.84V1813.65C7287.58 1820.34 7279.7 1824.45 7270.21 1824.45C7252.58 1824.45 7239.58 1810.29 7239.58 1791.41C7239.58 1772.54 7252.7 1758.64 7270.33 1758.64V1758.63ZM7273.58 1810.67C7284.21 1810.67 7291.94 1802.84 7291.94 1791.55C7291.94 1780.26 7284.19 1772.31 7273.19 1772.31C7262.32 1772.43 7255.56 1780.38 7255.56 1791.55C7255.58 1802.71 7262.82 1810.67 7273.58 1810.67Z" fill="black"/>
<path d="M7162.42 1760.52H7180.58L7199.11 1808.54L7217.65 1760.52H7235.81L7210.03 1822.57H7188.18L7162.43 1760.52H7162.42Z" fill="black"/>
<path d="M7122.97 1760.53C7142.57 1760.53 7156.79 1774.19 7156.79 1793.31C7156.79 1812.42 7142.7 1826.34 7122.97 1826.34C7103.25 1826.34 7089.04 1812.56 7089.04 1793.31C7089.04 1774.05 7103.25 1760.53 7122.97 1760.53ZM7122.97 1812.81C7133.63 1812.81 7141.23 1804.61 7141.23 1793.45C7141.23 1782.28 7133.63 1774.07 7122.97 1774.07C7112.32 1774.07 7104.59 1782.26 7104.59 1793.45C7104.61 1804.61 7112.2 1812.81 7122.97 1812.81Z" fill="black"/>
<path d="M7011.9 1760.51H7019.69L7028.53 1768.08C7034.36 1761.63 7042.26 1758.63 7051.24 1758.63C7067.02 1758.63 7075.87 1767.69 7075.87 1784.2V1822.56H7058.75V1787.68C7058.75 1777.87 7053.89 1773.16 7045.16 1773.16C7035.1 1773.16 7029.03 1779.24 7029.03 1787.68V1822.56H7011.92V1760.51H7011.9H7011.9Z" fill="black"/>
<path d="M6960.41 1762.46H6942.25L6952.33 1794.42H6970.48L6960.41 1762.46Z" fill="black"/>
<path d="M6981.96 1762.4H7000.61L6977.83 1824.45H6959.21L6981.97 1762.4H6981.96Z" fill="black"/>
<path d="M6896.8 1753C6919.97 1753 6935.79 1766.97 6935.79 1788.71C6935.79 1810.44 6919.97 1824.41 6896.8 1824.41H6867V1753H6896.8ZM6882.3 1764.63V1812.77H6896.49C6911.09 1812.77 6920.7 1803.28 6920.7 1788.69C6920.7 1774.1 6911.09 1764.62 6896.49 1764.62H6882.3V1764.64V1764.63Z" fill="black"/>
<path d="M3521.33 1758.63C3530.7 1758.63 3538.58 1762.74 3543.84 1769.44L3550.33 1760.5H3560.21V1822.58H3543.84V1813.65C3538.58 1820.34 3530.7 1824.45 3521.21 1824.45C3503.58 1824.45 3490.58 1810.29 3490.58 1791.41C3490.58 1772.54 3503.7 1758.64 3521.33 1758.64V1758.63ZM3524.58 1810.67C3535.21 1810.67 3542.94 1802.84 3542.94 1791.55C3542.94 1780.26 3535.19 1772.31 3524.19 1772.31C3513.32 1772.43 3506.56 1780.38 3506.56 1791.55C3506.58 1802.71 3513.82 1810.67 3524.58 1810.67Z" fill="black"/>
<path d="M3413.42 1760.52H3431.58L3450.11 1808.54L3468.65 1760.52H3486.81L3461.03 1822.57H3439.18L3413.43 1760.52H3413.42Z" fill="black"/>
<path d="M3373.97 1760.53C3393.57 1760.53 3407.79 1774.19 3407.79 1793.31C3407.79 1812.42 3393.7 1826.34 3373.97 1826.34C3354.25 1826.34 3340.04 1812.56 3340.04 1793.31C3340.04 1774.05 3354.25 1760.53 3373.97 1760.53ZM3373.97 1812.81C3384.63 1812.81 3392.23 1804.61 3392.23 1793.45C3392.23 1782.28 3384.63 1774.07 3373.97 1774.07C3363.32 1774.07 3355.59 1782.26 3355.59 1793.45C3355.61 1804.61 3363.2 1812.81 3373.97 1812.81Z" fill="black"/>
<path d="M3262.9 1760.51H3270.69L3279.53 1768.08C3285.36 1761.63 3293.26 1758.63 3302.24 1758.63C3318.02 1758.63 3326.87 1767.69 3326.87 1784.2V1822.56H3309.75V1787.68C3309.75 1777.87 3304.89 1773.16 3296.16 1773.16C3286.1 1773.16 3280.03 1779.24 3280.03 1787.68V1822.56H3262.92V1760.51H3262.9H3262.9Z" fill="black"/>
<path d="M3211.41 1762.46H3193.25L3203.33 1794.42H3221.48L3211.41 1762.46Z" fill="black"/>
<path d="M3232.96 1762.4H3251.61L3228.83 1824.45H3210.21L3232.97 1762.4H3232.96Z" fill="black"/>
<path d="M3147.8 1753C3170.97 1753 3186.79 1766.97 3186.79 1788.71C3186.79 1810.44 3170.97 1824.41 3147.8 1824.41H3118V1753H3147.8ZM3133.3 1764.63V1812.77H3147.49C3162.09 1812.77 3171.7 1803.28 3171.7 1788.69C3171.7 1774.1 3162.09 1764.62 3147.49 1764.62H3133.3V1764.64V1764.63Z" fill="black"/>
<path d="M2348.58 1759.09V1766.19H2330.34V1826H2321.6V1766.19H2303.26V1759.09H2348.58ZM2385.44 1772.43C2389.41 1772.43 2392.99 1773.3 2396.19 1775.02C2399.39 1776.69 2401.89 1779.22 2403.68 1782.61C2405.54 1786 2406.47 1790.13 2406.47 1794.99V1826H2397.83V1796.24C2397.83 1790.99 2396.51 1786.99 2393.89 1784.24C2391.27 1781.42 2387.68 1780.02 2383.14 1780.02C2378.53 1780.02 2374.85 1781.46 2372.1 1784.34C2369.41 1787.22 2368.07 1791.41 2368.07 1796.91V1826H2359.33V1754.96H2368.07V1780.88C2369.79 1778.19 2372.16 1776.11 2375.17 1774.64C2378.24 1773.17 2381.67 1772.43 2385.44 1772.43ZM2425.25 1764.85C2423.58 1764.85 2422.18 1764.27 2421.02 1763.12C2419.87 1761.97 2419.3 1760.56 2419.3 1758.9C2419.3 1757.23 2419.87 1755.82 2421.02 1754.67C2422.18 1753.52 2423.58 1752.94 2425.25 1752.94C2426.85 1752.94 2428.19 1753.52 2429.28 1754.67C2430.43 1755.82 2431.01 1757.23 2431.01 1758.9C2431.01 1760.56 2430.43 1761.97 2429.28 1763.12C2428.19 1764.27 2426.85 1764.85 2425.25 1764.85ZM2429.47 1773.39V1826H2420.74V1773.39H2429.47ZM2462.98 1826.86C2458.95 1826.86 2455.34 1826.19 2452.14 1824.85C2448.94 1823.44 2446.41 1821.52 2444.55 1819.09C2442.7 1816.59 2441.67 1813.74 2441.48 1810.54H2450.5C2450.76 1813.17 2451.98 1815.31 2454.15 1816.98C2456.39 1818.64 2459.3 1819.47 2462.89 1819.47C2466.22 1819.47 2468.84 1818.74 2470.76 1817.26C2472.68 1815.79 2473.64 1813.94 2473.64 1811.7C2473.64 1809.39 2472.62 1807.7 2470.57 1806.61C2468.52 1805.46 2465.35 1804.34 2461.06 1803.25C2457.16 1802.22 2453.96 1801.2 2451.46 1800.18C2449.03 1799.09 2446.92 1797.52 2445.13 1795.47C2443.4 1793.36 2442.54 1790.61 2442.54 1787.22C2442.54 1784.53 2443.34 1782.06 2444.94 1779.82C2446.54 1777.58 2448.81 1775.82 2451.75 1774.54C2454.7 1773.2 2458.06 1772.53 2461.83 1772.53C2467.66 1772.53 2472.36 1774 2475.94 1776.94C2479.53 1779.89 2481.45 1783.92 2481.7 1789.04H2472.97C2472.78 1786.29 2471.66 1784.08 2469.61 1782.42C2467.62 1780.75 2464.94 1779.92 2461.54 1779.92C2458.41 1779.92 2455.91 1780.59 2454.06 1781.94C2452.2 1783.28 2451.27 1785.04 2451.27 1787.22C2451.27 1788.94 2451.82 1790.38 2452.9 1791.54C2454.06 1792.62 2455.46 1793.52 2457.13 1794.22C2458.86 1794.86 2461.22 1795.6 2464.23 1796.43C2468.01 1797.46 2471.08 1798.48 2473.45 1799.5C2475.82 1800.46 2477.83 1801.94 2479.5 1803.92C2481.22 1805.9 2482.12 1808.5 2482.18 1811.7C2482.18 1814.58 2481.38 1817.17 2479.78 1819.47C2478.18 1821.78 2475.91 1823.6 2472.97 1824.94C2470.09 1826.22 2466.76 1826.86 2462.98 1826.86ZM2524.62 1764.85C2522.96 1764.85 2521.55 1764.27 2520.4 1763.12C2519.25 1761.97 2518.67 1760.56 2518.67 1758.9C2518.67 1757.23 2519.25 1755.82 2520.4 1754.67C2521.55 1753.52 2522.96 1752.94 2524.62 1752.94C2526.22 1752.94 2527.57 1753.52 2528.65 1754.67C2529.81 1755.82 2530.38 1757.23 2530.38 1758.9C2530.38 1760.56 2529.81 1761.97 2528.65 1763.12C2527.57 1764.27 2526.22 1764.85 2524.62 1764.85ZM2528.85 1773.39V1826H2520.11V1773.39H2528.85ZM2562.36 1826.86C2558.33 1826.86 2554.71 1826.19 2551.51 1824.85C2548.31 1823.44 2545.78 1821.52 2543.93 1819.09C2542.07 1816.59 2541.05 1813.74 2540.86 1810.54H2549.88C2550.14 1813.17 2551.35 1815.31 2553.53 1816.98C2555.77 1818.64 2558.68 1819.47 2562.26 1819.47C2565.59 1819.47 2568.22 1818.74 2570.14 1817.26C2572.06 1815.79 2573.02 1813.94 2573.02 1811.7C2573.02 1809.39 2571.99 1807.7 2569.94 1806.61C2567.9 1805.46 2564.73 1804.34 2560.44 1803.25C2556.54 1802.22 2553.34 1801.2 2550.84 1800.18C2548.41 1799.09 2546.3 1797.52 2544.5 1795.47C2542.78 1793.36 2541.91 1790.61 2541.91 1787.22C2541.91 1784.53 2542.71 1782.06 2544.31 1779.82C2545.91 1777.58 2548.18 1775.82 2551.13 1774.54C2554.07 1773.2 2557.43 1772.53 2561.21 1772.53C2567.03 1772.53 2571.74 1774 2575.32 1776.94C2578.9 1779.89 2580.82 1783.92 2581.08 1789.04H2572.34C2572.15 1786.29 2571.03 1784.08 2568.98 1782.42C2567 1780.75 2564.31 1779.92 2560.92 1779.92C2557.78 1779.92 2555.29 1780.59 2553.43 1781.94C2551.58 1783.28 2550.65 1785.04 2550.65 1787.22C2550.65 1788.94 2551.19 1790.38 2552.28 1791.54C2553.43 1792.62 2554.84 1793.52 2556.5 1794.22C2558.23 1794.86 2560.6 1795.6 2563.61 1796.43C2567.38 1797.46 2570.46 1798.48 2572.82 1799.5C2575.19 1800.46 2577.21 1801.94 2578.87 1803.92C2580.6 1805.9 2581.5 1808.5 2581.56 1811.7C2581.56 1814.58 2580.76 1817.17 2579.16 1819.47C2577.56 1821.78 2575.29 1823.6 2572.34 1824.94C2569.46 1826.22 2566.14 1826.86 2562.36 1826.86ZM2616.22 1799.5C2616.22 1794.13 2617.31 1789.42 2619.49 1785.39C2621.66 1781.3 2624.64 1778.13 2628.41 1775.89C2632.25 1773.65 2636.51 1772.53 2641.18 1772.53C2645.79 1772.53 2649.79 1773.52 2653.18 1775.5C2656.57 1777.49 2659.1 1779.98 2660.77 1782.99V1773.39H2669.6V1826H2660.77V1816.21C2659.04 1819.28 2656.45 1821.84 2652.99 1823.89C2649.6 1825.87 2645.63 1826.86 2641.09 1826.86C2636.41 1826.86 2632.19 1825.71 2628.41 1823.41C2624.64 1821.1 2621.66 1817.87 2619.49 1813.71C2617.31 1809.55 2616.22 1804.82 2616.22 1799.5ZM2660.77 1799.6C2660.77 1795.63 2659.97 1792.18 2658.37 1789.23C2656.77 1786.29 2654.59 1784.05 2651.84 1782.51C2649.15 1780.91 2646.17 1780.11 2642.91 1780.11C2639.65 1780.11 2636.67 1780.88 2633.98 1782.42C2631.29 1783.95 2629.15 1786.19 2627.55 1789.14C2625.95 1792.08 2625.15 1795.54 2625.15 1799.5C2625.15 1803.54 2625.95 1807.06 2627.55 1810.06C2629.15 1813.01 2631.29 1815.28 2633.98 1816.88C2636.67 1818.42 2639.65 1819.18 2642.91 1819.18C2646.17 1819.18 2649.15 1818.42 2651.84 1816.88C2654.59 1815.28 2656.77 1813.01 2658.37 1810.06C2659.97 1807.06 2660.77 1803.57 2660.77 1799.6ZM2709.99 1772.43C2716.39 1772.43 2721.58 1774.38 2725.54 1778.29C2729.51 1782.13 2731.5 1787.7 2731.5 1794.99V1826H2722.86V1796.24C2722.86 1790.99 2721.54 1786.99 2718.92 1784.24C2716.3 1781.42 2712.71 1780.02 2708.17 1780.02C2703.56 1780.02 2699.88 1781.46 2697.13 1784.34C2694.44 1787.22 2693.1 1791.41 2693.1 1796.91V1826H2684.36V1773.39H2693.1V1780.88C2694.82 1778.19 2697.16 1776.11 2700.1 1774.64C2703.11 1773.17 2706.41 1772.43 2709.99 1772.43ZM2794.3 1826.86C2789.38 1826.86 2784.9 1825.74 2780.86 1823.5C2776.9 1821.26 2773.76 1818.1 2771.46 1814C2769.22 1809.84 2768.1 1805.04 2768.1 1799.6C2768.1 1794.22 2769.25 1789.49 2771.55 1785.39C2773.92 1781.23 2777.12 1778.06 2781.15 1775.89C2785.18 1773.65 2789.7 1772.53 2794.69 1772.53C2799.68 1772.53 2804.19 1773.65 2808.22 1775.89C2812.26 1778.06 2815.42 1781.2 2817.73 1785.3C2820.1 1789.39 2821.28 1794.16 2821.28 1799.6C2821.28 1805.04 2820.06 1809.84 2817.63 1814C2815.26 1818.1 2812.03 1821.26 2807.94 1823.5C2803.84 1825.74 2799.3 1826.86 2794.3 1826.86ZM2794.3 1819.18C2797.44 1819.18 2800.38 1818.45 2803.14 1816.98C2805.89 1815.5 2808.1 1813.3 2809.76 1810.35C2811.49 1807.41 2812.35 1803.82 2812.35 1799.6C2812.35 1795.38 2811.52 1791.79 2809.86 1788.85C2808.19 1785.9 2806.02 1783.73 2803.33 1782.32C2800.64 1780.85 2797.73 1780.11 2794.59 1780.11C2791.39 1780.11 2788.45 1780.85 2785.76 1782.32C2783.14 1783.73 2781.02 1785.9 2779.42 1788.85C2777.82 1791.79 2777.02 1795.38 2777.02 1799.6C2777.02 1803.89 2777.79 1807.5 2779.33 1810.45C2780.93 1813.39 2783.04 1815.6 2785.66 1817.07C2788.29 1818.48 2791.17 1819.18 2794.3 1819.18ZM2854.18 1780.59H2843.14V1826H2834.4V1780.59H2827.58V1773.39H2834.4V1769.65C2834.4 1763.76 2835.9 1759.47 2838.91 1756.78C2841.98 1754.03 2846.88 1752.66 2853.6 1752.66V1759.95C2849.76 1759.95 2847.04 1760.72 2845.44 1762.26C2843.9 1763.73 2843.14 1766.19 2843.14 1769.65V1773.39H2854.18V1780.59ZM2885.77 1780.59H2874.73V1826H2865.99V1780.59H2859.18V1773.39H2865.99V1769.65C2865.99 1763.76 2867.5 1759.47 2870.5 1756.78C2873.58 1754.03 2878.47 1752.66 2885.19 1752.66V1759.95C2881.35 1759.95 2878.63 1760.72 2877.03 1762.26C2875.5 1763.73 2874.73 1766.19 2874.73 1769.65V1773.39H2885.77V1780.59ZM2900.47 1764.85C2898.8 1764.85 2897.39 1764.27 2896.24 1763.12C2895.09 1761.97 2894.51 1760.56 2894.51 1758.9C2894.51 1757.23 2895.09 1755.82 2896.24 1754.67C2897.39 1753.52 2898.8 1752.94 2900.47 1752.94C2902.07 1752.94 2903.41 1753.52 2904.5 1754.67C2905.65 1755.82 2906.23 1757.23 2906.23 1758.9C2906.23 1760.56 2905.65 1761.97 2904.5 1763.12C2903.41 1764.27 2902.07 1764.85 2900.47 1764.85ZM2904.69 1773.39V1826H2895.95V1773.39H2904.69ZM2916.32 1799.6C2916.32 1794.16 2917.4 1789.42 2919.58 1785.39C2921.76 1781.3 2924.76 1778.13 2928.6 1775.89C2932.51 1773.65 2936.96 1772.53 2941.95 1772.53C2948.41 1772.53 2953.72 1774.1 2957.88 1777.23C2962.11 1780.37 2964.89 1784.72 2966.24 1790.29H2956.83C2955.93 1787.09 2954.17 1784.56 2951.55 1782.7C2948.99 1780.85 2945.79 1779.92 2941.95 1779.92C2936.96 1779.92 2932.92 1781.65 2929.85 1785.1C2926.78 1788.5 2925.24 1793.33 2925.24 1799.6C2925.24 1805.94 2926.78 1810.83 2929.85 1814.29C2932.92 1817.74 2936.96 1819.47 2941.95 1819.47C2945.79 1819.47 2948.99 1818.58 2951.55 1816.78C2954.11 1814.99 2955.87 1812.43 2956.83 1809.1H2966.24C2964.83 1814.48 2962.01 1818.8 2957.79 1822.06C2953.56 1825.26 2948.28 1826.86 2941.95 1826.86C2936.96 1826.86 2932.51 1825.74 2928.6 1823.5C2924.76 1821.26 2921.76 1818.1 2919.58 1814C2917.4 1809.9 2916.32 1805.1 2916.32 1799.6ZM2982.4 1764.85C2980.74 1764.85 2979.33 1764.27 2978.18 1763.12C2977.03 1761.97 2976.45 1760.56 2976.45 1758.9C2976.45 1757.23 2977.03 1755.82 2978.18 1754.67C2979.33 1753.52 2980.74 1752.94 2982.4 1752.94C2984 1752.94 2985.35 1753.52 2986.44 1754.67C2987.59 1755.82 2988.16 1757.23 2988.16 1758.9C2988.16 1760.56 2987.59 1761.97 2986.44 1763.12C2985.35 1764.27 2984 1764.85 2982.4 1764.85ZM2986.63 1773.39V1826H2977.89V1773.39H2986.63ZM2998.25 1799.5C2998.25 1794.13 2999.34 1789.42 3001.52 1785.39C3003.69 1781.3 3006.67 1778.13 3010.45 1775.89C3014.29 1773.65 3018.54 1772.53 3023.21 1772.53C3027.82 1772.53 3031.82 1773.52 3035.21 1775.5C3038.61 1777.49 3041.13 1779.98 3042.8 1782.99V1773.39H3051.63V1826H3042.8V1816.21C3041.07 1819.28 3038.48 1821.84 3035.02 1823.89C3031.63 1825.87 3027.66 1826.86 3023.12 1826.86C3018.45 1826.86 3014.22 1825.71 3010.45 1823.41C3006.67 1821.1 3003.69 1817.87 3001.52 1813.71C2999.34 1809.55 2998.25 1804.82 2998.25 1799.5ZM3042.8 1799.6C3042.8 1795.63 3042 1792.18 3040.4 1789.23C3038.8 1786.29 3036.62 1784.05 3033.87 1782.51C3031.18 1780.91 3028.21 1780.11 3024.94 1780.11C3021.68 1780.11 3018.7 1780.88 3016.01 1782.42C3013.33 1783.95 3011.18 1786.19 3009.58 1789.14C3007.98 1792.08 3007.18 1795.54 3007.18 1799.5C3007.18 1803.54 3007.98 1807.06 3009.58 1810.06C3011.18 1813.01 3013.33 1815.28 3016.01 1816.88C3018.7 1818.42 3021.68 1819.18 3024.94 1819.18C3028.21 1819.18 3031.18 1818.42 3033.87 1816.88C3036.62 1815.28 3038.8 1813.01 3040.4 1810.06C3042 1807.06 3042.8 1803.57 3042.8 1799.6ZM3075.13 1754.96V1826H3066.39V1754.96H3075.13ZM3624.84 1826.86C3619.91 1826.86 3615.43 1825.74 3611.4 1823.5C3607.43 1821.26 3604.29 1818.1 3601.99 1814C3599.75 1809.84 3598.63 1805.04 3598.63 1799.6C3598.63 1794.22 3599.78 1789.49 3602.08 1785.39C3604.45 1781.23 3607.65 1778.06 3611.68 1775.89C3615.72 1773.65 3620.23 1772.53 3625.22 1772.53C3630.21 1772.53 3634.72 1773.65 3638.76 1775.89C3642.79 1778.06 3645.96 1781.2 3648.26 1785.3C3650.63 1789.39 3651.81 1794.16 3651.81 1799.6C3651.81 1805.04 3650.6 1809.84 3648.16 1814C3645.8 1818.1 3642.56 1821.26 3638.47 1823.5C3634.37 1825.74 3629.83 1826.86 3624.84 1826.86ZM3624.84 1819.18C3627.97 1819.18 3630.92 1818.45 3633.67 1816.98C3636.42 1815.5 3638.63 1813.3 3640.29 1810.35C3642.02 1807.41 3642.88 1803.82 3642.88 1799.6C3642.88 1795.38 3642.05 1791.79 3640.39 1788.85C3638.72 1785.9 3636.55 1783.73 3633.86 1782.32C3631.17 1780.85 3628.26 1780.11 3625.12 1780.11C3621.92 1780.11 3618.98 1780.85 3616.29 1782.32C3613.67 1783.73 3611.56 1785.9 3609.96 1788.85C3608.36 1791.79 3607.56 1795.38 3607.56 1799.6C3607.56 1803.89 3608.32 1807.5 3609.86 1810.45C3611.46 1813.39 3613.57 1815.6 3616.2 1817.07C3618.82 1818.48 3621.7 1819.18 3624.84 1819.18ZM3672.03 1783.09C3673.76 1780.08 3676.32 1777.58 3679.71 1775.6C3683.17 1773.55 3687.17 1772.53 3691.71 1772.53C3696.39 1772.53 3700.61 1773.65 3704.39 1775.89C3708.23 1778.13 3711.23 1781.3 3713.41 1785.39C3715.59 1789.42 3716.67 1794.13 3716.67 1799.5C3716.67 1804.82 3715.59 1809.55 3713.41 1813.71C3711.23 1817.87 3708.23 1821.1 3704.39 1823.41C3700.61 1825.71 3696.39 1826.86 3691.71 1826.86C3687.23 1826.86 3683.27 1825.87 3679.81 1823.89C3676.42 1821.84 3673.83 1819.31 3672.03 1816.3V1850.96H3663.3V1773.39H3672.03V1783.09ZM3707.75 1799.5C3707.75 1795.54 3706.95 1792.08 3705.35 1789.14C3703.75 1786.19 3701.57 1783.95 3698.82 1782.42C3696.13 1780.88 3693.15 1780.11 3689.89 1780.11C3686.69 1780.11 3683.71 1780.91 3680.96 1782.51C3678.27 1784.05 3676.1 1786.32 3674.43 1789.33C3672.83 1792.27 3672.03 1795.7 3672.03 1799.6C3672.03 1803.57 3672.83 1807.06 3674.43 1810.06C3676.1 1813.01 3678.27 1815.28 3680.96 1816.88C3683.71 1818.42 3686.69 1819.18 3689.89 1819.18C3693.15 1819.18 3696.13 1818.42 3698.82 1816.88C3701.57 1815.28 3703.75 1813.01 3705.35 1810.06C3706.95 1807.06 3707.75 1803.54 3707.75 1799.5ZM3776.17 1797.68C3776.17 1799.34 3776.08 1801.1 3775.89 1802.96H3733.84C3734.16 1808.14 3735.92 1812.21 3739.12 1815.15C3742.38 1818.03 3746.32 1819.47 3750.93 1819.47C3754.7 1819.47 3757.84 1818.61 3760.33 1816.88C3762.89 1815.09 3764.69 1812.72 3765.71 1809.78H3775.12C3773.71 1814.83 3770.89 1818.96 3766.67 1822.16C3762.45 1825.3 3757.2 1826.86 3750.93 1826.86C3745.93 1826.86 3741.45 1825.74 3737.49 1823.5C3733.58 1821.26 3730.51 1818.1 3728.27 1814C3726.03 1809.84 3724.91 1805.04 3724.91 1799.6C3724.91 1794.16 3726 1789.39 3728.17 1785.3C3730.35 1781.2 3733.39 1778.06 3737.29 1775.89C3741.26 1773.65 3745.81 1772.53 3750.93 1772.53C3755.92 1772.53 3760.33 1773.62 3764.17 1775.79C3768.01 1777.97 3770.96 1780.98 3773.01 1784.82C3775.12 1788.59 3776.17 1792.88 3776.17 1797.68ZM3767.15 1795.86C3767.15 1792.53 3766.41 1789.68 3764.94 1787.31C3763.47 1784.88 3761.45 1783.06 3758.89 1781.84C3756.4 1780.56 3753.61 1779.92 3750.54 1779.92C3746.13 1779.92 3742.35 1781.33 3739.21 1784.14C3736.14 1786.96 3734.38 1790.86 3733.93 1795.86H3767.15ZM3813.34 1772.43C3819.74 1772.43 3824.92 1774.38 3828.89 1778.29C3832.86 1782.13 3834.84 1787.7 3834.84 1794.99V1826H3826.2V1796.24C3826.2 1790.99 3824.89 1786.99 3822.26 1784.24C3819.64 1781.42 3816.06 1780.02 3811.51 1780.02C3806.9 1780.02 3803.22 1781.46 3800.47 1784.34C3797.78 1787.22 3796.44 1791.41 3796.44 1796.91V1826H3787.7V1773.39H3796.44V1780.88C3798.17 1778.19 3800.5 1776.11 3803.45 1774.64C3806.46 1773.17 3809.75 1772.43 3813.34 1772.43ZM3893.33 1826.86C3889.3 1826.86 3885.68 1826.19 3882.48 1824.85C3879.28 1823.44 3876.75 1821.52 3874.9 1819.09C3873.04 1816.59 3872.02 1813.74 3871.82 1810.54H3880.85C3881.1 1813.17 3882.32 1815.31 3884.5 1816.98C3886.74 1818.64 3889.65 1819.47 3893.23 1819.47C3896.56 1819.47 3899.18 1818.74 3901.1 1817.26C3903.02 1815.79 3903.98 1813.94 3903.98 1811.7C3903.98 1809.39 3902.96 1807.7 3900.91 1806.61C3898.86 1805.46 3895.7 1804.34 3891.41 1803.25C3887.5 1802.22 3884.3 1801.2 3881.81 1800.18C3879.38 1799.09 3877.26 1797.52 3875.47 1795.47C3873.74 1793.36 3872.88 1790.61 3872.88 1787.22C3872.88 1784.53 3873.68 1782.06 3875.28 1779.82C3876.88 1777.58 3879.15 1775.82 3882.1 1774.54C3885.04 1773.2 3888.4 1772.53 3892.18 1772.53C3898 1772.53 3902.7 1774 3906.29 1776.94C3909.87 1779.89 3911.79 1783.92 3912.05 1789.04H3903.31C3903.12 1786.29 3902 1784.08 3899.95 1782.42C3897.97 1780.75 3895.28 1779.92 3891.89 1779.92C3888.75 1779.92 3886.26 1780.59 3884.4 1781.94C3882.54 1783.28 3881.62 1785.04 3881.62 1787.22C3881.62 1788.94 3882.16 1790.38 3883.25 1791.54C3884.4 1792.62 3885.81 1793.52 3887.47 1794.22C3889.2 1794.86 3891.57 1795.6 3894.58 1796.43C3898.35 1797.46 3901.42 1798.48 3903.79 1799.5C3906.16 1800.46 3908.18 1801.94 3909.84 1803.92C3911.57 1805.9 3912.46 1808.5 3912.53 1811.7C3912.53 1814.58 3911.73 1817.17 3910.13 1819.47C3908.53 1821.78 3906.26 1823.6 3903.31 1824.94C3900.43 1826.22 3897.1 1826.86 3893.33 1826.86ZM3947.8 1826.86C3942.88 1826.86 3938.4 1825.74 3934.36 1823.5C3930.4 1821.26 3927.26 1818.1 3924.96 1814C3922.72 1809.84 3921.6 1805.04 3921.6 1799.6C3921.6 1794.22 3922.75 1789.49 3925.05 1785.39C3927.42 1781.23 3930.62 1778.06 3934.65 1775.89C3938.68 1773.65 3943.2 1772.53 3948.19 1772.53C3953.18 1772.53 3957.69 1773.65 3961.72 1775.89C3965.76 1778.06 3968.92 1781.2 3971.23 1785.3C3973.6 1789.39 3974.78 1794.16 3974.78 1799.6C3974.78 1805.04 3973.56 1809.84 3971.13 1814C3968.76 1818.1 3965.53 1821.26 3961.44 1823.5C3957.34 1825.74 3952.8 1826.86 3947.8 1826.86ZM3947.8 1819.18C3950.94 1819.18 3953.88 1818.45 3956.64 1816.98C3959.39 1815.5 3961.6 1813.3 3963.26 1810.35C3964.99 1807.41 3965.85 1803.82 3965.85 1799.6C3965.85 1795.38 3965.02 1791.79 3963.36 1788.85C3961.69 1785.9 3959.52 1783.73 3956.83 1782.32C3954.14 1780.85 3951.23 1780.11 3948.09 1780.11C3944.89 1780.11 3941.95 1780.85 3939.26 1782.32C3936.64 1783.73 3934.52 1785.9 3932.92 1788.85C3931.32 1791.79 3930.52 1795.38 3930.52 1799.6C3930.52 1803.89 3931.29 1807.5 3932.83 1810.45C3934.43 1813.39 3936.54 1815.6 3939.16 1817.07C3941.79 1818.48 3944.67 1819.18 3947.8 1819.18ZM4032.92 1773.39V1826H4024.19V1818.22C4022.52 1820.91 4020.19 1823.02 4017.18 1824.56C4014.24 1826.03 4010.97 1826.77 4007.39 1826.77C4003.29 1826.77 3999.61 1825.94 3996.35 1824.27C3993.08 1822.54 3990.49 1819.98 3988.57 1816.59C3986.72 1813.2 3985.79 1809.07 3985.79 1804.21V1773.39H3994.43V1803.06C3994.43 1808.24 3995.74 1812.24 3998.36 1815.06C4000.99 1817.81 4004.57 1819.18 4009.12 1819.18C4013.79 1819.18 4017.47 1817.74 4020.16 1814.86C4022.84 1811.98 4024.19 1807.79 4024.19 1802.29V1773.39H4032.92ZM4056.41 1781.94C4057.95 1778.93 4060.12 1776.59 4062.94 1774.93C4065.82 1773.26 4069.31 1772.43 4073.4 1772.43V1781.46H4071.1C4061.31 1781.46 4056.41 1786.77 4056.41 1797.39V1826H4047.67V1773.39H4056.41V1781.94ZM4080.22 1799.6C4080.22 1794.16 4081.31 1789.42 4083.49 1785.39C4085.66 1781.3 4088.67 1778.13 4092.51 1775.89C4096.41 1773.65 4100.86 1772.53 4105.85 1772.53C4112.32 1772.53 4117.63 1774.1 4121.79 1777.23C4126.01 1780.37 4128.8 1784.72 4130.14 1790.29H4120.73C4119.84 1787.09 4118.08 1784.56 4115.45 1782.7C4112.89 1780.85 4109.69 1779.92 4105.85 1779.92C4100.86 1779.92 4096.83 1781.65 4093.76 1785.1C4090.69 1788.5 4089.15 1793.33 4089.15 1799.6C4089.15 1805.94 4090.69 1810.83 4093.76 1814.29C4096.83 1817.74 4100.86 1819.47 4105.85 1819.47C4109.69 1819.47 4112.89 1818.58 4115.45 1816.78C4118.01 1814.99 4119.77 1812.43 4120.73 1809.1H4130.14C4128.73 1814.48 4125.92 1818.8 4121.69 1822.06C4117.47 1825.26 4112.19 1826.86 4105.85 1826.86C4100.86 1826.86 4096.41 1825.74 4092.51 1823.5C4088.67 1821.26 4085.66 1818.1 4083.49 1814C4081.31 1809.9 4080.22 1805.1 4080.22 1799.6ZM4189.8 1797.68C4189.8 1799.34 4189.7 1801.1 4189.51 1802.96H4147.46C4147.78 1808.14 4149.54 1812.21 4152.74 1815.15C4156.01 1818.03 4159.94 1819.47 4164.55 1819.47C4168.33 1819.47 4171.46 1818.61 4173.96 1816.88C4176.52 1815.09 4178.31 1812.72 4179.33 1809.78H4188.74C4187.33 1814.83 4184.52 1818.96 4180.29 1822.16C4176.07 1825.3 4170.82 1826.86 4164.55 1826.86C4159.56 1826.86 4155.08 1825.74 4151.11 1823.5C4147.21 1821.26 4144.13 1818.1 4141.89 1814C4139.65 1809.84 4138.53 1805.04 4138.53 1799.6C4138.53 1794.16 4139.62 1789.39 4141.8 1785.3C4143.97 1781.2 4147.01 1778.06 4150.92 1775.89C4154.89 1773.65 4159.43 1772.53 4164.55 1772.53C4169.54 1772.53 4173.96 1773.62 4177.8 1775.79C4181.64 1777.97 4184.58 1780.98 4186.63 1784.82C4188.74 1788.59 4189.8 1792.88 4189.8 1797.68ZM4180.77 1795.86C4180.77 1792.53 4180.04 1789.68 4178.57 1787.31C4177.09 1784.88 4175.08 1783.06 4172.52 1781.84C4170.02 1780.56 4167.24 1779.92 4164.17 1779.92C4159.75 1779.92 4155.97 1781.33 4152.84 1784.14C4149.77 1786.96 4148.01 1790.86 4147.56 1795.86H4180.77ZM4223.66 1799.6C4223.66 1794.16 4224.75 1789.42 4226.92 1785.39C4229.1 1781.3 4232.11 1778.13 4235.95 1775.89C4239.85 1773.65 4244.3 1772.53 4249.29 1772.53C4255.76 1772.53 4261.07 1774.1 4265.23 1777.23C4269.45 1780.37 4272.24 1784.72 4273.58 1790.29H4264.17C4263.28 1787.09 4261.52 1784.56 4258.89 1782.7C4256.33 1780.85 4253.13 1779.92 4249.29 1779.92C4244.3 1779.92 4240.27 1781.65 4237.2 1785.1C4234.12 1788.5 4232.59 1793.33 4232.59 1799.6C4232.59 1805.94 4234.12 1810.83 4237.2 1814.29C4240.27 1817.74 4244.3 1819.47 4249.29 1819.47C4253.13 1819.47 4256.33 1818.58 4258.89 1816.78C4261.45 1814.99 4263.21 1812.43 4264.17 1809.1H4273.58C4272.17 1814.48 4269.36 1818.8 4265.13 1822.06C4260.91 1825.26 4255.63 1826.86 4249.29 1826.86C4244.3 1826.86 4239.85 1825.74 4235.95 1823.5C4232.11 1821.26 4229.1 1818.1 4226.92 1814C4224.75 1809.9 4223.66 1805.1 4223.66 1799.6ZM4308.18 1826.86C4303.25 1826.86 4298.77 1825.74 4294.74 1823.5C4290.77 1821.26 4287.64 1818.1 4285.33 1814C4283.09 1809.84 4281.97 1805.04 4281.97 1799.6C4281.97 1794.22 4283.12 1789.49 4285.43 1785.39C4287.8 1781.23 4291 1778.06 4295.03 1775.89C4299.06 1773.65 4303.57 1772.53 4308.56 1772.53C4313.56 1772.53 4318.07 1773.65 4322.1 1775.89C4326.13 1778.06 4329.3 1781.2 4331.6 1785.3C4333.97 1789.39 4335.16 1794.16 4335.16 1799.6C4335.16 1805.04 4333.94 1809.84 4331.51 1814C4329.14 1818.1 4325.91 1821.26 4321.81 1823.5C4317.72 1825.74 4313.17 1826.86 4308.18 1826.86ZM4308.18 1819.18C4311.32 1819.18 4314.26 1818.45 4317.01 1816.98C4319.76 1815.5 4321.97 1813.3 4323.64 1810.35C4325.36 1807.41 4326.23 1803.82 4326.23 1799.6C4326.23 1795.38 4325.4 1791.79 4323.73 1788.85C4322.07 1785.9 4319.89 1783.73 4317.2 1782.32C4314.52 1780.85 4311.6 1780.11 4308.47 1780.11C4305.27 1780.11 4302.32 1780.85 4299.64 1782.32C4297.01 1783.73 4294.9 1785.9 4293.3 1788.85C4291.7 1791.79 4290.9 1795.38 4290.9 1799.6C4290.9 1803.89 4291.67 1807.5 4293.2 1810.45C4294.8 1813.39 4296.92 1815.6 4299.54 1817.07C4302.16 1818.48 4305.04 1819.18 4308.18 1819.18ZM4409.91 1772.43C4414 1772.43 4417.65 1773.3 4420.85 1775.02C4424.05 1776.69 4426.58 1779.22 4428.43 1782.61C4430.29 1786 4431.22 1790.13 4431.22 1794.99V1826H4422.58V1796.24C4422.58 1790.99 4421.27 1786.99 4418.64 1784.24C4416.08 1781.42 4412.59 1780.02 4408.18 1780.02C4403.63 1780.02 4400.02 1781.49 4397.33 1784.43C4394.64 1787.31 4393.3 1791.5 4393.3 1797.01V1826H4384.66V1796.24C4384.66 1790.99 4383.35 1786.99 4380.72 1784.24C4378.16 1781.42 4374.67 1780.02 4370.26 1780.02C4365.71 1780.02 4362.1 1781.49 4359.41 1784.43C4356.72 1787.31 4355.38 1791.5 4355.38 1797.01V1826H4346.64V1773.39H4355.38V1780.98C4357.11 1778.22 4359.41 1776.11 4362.29 1774.64C4365.23 1773.17 4368.47 1772.43 4371.99 1772.43C4376.4 1772.43 4380.31 1773.42 4383.7 1775.41C4387.09 1777.39 4389.62 1780.3 4391.28 1784.14C4392.75 1780.43 4395.19 1777.55 4398.58 1775.5C4401.97 1773.46 4405.75 1772.43 4409.91 1772.43ZM4508.81 1772.43C4512.91 1772.43 4516.56 1773.3 4519.76 1775.02C4522.96 1776.69 4525.48 1779.22 4527.34 1782.61C4529.2 1786 4530.12 1790.13 4530.12 1794.99V1826H4521.48V1796.24C4521.48 1790.99 4520.17 1786.99 4517.55 1784.24C4514.99 1781.42 4511.5 1780.02 4507.08 1780.02C4502.54 1780.02 4498.92 1781.49 4496.24 1784.43C4493.55 1787.31 4492.2 1791.5 4492.2 1797.01V1826H4483.56V1796.24C4483.56 1790.99 4482.25 1786.99 4479.63 1784.24C4477.07 1781.42 4473.58 1780.02 4469.16 1780.02C4464.62 1780.02 4461 1781.49 4458.32 1784.43C4455.63 1787.31 4454.28 1791.5 4454.28 1797.01V1826H4445.55V1773.39H4454.28V1780.98C4456.01 1778.22 4458.32 1776.11 4461.2 1774.64C4464.14 1773.17 4467.37 1772.43 4470.89 1772.43C4475.31 1772.43 4479.21 1773.42 4482.6 1775.41C4486 1777.39 4488.52 1780.3 4490.19 1784.14C4491.66 1780.43 4494.09 1777.55 4497.48 1775.5C4500.88 1773.46 4504.65 1772.43 4508.81 1772.43ZM4591.11 1773.39V1826H4582.37V1818.22C4580.71 1820.91 4578.37 1823.02 4575.37 1824.56C4572.42 1826.03 4569.16 1826.77 4565.57 1826.77C4561.48 1826.77 4557.8 1825.94 4554.53 1824.27C4551.27 1822.54 4548.68 1819.98 4546.76 1816.59C4544.9 1813.2 4543.97 1809.07 4543.97 1804.21V1773.39H4552.61V1803.06C4552.61 1808.24 4553.93 1812.24 4556.55 1815.06C4559.17 1817.81 4562.76 1819.18 4567.3 1819.18C4571.97 1819.18 4575.65 1817.74 4578.34 1814.86C4581.03 1811.98 4582.37 1807.79 4582.37 1802.29V1773.39H4591.11ZM4631.49 1772.43C4637.89 1772.43 4643.08 1774.38 4647.04 1778.29C4651.01 1782.13 4653 1787.7 4653 1794.99V1826H4644.36V1796.24C4644.36 1790.99 4643.04 1786.99 4640.42 1784.24C4637.8 1781.42 4634.21 1780.02 4629.67 1780.02C4625.06 1780.02 4621.38 1781.46 4618.63 1784.34C4615.94 1787.22 4614.6 1791.41 4614.6 1796.91V1826H4605.86V1773.39H4614.6V1780.88C4616.32 1778.19 4618.66 1776.11 4621.6 1774.64C4624.61 1773.17 4627.91 1772.43 4631.49 1772.43ZM4671.78 1764.85C4670.12 1764.85 4668.71 1764.27 4667.56 1763.12C4666.4 1761.97 4665.83 1760.56 4665.83 1758.9C4665.83 1757.23 4666.4 1755.82 4667.56 1754.67C4668.71 1753.52 4670.12 1752.94 4671.78 1752.94C4673.38 1752.94 4674.72 1753.52 4675.81 1754.67C4676.96 1755.82 4677.54 1757.23 4677.54 1758.9C4677.54 1760.56 4676.96 1761.97 4675.81 1763.12C4674.72 1764.27 4673.38 1764.85 4671.78 1764.85ZM4676 1773.39V1826H4667.27V1773.39H4676ZM4701.55 1780.59V1811.6C4701.55 1814.16 4702.09 1815.98 4703.18 1817.07C4704.27 1818.1 4706.16 1818.61 4708.84 1818.61H4715.28V1826H4707.4C4702.54 1826 4698.89 1824.88 4696.46 1822.64C4694.03 1820.4 4692.81 1816.72 4692.81 1811.6V1780.59H4686V1773.39H4692.81V1760.14H4701.55V1773.39H4715.28V1780.59H4701.55ZM4771.17 1773.39L4739.49 1850.77H4730.47L4740.84 1825.42L4719.62 1773.39H4729.32L4745.83 1816.02L4762.15 1773.39H4771.17ZM4814.28 1783.09C4816.01 1780.08 4818.57 1777.58 4821.96 1775.6C4825.42 1773.55 4829.42 1772.53 4833.96 1772.53C4838.64 1772.53 4842.86 1773.65 4846.64 1775.89C4850.48 1778.13 4853.48 1781.3 4855.66 1785.39C4857.84 1789.42 4858.92 1794.13 4858.92 1799.5C4858.92 1804.82 4857.84 1809.55 4855.66 1813.71C4853.48 1817.87 4850.48 1821.1 4846.64 1823.41C4842.86 1825.71 4838.64 1826.86 4833.96 1826.86C4829.48 1826.86 4825.52 1825.87 4822.06 1823.89C4818.67 1821.84 4816.08 1819.31 4814.28 1816.3V1850.96H4805.55V1773.39H4814.28V1783.09ZM4850 1799.5C4850 1795.54 4849.2 1792.08 4847.6 1789.14C4846 1786.19 4843.82 1783.95 4841.07 1782.42C4838.38 1780.88 4835.4 1780.11 4832.14 1780.11C4828.94 1780.11 4825.96 1780.91 4823.21 1782.51C4820.52 1784.05 4818.35 1786.32 4816.68 1789.33C4815.08 1792.27 4814.28 1795.7 4814.28 1799.6C4814.28 1803.57 4815.08 1807.06 4816.68 1810.06C4818.35 1813.01 4820.52 1815.28 4823.21 1816.88C4825.96 1818.42 4828.94 1819.18 4832.14 1819.18C4835.4 1819.18 4838.38 1818.42 4841.07 1816.88C4843.82 1815.28 4846 1813.01 4847.6 1810.06C4849.2 1807.06 4850 1803.54 4850 1799.5ZM4879.16 1781.94C4880.7 1778.93 4882.87 1776.59 4885.69 1774.93C4888.57 1773.26 4892.06 1772.43 4896.15 1772.43V1781.46H4893.85C4884.06 1781.46 4879.16 1786.77 4879.16 1797.39V1826H4870.42V1773.39H4879.16V1781.94ZM4929.18 1826.86C4924.25 1826.86 4919.77 1825.74 4915.74 1823.5C4911.77 1821.26 4908.64 1818.1 4906.33 1814C4904.09 1809.84 4902.97 1805.04 4902.97 1799.6C4902.97 1794.22 4904.12 1789.49 4906.43 1785.39C4908.8 1781.23 4912 1778.06 4916.03 1775.89C4920.06 1773.65 4924.57 1772.53 4929.56 1772.53C4934.56 1772.53 4939.07 1773.65 4943.1 1775.89C4947.13 1778.06 4950.3 1781.2 4952.6 1785.3C4954.97 1789.39 4956.16 1794.16 4956.16 1799.6C4956.16 1805.04 4954.94 1809.84 4952.51 1814C4950.14 1818.1 4946.91 1821.26 4942.81 1823.5C4938.72 1825.74 4934.17 1826.86 4929.18 1826.86ZM4929.18 1819.18C4932.32 1819.18 4935.26 1818.45 4938.01 1816.98C4940.76 1815.5 4942.97 1813.3 4944.64 1810.35C4946.36 1807.41 4947.23 1803.82 4947.23 1799.6C4947.23 1795.38 4946.4 1791.79 4944.73 1788.85C4943.07 1785.9 4940.89 1783.73 4938.2 1782.32C4935.52 1780.85 4932.6 1780.11 4929.47 1780.11C4926.27 1780.11 4923.32 1780.85 4920.64 1782.32C4918.01 1783.73 4915.9 1785.9 4914.3 1788.85C4912.7 1791.79 4911.9 1795.38 4911.9 1799.6C4911.9 1803.89 4912.67 1807.5 4914.2 1810.45C4915.8 1813.39 4917.92 1815.6 4920.54 1817.07C4923.16 1818.48 4926.04 1819.18 4929.18 1819.18ZM4972.35 1764.85C4970.68 1764.85 4969.27 1764.27 4968.12 1763.12C4967.03 1761.97 4966.49 1760.56 4966.49 1758.9C4966.49 1757.23 4967.03 1755.82 4968.12 1754.67C4969.27 1753.52 4970.68 1752.94 4972.35 1752.94C4974.01 1752.94 4975.39 1753.52 4976.47 1754.67C4977.63 1755.82 4978.2 1757.23 4978.2 1758.9C4978.2 1760.56 4977.63 1761.97 4976.47 1763.12C4975.39 1764.27 4974.01 1764.85 4972.35 1764.85ZM4976.67 1837.42C4976.67 1842.1 4975.48 1845.52 4973.11 1847.7C4970.75 1849.87 4967.29 1850.96 4962.75 1850.96H4957.66V1843.57H4961.31C4963.74 1843.57 4965.43 1843.09 4966.39 1842.13C4967.42 1841.17 4967.93 1839.54 4967.93 1837.23V1773.39H4976.67V1837.42ZM5039.45 1797.68C5039.45 1799.34 5039.36 1801.1 5039.17 1802.96H4997.12C4997.44 1808.14 4999.2 1812.21 5002.4 1815.15C5005.66 1818.03 5009.6 1819.47 5014.21 1819.47C5017.98 1819.47 5021.12 1818.61 5023.61 1816.88C5026.17 1815.09 5027.97 1812.72 5028.99 1809.78H5038.4C5036.99 1814.83 5034.17 1818.96 5029.95 1822.16C5025.73 1825.3 5020.48 1826.86 5014.21 1826.86C5009.21 1826.86 5004.73 1825.74 5000.77 1823.5C4996.86 1821.26 4993.79 1818.1 4991.55 1814C4989.31 1809.84 4988.19 1805.04 4988.19 1799.6C4988.19 1794.16 4989.28 1789.39 4991.45 1785.3C4993.63 1781.2 4996.67 1778.06 5000.57 1775.89C5004.54 1773.65 5009.09 1772.53 5014.21 1772.53C5019.2 1772.53 5023.61 1773.62 5027.45 1775.79C5031.29 1777.97 5034.24 1780.98 5036.29 1784.82C5038.4 1788.59 5039.45 1792.88 5039.45 1797.68ZM5030.43 1795.86C5030.43 1792.53 5029.69 1789.68 5028.22 1787.31C5026.75 1784.88 5024.73 1783.06 5022.17 1781.84C5019.68 1780.56 5016.89 1779.92 5013.82 1779.92C5009.41 1779.92 5005.63 1781.33 5002.49 1784.14C4999.42 1786.96 4997.66 1790.86 4997.21 1795.86H5030.43ZM5047.72 1799.6C5047.72 1794.16 5048.81 1789.42 5050.99 1785.39C5053.16 1781.3 5056.17 1778.13 5060.01 1775.89C5063.91 1773.65 5068.36 1772.53 5073.35 1772.53C5079.82 1772.53 5085.13 1774.1 5089.29 1777.23C5093.51 1780.37 5096.3 1784.72 5097.64 1790.29H5088.23C5087.34 1787.09 5085.58 1784.56 5082.95 1782.7C5080.39 1780.85 5077.19 1779.92 5073.35 1779.92C5068.36 1779.92 5064.33 1781.65 5061.26 1785.1C5058.19 1788.5 5056.65 1793.33 5056.65 1799.6C5056.65 1805.94 5058.19 1810.83 5061.26 1814.29C5064.33 1817.74 5068.36 1819.47 5073.35 1819.47C5077.19 1819.47 5080.39 1818.58 5082.95 1816.78C5085.51 1814.99 5087.27 1812.43 5088.23 1809.1H5097.64C5096.23 1814.48 5093.42 1818.8 5089.19 1822.06C5084.97 1825.26 5079.69 1826.86 5073.35 1826.86C5068.36 1826.86 5063.91 1825.74 5060.01 1823.5C5056.17 1821.26 5053.16 1818.1 5050.99 1814C5048.81 1809.9 5047.72 1805.1 5047.72 1799.6ZM5119.95 1780.59V1811.6C5119.95 1814.16 5120.5 1815.98 5121.59 1817.07C5122.67 1818.1 5124.56 1818.61 5127.25 1818.61H5133.68V1826H5125.81C5120.95 1826 5117.3 1824.88 5114.87 1822.64C5112.43 1820.4 5111.22 1816.72 5111.22 1811.6V1780.59H5104.4V1773.39H5111.22V1760.14H5119.95V1773.39H5133.68V1780.59H5119.95ZM5153.29 1813.9L5142.54 1839.73H5136.68L5143.69 1813.9H5153.29ZM5207.52 1826.86C5203.48 1826.86 5199.87 1826.19 5196.67 1824.85C5193.47 1823.44 5190.94 1821.52 5189.08 1819.09C5187.23 1816.59 5186.2 1813.74 5186.01 1810.54H5195.04C5195.29 1813.17 5196.51 1815.31 5198.68 1816.98C5200.92 1818.64 5203.84 1819.47 5207.42 1819.47C5210.75 1819.47 5213.37 1818.74 5215.29 1817.26C5217.21 1815.79 5218.17 1813.94 5218.17 1811.7C5218.17 1809.39 5217.15 1807.7 5215.1 1806.61C5213.05 1805.46 5209.88 1804.34 5205.6 1803.25C5201.69 1802.22 5198.49 1801.2 5196 1800.18C5193.56 1799.09 5191.45 1797.52 5189.66 1795.47C5187.93 1793.36 5187.07 1790.61 5187.07 1787.22C5187.07 1784.53 5187.87 1782.06 5189.47 1779.82C5191.07 1777.58 5193.34 1775.82 5196.28 1774.54C5199.23 1773.2 5202.59 1772.53 5206.36 1772.53C5212.19 1772.53 5216.89 1774 5220.48 1776.94C5224.06 1779.89 5225.98 1783.92 5226.24 1789.04H5217.5C5217.31 1786.29 5216.19 1784.08 5214.14 1782.42C5212.16 1780.75 5209.47 1779.92 5206.08 1779.92C5202.94 1779.92 5200.44 1780.59 5198.59 1781.94C5196.73 1783.28 5195.8 1785.04 5195.8 1787.22C5195.8 1788.94 5196.35 1790.38 5197.44 1791.54C5198.59 1792.62 5200 1793.52 5201.66 1794.22C5203.39 1794.86 5205.76 1795.6 5208.76 1796.43C5212.54 1797.46 5215.61 1798.48 5217.98 1799.5C5220.35 1800.46 5222.36 1801.94 5224.03 1803.92C5225.76 1805.9 5226.65 1808.5 5226.72 1811.7C5226.72 1814.58 5225.92 1817.17 5224.32 1819.47C5222.72 1821.78 5220.44 1823.6 5217.5 1824.94C5214.62 1826.22 5211.29 1826.86 5207.52 1826.86ZM5285.7 1773.39V1826H5276.97V1818.22C5275.3 1820.91 5272.97 1823.02 5269.96 1824.56C5267.02 1826.03 5263.75 1826.77 5260.17 1826.77C5256.07 1826.77 5252.39 1825.94 5249.13 1824.27C5245.86 1822.54 5243.27 1819.98 5241.35 1816.59C5239.5 1813.2 5238.57 1809.07 5238.57 1804.21V1773.39H5247.21V1803.06C5247.21 1808.24 5248.52 1812.24 5251.14 1815.06C5253.77 1817.81 5257.35 1819.18 5261.9 1819.18C5266.57 1819.18 5270.25 1817.74 5272.94 1814.86C5275.62 1811.98 5276.97 1807.79 5276.97 1802.29V1773.39H5285.7ZM5309.19 1783.09C5310.92 1780.08 5313.48 1777.58 5316.87 1775.6C5320.33 1773.55 5324.33 1772.53 5328.87 1772.53C5333.54 1772.53 5337.77 1773.65 5341.54 1775.89C5345.38 1778.13 5348.39 1781.3 5350.57 1785.39C5352.74 1789.42 5353.83 1794.13 5353.83 1799.5C5353.83 1804.82 5352.74 1809.55 5350.57 1813.71C5348.39 1817.87 5345.38 1821.1 5341.54 1823.41C5337.77 1825.71 5333.54 1826.86 5328.87 1826.86C5324.39 1826.86 5320.42 1825.87 5316.97 1823.89C5313.57 1821.84 5310.98 1819.31 5309.19 1816.3V1850.96H5300.45V1773.39H5309.19V1783.09ZM5344.9 1799.5C5344.9 1795.54 5344.1 1792.08 5342.5 1789.14C5340.9 1786.19 5338.73 1783.95 5335.97 1782.42C5333.29 1780.88 5330.31 1780.11 5327.05 1780.11C5323.85 1780.11 5320.87 1780.91 5318.12 1782.51C5315.43 1784.05 5313.25 1786.32 5311.59 1789.33C5309.99 1792.27 5309.19 1795.7 5309.19 1799.6C5309.19 1803.57 5309.99 1807.06 5311.59 1810.06C5313.25 1813.01 5315.43 1815.28 5318.12 1816.88C5320.87 1818.42 5323.85 1819.18 5327.05 1819.18C5330.31 1819.18 5333.29 1818.42 5335.97 1816.88C5338.73 1815.28 5340.9 1813.01 5342.5 1810.06C5344.1 1807.06 5344.9 1803.54 5344.9 1799.5ZM5374.07 1783.09C5375.79 1780.08 5378.35 1777.58 5381.75 1775.6C5385.2 1773.55 5389.2 1772.53 5393.75 1772.53C5398.42 1772.53 5402.64 1773.65 5406.42 1775.89C5410.26 1778.13 5413.27 1781.3 5415.44 1785.39C5417.62 1789.42 5418.71 1794.13 5418.71 1799.5C5418.71 1804.82 5417.62 1809.55 5415.44 1813.71C5413.27 1817.87 5410.26 1821.1 5406.42 1823.41C5402.64 1825.71 5398.42 1826.86 5393.75 1826.86C5389.27 1826.86 5385.3 1825.87 5381.84 1823.89C5378.45 1821.84 5375.86 1819.31 5374.07 1816.3V1850.96H5365.33V1773.39H5374.07V1783.09ZM5409.78 1799.5C5409.78 1795.54 5408.98 1792.08 5407.38 1789.14C5405.78 1786.19 5403.6 1783.95 5400.85 1782.42C5398.16 1780.88 5395.19 1780.11 5391.92 1780.11C5388.72 1780.11 5385.75 1780.91 5382.99 1782.51C5380.31 1784.05 5378.13 1786.32 5376.47 1789.33C5374.87 1792.27 5374.07 1795.7 5374.07 1799.6C5374.07 1803.57 5374.87 1807.06 5376.47 1810.06C5378.13 1813.01 5380.31 1815.28 5382.99 1816.88C5385.75 1818.42 5388.72 1819.18 5391.92 1819.18C5395.19 1819.18 5398.16 1818.42 5400.85 1816.88C5403.6 1815.28 5405.78 1813.01 5407.38 1810.06C5408.98 1807.06 5409.78 1803.54 5409.78 1799.5ZM5453.15 1826.86C5448.22 1826.86 5443.74 1825.74 5439.71 1823.5C5435.74 1821.26 5432.6 1818.1 5430.3 1814C5428.06 1809.84 5426.94 1805.04 5426.94 1799.6C5426.94 1794.22 5428.09 1789.49 5430.4 1785.39C5432.76 1781.23 5435.96 1778.06 5440 1775.89C5444.03 1773.65 5448.54 1772.53 5453.53 1772.53C5458.52 1772.53 5463.04 1773.65 5467.07 1775.89C5471.1 1778.06 5474.27 1781.2 5476.57 1785.3C5478.94 1789.39 5480.12 1794.16 5480.12 1799.6C5480.12 1805.04 5478.91 1809.84 5476.48 1814C5474.11 1818.1 5470.88 1821.26 5466.78 1823.5C5462.68 1825.74 5458.14 1826.86 5453.15 1826.86ZM5453.15 1819.18C5456.28 1819.18 5459.23 1818.45 5461.98 1816.98C5464.73 1815.5 5466.94 1813.3 5468.6 1810.35C5470.33 1807.41 5471.2 1803.82 5471.2 1799.6C5471.2 1795.38 5470.36 1791.79 5468.7 1788.85C5467.04 1785.9 5464.86 1783.73 5462.17 1782.32C5459.48 1780.85 5456.57 1780.11 5453.44 1780.11C5450.24 1780.11 5447.29 1780.85 5444.6 1782.32C5441.98 1783.73 5439.87 1785.9 5438.27 1788.85C5436.67 1791.79 5435.87 1795.38 5435.87 1799.6C5435.87 1803.89 5436.64 1807.5 5438.17 1810.45C5439.77 1813.39 5441.88 1815.6 5444.51 1817.07C5447.13 1818.48 5450.01 1819.18 5453.15 1819.18ZM5500.35 1781.94C5501.88 1778.93 5504.06 1776.59 5506.87 1774.93C5509.75 1773.26 5513.24 1772.43 5517.34 1772.43V1781.46H5515.03C5505.24 1781.46 5500.35 1786.77 5500.35 1797.39V1826H5491.61V1773.39H5500.35V1781.94ZM5538.08 1780.59V1811.6C5538.08 1814.16 5538.62 1815.98 5539.71 1817.07C5540.8 1818.1 5542.69 1818.61 5545.38 1818.61H5551.81V1826H5543.94C5539.07 1826 5535.42 1824.88 5532.99 1822.64C5530.56 1820.4 5529.34 1816.72 5529.34 1811.6V1780.59H5522.53V1773.39H5529.34V1760.14H5538.08V1773.39H5551.81V1780.59H5538.08ZM5610.39 1797.68C5610.39 1799.34 5610.3 1801.1 5610.1 1802.96H5568.06C5568.38 1808.14 5570.14 1812.21 5573.34 1815.15C5576.6 1818.03 5580.54 1819.47 5585.14 1819.47C5588.92 1819.47 5592.06 1818.61 5594.55 1816.88C5597.11 1815.09 5598.9 1812.72 5599.93 1809.78H5609.34C5607.93 1814.83 5605.11 1818.96 5600.89 1822.16C5596.66 1825.3 5591.42 1826.86 5585.14 1826.86C5580.15 1826.86 5575.67 1825.74 5571.7 1823.5C5567.8 1821.26 5564.73 1818.1 5562.49 1814C5560.25 1809.84 5559.13 1805.04 5559.13 1799.6C5559.13 1794.16 5560.22 1789.39 5562.39 1785.3C5564.57 1781.2 5567.61 1778.06 5571.51 1775.89C5575.48 1773.65 5580.02 1772.53 5585.14 1772.53C5590.14 1772.53 5594.55 1773.62 5598.39 1775.79C5602.23 1777.97 5605.18 1780.98 5607.22 1784.82C5609.34 1788.59 5610.39 1792.88 5610.39 1797.68ZM5601.37 1795.86C5601.37 1792.53 5600.63 1789.68 5599.16 1787.31C5597.69 1784.88 5595.67 1783.06 5593.11 1781.84C5590.62 1780.56 5587.83 1779.92 5584.76 1779.92C5580.34 1779.92 5576.57 1781.33 5573.43 1784.14C5570.36 1786.96 5568.6 1790.86 5568.15 1795.86H5601.37ZM5618.66 1799.5C5618.66 1794.13 5619.75 1789.42 5621.92 1785.39C5624.1 1781.3 5627.08 1778.13 5630.85 1775.89C5634.69 1773.65 5638.98 1772.53 5643.72 1772.53C5647.81 1772.53 5651.62 1773.49 5655.14 1775.41C5658.66 1777.26 5661.35 1779.73 5663.2 1782.8V1754.96H5672.04V1826H5663.2V1816.11C5661.48 1819.25 5658.92 1821.84 5655.52 1823.89C5652.13 1825.87 5648.16 1826.86 5643.62 1826.86C5638.95 1826.86 5634.69 1825.71 5630.85 1823.41C5627.08 1821.1 5624.1 1817.87 5621.92 1813.71C5619.75 1809.55 5618.66 1804.82 5618.66 1799.5ZM5663.2 1799.6C5663.2 1795.63 5662.4 1792.18 5660.8 1789.23C5659.2 1786.29 5657.03 1784.05 5654.28 1782.51C5651.59 1780.91 5648.61 1780.11 5645.35 1780.11C5642.08 1780.11 5639.11 1780.88 5636.42 1782.42C5633.73 1783.95 5631.59 1786.19 5629.99 1789.14C5628.39 1792.08 5627.59 1795.54 5627.59 1799.5C5627.59 1803.54 5628.39 1807.06 5629.99 1810.06C5631.59 1813.01 5633.73 1815.28 5636.42 1816.88C5639.11 1818.42 5642.08 1819.18 5645.35 1819.18C5648.61 1819.18 5651.59 1818.42 5654.28 1816.88C5657.03 1815.28 5659.2 1813.01 5660.8 1810.06C5662.4 1807.06 5663.2 1803.57 5663.2 1799.6ZM5721.13 1783.18C5722.92 1780.05 5725.54 1777.49 5729 1775.5C5732.46 1773.52 5736.39 1772.53 5740.81 1772.53C5745.54 1772.53 5749.8 1773.65 5753.58 1775.89C5757.35 1778.13 5760.33 1781.3 5762.5 1785.39C5764.68 1789.42 5765.77 1794.13 5765.77 1799.5C5765.77 1804.82 5764.68 1809.55 5762.5 1813.71C5760.33 1817.87 5757.32 1821.1 5753.48 1823.41C5749.7 1825.71 5745.48 1826.86 5740.81 1826.86C5736.26 1826.86 5732.26 1825.87 5728.81 1823.89C5725.42 1821.9 5722.86 1819.38 5721.13 1816.3V1826H5712.39V1754.96H5721.13V1783.18ZM5756.84 1799.5C5756.84 1795.54 5756.04 1792.08 5754.44 1789.14C5752.84 1786.19 5750.66 1783.95 5747.91 1782.42C5745.22 1780.88 5742.25 1780.11 5738.98 1780.11C5735.78 1780.11 5732.81 1780.91 5730.06 1782.51C5727.37 1784.05 5725.19 1786.32 5723.53 1789.33C5721.93 1792.27 5721.13 1795.7 5721.13 1799.6C5721.13 1803.57 5721.93 1807.06 5723.53 1810.06C5725.19 1813.01 5727.37 1815.28 5730.06 1816.88C5732.81 1818.42 5735.78 1819.18 5738.98 1819.18C5742.25 1819.18 5745.22 1818.42 5747.91 1816.88C5750.66 1815.28 5752.84 1813.01 5754.44 1810.06C5756.04 1807.06 5756.84 1803.54 5756.84 1799.5ZM5822.58 1773.39L5790.9 1850.77H5781.88L5792.24 1825.42L5771.03 1773.39H5780.72L5797.24 1816.02L5813.56 1773.39H5822.58ZM5920.22 1772.43C5924.31 1772.43 5927.96 1773.3 5931.16 1775.02C5934.36 1776.69 5936.89 1779.22 5938.75 1782.61C5940.6 1786 5941.53 1790.13 5941.53 1794.99V1826H5932.89V1796.24C5932.89 1790.99 5931.58 1786.99 5928.95 1784.24C5926.39 1781.42 5922.91 1780.02 5918.49 1780.02C5913.95 1780.02 5910.33 1781.49 5907.64 1784.43C5904.95 1787.31 5903.61 1791.5 5903.61 1797.01V1826H5894.97V1796.24C5894.97 1790.99 5893.66 1786.99 5891.03 1784.24C5888.47 1781.42 5884.99 1780.02 5880.57 1780.02C5876.03 1780.02 5872.41 1781.49 5869.72 1784.43C5867.03 1787.31 5865.69 1791.5 5865.69 1797.01V1826H5856.95V1773.39H5865.69V1780.98C5867.42 1778.22 5869.72 1776.11 5872.6 1774.64C5875.55 1773.17 5878.78 1772.43 5882.3 1772.43C5886.71 1772.43 5890.62 1773.42 5894.01 1775.41C5897.4 1777.39 5899.93 1780.3 5901.59 1784.14C5903.07 1780.43 5905.5 1777.55 5908.89 1775.5C5912.28 1773.46 5916.06 1772.43 5920.22 1772.43ZM5952.6 1799.5C5952.6 1794.13 5953.68 1789.42 5955.86 1785.39C5958.04 1781.3 5961.01 1778.13 5964.79 1775.89C5968.63 1773.65 5972.88 1772.53 5977.56 1772.53C5982.16 1772.53 5986.16 1773.52 5989.56 1775.5C5992.95 1777.49 5995.48 1779.98 5997.14 1782.99V1773.39H6005.97V1826H5997.14V1816.21C5995.41 1819.28 5992.82 1821.84 5989.36 1823.89C5985.97 1825.87 5982 1826.86 5977.46 1826.86C5972.79 1826.86 5968.56 1825.71 5964.79 1823.41C5961.01 1821.1 5958.04 1817.87 5955.86 1813.71C5953.68 1809.55 5952.6 1804.82 5952.6 1799.5ZM5997.14 1799.6C5997.14 1795.63 5996.34 1792.18 5994.74 1789.23C5993.14 1786.29 5990.96 1784.05 5988.21 1782.51C5985.52 1780.91 5982.55 1780.11 5979.28 1780.11C5976.02 1780.11 5973.04 1780.88 5970.36 1782.42C5967.67 1783.95 5965.52 1786.19 5963.92 1789.14C5962.32 1792.08 5961.52 1795.54 5961.52 1799.5C5961.52 1803.54 5962.32 1807.06 5963.92 1810.06C5965.52 1813.01 5967.67 1815.28 5970.36 1816.88C5973.04 1818.42 5976.02 1819.18 5979.28 1819.18C5982.55 1819.18 5985.52 1818.42 5988.21 1816.88C5990.96 1815.28 5993.14 1813.01 5994.74 1810.06C5996.34 1807.06 5997.14 1803.57 5997.14 1799.6ZM6025.25 1764.85C6023.58 1764.85 6022.18 1764.27 6021.02 1763.12C6019.87 1761.97 6019.3 1760.56 6019.3 1758.9C6019.3 1757.23 6019.87 1755.82 6021.02 1754.67C6022.18 1753.52 6023.58 1752.94 6025.25 1752.94C6026.85 1752.94 6028.19 1753.52 6029.28 1754.67C6030.43 1755.82 6031.01 1757.23 6031.01 1758.9C6031.01 1760.56 6030.43 1761.97 6029.28 1763.12C6028.19 1764.27 6026.85 1764.85 6025.25 1764.85ZM6029.47 1773.39V1826H6020.74V1773.39H6029.47ZM6069.99 1772.43C6076.39 1772.43 6081.58 1774.38 6085.54 1778.29C6089.51 1782.13 6091.5 1787.7 6091.5 1794.99V1826H6082.86V1796.24C6082.86 1790.99 6081.54 1786.99 6078.92 1784.24C6076.3 1781.42 6072.71 1780.02 6068.17 1780.02C6063.56 1780.02 6059.88 1781.46 6057.13 1784.34C6054.44 1787.22 6053.1 1791.41 6053.1 1796.91V1826H6044.36V1773.39H6053.1V1780.88C6054.82 1778.19 6057.16 1776.11 6060.1 1774.64C6063.11 1773.17 6066.41 1772.43 6069.99 1772.43ZM6116.42 1780.59V1811.6C6116.42 1814.16 6116.97 1815.98 6118.06 1817.07C6119.14 1818.1 6121.03 1818.61 6123.72 1818.61H6130.15V1826H6122.28C6117.42 1826 6113.77 1824.88 6111.34 1822.64C6108.9 1820.4 6107.69 1816.72 6107.69 1811.6V1780.59H6100.87V1773.39H6107.69V1760.14H6116.42V1773.39H6130.15V1780.59H6116.42ZM6137.47 1799.5C6137.47 1794.13 6138.56 1789.42 6140.74 1785.39C6142.91 1781.3 6145.89 1778.13 6149.66 1775.89C6153.5 1773.65 6157.76 1772.53 6162.43 1772.53C6167.04 1772.53 6171.04 1773.52 6174.43 1775.5C6177.82 1777.49 6180.35 1779.98 6182.02 1782.99V1773.39H6190.85V1826H6182.02V1816.21C6180.29 1819.28 6177.7 1821.84 6174.24 1823.89C6170.85 1825.87 6166.88 1826.86 6162.34 1826.86C6157.66 1826.86 6153.44 1825.71 6149.66 1823.41C6145.89 1821.1 6142.91 1817.87 6140.74 1813.71C6138.56 1809.55 6137.47 1804.82 6137.47 1799.5ZM6182.02 1799.6C6182.02 1795.63 6181.22 1792.18 6179.62 1789.23C6178.02 1786.29 6175.84 1784.05 6173.09 1782.51C6170.4 1780.91 6167.42 1780.11 6164.16 1780.11C6160.9 1780.11 6157.92 1780.88 6155.23 1782.42C6152.54 1783.95 6150.4 1786.19 6148.8 1789.14C6147.2 1792.08 6146.4 1795.54 6146.4 1799.5C6146.4 1803.54 6147.2 1807.06 6148.8 1810.06C6150.4 1813.01 6152.54 1815.28 6155.23 1816.88C6157.92 1818.42 6160.9 1819.18 6164.16 1819.18C6167.42 1819.18 6170.4 1818.42 6173.09 1816.88C6175.84 1815.28 6178.02 1813.01 6179.62 1810.06C6181.22 1807.06 6182.02 1803.57 6182.02 1799.6ZM6210.12 1764.85C6208.46 1764.85 6207.05 1764.27 6205.9 1763.12C6204.75 1761.97 6204.17 1760.56 6204.17 1758.9C6204.17 1757.23 6204.75 1755.82 6205.9 1754.67C6207.05 1753.52 6208.46 1752.94 6210.12 1752.94C6211.72 1752.94 6213.07 1753.52 6214.15 1754.67C6215.31 1755.82 6215.88 1757.23 6215.88 1758.9C6215.88 1760.56 6215.31 1761.97 6214.15 1763.12C6213.07 1764.27 6211.72 1764.85 6210.12 1764.85ZM6214.35 1773.39V1826H6205.61V1773.39H6214.35ZM6254.87 1772.43C6261.27 1772.43 6266.45 1774.38 6270.42 1778.29C6274.39 1782.13 6276.37 1787.7 6276.37 1794.99V1826H6267.73V1796.24C6267.73 1790.99 6266.42 1786.99 6263.8 1784.24C6261.17 1781.42 6257.59 1780.02 6253.04 1780.02C6248.44 1780.02 6244.76 1781.46 6242 1784.34C6239.32 1787.22 6237.97 1791.41 6237.97 1796.91V1826H6229.24V1773.39H6237.97V1780.88C6239.7 1778.19 6242.04 1776.11 6244.98 1774.64C6247.99 1773.17 6251.28 1772.43 6254.87 1772.43ZM6338.64 1797.68C6338.64 1799.34 6338.55 1801.1 6338.35 1802.96H6296.31C6296.63 1808.14 6298.39 1812.21 6301.59 1815.15C6304.85 1818.03 6308.79 1819.47 6313.39 1819.47C6317.17 1819.47 6320.31 1818.61 6322.8 1816.88C6325.36 1815.09 6327.15 1812.72 6328.18 1809.78H6337.59C6336.18 1814.83 6333.36 1818.96 6329.14 1822.16C6324.91 1825.3 6319.67 1826.86 6313.39 1826.86C6308.4 1826.86 6303.92 1825.74 6299.95 1823.5C6296.05 1821.26 6292.98 1818.1 6290.74 1814C6288.5 1809.84 6287.38 1805.04 6287.38 1799.6C6287.38 1794.16 6288.47 1789.39 6290.64 1785.3C6292.82 1781.2 6295.86 1778.06 6299.76 1775.89C6303.73 1773.65 6308.27 1772.53 6313.39 1772.53C6318.39 1772.53 6322.8 1773.62 6326.64 1775.79C6330.48 1777.97 6333.43 1780.98 6335.47 1784.82C6337.59 1788.59 6338.64 1792.88 6338.64 1797.68ZM6329.62 1795.86C6329.62 1792.53 6328.88 1789.68 6327.41 1787.31C6325.94 1784.88 6323.92 1783.06 6321.36 1781.84C6318.87 1780.56 6316.08 1779.92 6313.01 1779.92C6308.59 1779.92 6304.82 1781.33 6301.68 1784.14C6298.61 1786.96 6296.85 1790.86 6296.4 1795.86H6329.62ZM6358.91 1781.94C6360.45 1778.93 6362.62 1776.59 6365.44 1774.93C6368.32 1773.26 6371.81 1772.43 6375.9 1772.43V1781.46H6373.6C6363.81 1781.46 6358.91 1786.77 6358.91 1797.39V1826H6350.17V1773.39H6358.91V1781.94ZM6408.45 1843.86C6402.31 1837.84 6397.51 1830.19 6394.05 1820.91C6390.66 1811.63 6388.96 1801.62 6388.96 1790.86C6388.96 1779.86 6390.75 1769.58 6394.34 1760.05C6397.99 1750.45 6403.17 1742.54 6409.89 1736.34H6419.01V1737.2C6411.84 1743.92 6406.43 1752.02 6402.79 1761.49C6399.2 1770.9 6397.41 1780.69 6397.41 1790.86C6397.41 1800.78 6399.11 1810.26 6402.5 1819.28C6405.95 1828.3 6410.98 1836.21 6417.57 1842.99V1843.86H6408.45ZM6448.2 1826.86C6444.17 1826.86 6440.56 1826.19 6437.36 1824.85C6434.16 1823.44 6431.63 1821.52 6429.77 1819.09C6427.92 1816.59 6426.89 1813.74 6426.7 1810.54H6435.72C6435.98 1813.17 6437.2 1815.31 6439.37 1816.98C6441.61 1818.64 6444.52 1819.47 6448.11 1819.47C6451.44 1819.47 6454.06 1818.74 6455.98 1817.26C6457.9 1815.79 6458.86 1813.94 6458.86 1811.7C6458.86 1809.39 6457.84 1807.7 6455.79 1806.61C6453.74 1805.46 6450.57 1804.34 6446.28 1803.25C6442.38 1802.22 6439.18 1801.2 6436.68 1800.18C6434.25 1799.09 6432.14 1797.52 6430.35 1795.47C6428.62 1793.36 6427.76 1790.61 6427.76 1787.22C6427.76 1784.53 6428.56 1782.06 6430.16 1779.82C6431.76 1777.58 6434.03 1775.82 6436.97 1774.54C6439.92 1773.2 6443.28 1772.53 6447.05 1772.53C6452.88 1772.53 6457.58 1774 6461.16 1776.94C6464.75 1779.89 6466.67 1783.92 6466.92 1789.04H6458.19C6458 1786.29 6456.88 1784.08 6454.83 1782.42C6452.84 1780.75 6450.16 1779.92 6446.76 1779.92C6443.63 1779.92 6441.13 1780.59 6439.28 1781.94C6437.42 1783.28 6436.49 1785.04 6436.49 1787.22C6436.49 1788.94 6437.04 1790.38 6438.12 1791.54C6439.28 1792.62 6440.68 1793.52 6442.35 1794.22C6444.08 1794.86 6446.44 1795.6 6449.45 1796.43C6453.23 1797.46 6456.3 1798.48 6458.67 1799.5C6461.04 1800.46 6463.05 1801.94 6464.72 1803.92C6466.44 1805.9 6467.34 1808.5 6467.4 1811.7C6467.4 1814.58 6466.6 1817.17 6465 1819.47C6463.4 1821.78 6461.13 1823.6 6458.19 1824.94C6455.31 1826.22 6451.98 1826.86 6448.2 1826.86ZM6476.95 1843.86V1842.99C6483.54 1836.21 6488.54 1828.3 6491.93 1819.28C6495.38 1810.26 6497.11 1800.78 6497.11 1790.86C6497.11 1780.69 6495.29 1770.9 6491.64 1761.49C6488.06 1752.02 6482.68 1743.92 6475.51 1737.2V1736.34H6484.63C6491.35 1742.54 6496.5 1750.45 6500.09 1760.05C6503.74 1769.58 6505.56 1779.86 6505.56 1790.86C6505.56 1801.62 6503.83 1811.63 6500.38 1820.91C6496.98 1830.19 6492.22 1837.84 6486.07 1843.86H6476.95ZM6619 1773.39L6602.59 1826H6593.56L6580.89 1784.24L6568.22 1826H6559.2L6542.68 1773.39H6551.61L6563.71 1817.55L6576.76 1773.39H6585.69L6598.46 1817.65L6610.36 1773.39H6619ZM6632.19 1764.85C6630.52 1764.85 6629.11 1764.27 6627.96 1763.12C6626.81 1761.97 6626.23 1760.56 6626.23 1758.9C6626.23 1757.23 6626.81 1755.82 6627.96 1754.67C6629.11 1753.52 6630.52 1752.94 6632.19 1752.94C6633.79 1752.94 6635.13 1753.52 6636.22 1754.67C6637.37 1755.82 6637.95 1757.23 6637.95 1758.9C6637.95 1760.56 6637.37 1761.97 6636.22 1763.12C6635.13 1764.27 6633.79 1764.85 6632.19 1764.85ZM6636.41 1773.39V1826H6627.67V1773.39H6636.41ZM6661.95 1780.59V1811.6C6661.95 1814.16 6662.5 1815.98 6663.59 1817.07C6664.67 1818.1 6666.56 1818.61 6669.25 1818.61H6675.68V1826H6667.81C6662.95 1826 6659.3 1824.88 6656.87 1822.64C6654.43 1820.4 6653.22 1816.72 6653.22 1811.6V1780.59H6646.4V1773.39H6653.22V1760.14H6661.95V1773.39H6675.68V1780.59H6661.95ZM6712.38 1772.43C6716.35 1772.43 6719.93 1773.3 6723.13 1775.02C6726.33 1776.69 6728.83 1779.22 6730.62 1782.61C6732.48 1786 6733.4 1790.13 6733.4 1794.99V1826H6724.76V1796.24C6724.76 1790.99 6723.45 1786.99 6720.83 1784.24C6718.2 1781.42 6714.62 1780.02 6710.08 1780.02C6705.47 1780.02 6701.79 1781.46 6699.04 1784.34C6696.35 1787.22 6695 1791.41 6695 1796.91V1826H6686.27V1754.96H6695V1780.88C6696.73 1778.19 6699.1 1776.11 6702.11 1774.64C6705.18 1773.17 6708.6 1772.43 6712.38 1772.43ZM6752.19 1764.85C6750.52 1764.85 6749.11 1764.27 6747.96 1763.12C6746.81 1761.97 6746.23 1760.56 6746.23 1758.9C6746.23 1757.23 6746.81 1755.82 6747.96 1754.67C6749.11 1753.52 6750.52 1752.94 6752.19 1752.94C6753.79 1752.94 6755.13 1753.52 6756.22 1754.67C6757.37 1755.82 6757.95 1757.23 6757.95 1758.9C6757.95 1760.56 6757.37 1761.97 6756.22 1763.12C6755.13 1764.27 6753.79 1764.85 6752.19 1764.85ZM6756.41 1773.39V1826H6747.67V1773.39H6756.41ZM6796.93 1772.43C6803.33 1772.43 6808.51 1774.38 6812.48 1778.29C6816.45 1782.13 6818.43 1787.7 6818.43 1794.99V1826H6809.79V1796.24C6809.79 1790.99 6808.48 1786.99 6805.86 1784.24C6803.23 1781.42 6799.65 1780.02 6795.11 1780.02C6790.5 1780.02 6786.82 1781.46 6784.07 1784.34C6781.38 1787.22 6780.03 1791.41 6780.03 1796.91V1826H6771.3V1773.39H6780.03V1780.88C6781.76 1778.19 6784.1 1776.11 6787.04 1774.64C6790.05 1773.17 6793.35 1772.43 6796.93 1772.43ZM7321.77 1826.58C7320.11 1826.58 7318.7 1826 7317.55 1824.85C7316.39 1823.7 7315.82 1822.29 7315.82 1820.62C7315.82 1818.96 7316.39 1817.55 7317.55 1816.4C7318.7 1815.25 7320.11 1814.67 7321.77 1814.67C7323.37 1814.67 7324.71 1815.25 7325.8 1816.4C7326.95 1817.55 7327.53 1818.96 7327.53 1820.62C7327.53 1822.29 7326.95 1823.7 7325.8 1824.85C7324.71 1826 7323.37 1826.58 7321.77 1826.58Z" fill="black"/>
<path d="M256 1600C256 1564.65 284.654 1536 320 1536H2171.89V2048H320C284.654 2048 256 2019.35 256 1984V1600Z" fill="#313FB9"/>
<path d="M1811.28 1806.72V1824.12H1800.84C1793.4 1824.12 1787.6 1822.32 1783.44 1818.72C1779.28 1815.04 1777.2 1809.08 1777.2 1800.84V1774.2H1769.04V1757.16H1777.2V1740.84H1797.72V1757.16H1811.16V1774.2H1797.72V1801.08C1797.72 1803.08 1798.2 1804.52 1799.16 1805.4C1800.12 1806.28 1801.72 1806.72 1803.96 1806.72H1811.28Z" fill="white"/>
<path d="M1697.22 1790.64C1697.22 1783.68 1698.62 1777.6 1701.42 1772.4C1704.3 1767.2 1708.26 1763.2 1713.3 1760.4C1718.42 1757.6 1724.26 1756.2 1730.82 1756.2C1739.22 1756.2 1746.22 1758.4 1751.82 1762.8C1757.5 1767.2 1761.22 1773.4 1762.98 1781.4H1741.14C1739.3 1776.28 1735.74 1773.72 1730.46 1773.72C1726.7 1773.72 1723.7 1775.2 1721.46 1778.16C1719.22 1781.04 1718.1 1785.2 1718.1 1790.64C1718.1 1796.08 1719.22 1800.28 1721.46 1803.24C1723.7 1806.12 1726.7 1807.56 1730.46 1807.56C1735.74 1807.56 1739.3 1805 1741.14 1799.88H1762.98C1761.22 1807.72 1757.5 1813.88 1751.82 1818.36C1746.14 1822.84 1739.14 1825.08 1730.82 1825.08C1724.26 1825.08 1718.42 1823.68 1713.3 1820.88C1708.26 1818.08 1704.3 1814.08 1701.42 1808.88C1698.62 1803.68 1697.22 1797.6 1697.22 1790.64Z" fill="white"/>
<path d="M1690.47 1789.56C1690.47 1791.48 1690.35 1793.48 1690.11 1795.56H1643.67C1643.99 1799.72 1645.31 1802.92 1647.63 1805.16C1650.03 1807.32 1652.95 1808.4 1656.39 1808.4C1661.51 1808.4 1665.07 1806.24 1667.07 1801.92H1688.91C1687.79 1806.32 1685.75 1810.28 1682.79 1813.8C1679.91 1817.32 1676.27 1820.08 1671.87 1822.08C1667.47 1824.08 1662.55 1825.08 1657.11 1825.08C1650.55 1825.08 1644.71 1823.68 1639.59 1820.88C1634.47 1818.08 1630.47 1814.08 1627.59 1808.88C1624.71 1803.68 1623.27 1797.6 1623.27 1790.64C1623.27 1783.68 1624.67 1777.6 1627.47 1772.4C1630.35 1767.2 1634.35 1763.2 1639.47 1760.4C1644.59 1757.6 1650.47 1756.2 1657.11 1756.2C1663.59 1756.2 1669.35 1757.56 1674.39 1760.28C1679.43 1763 1683.35 1766.88 1686.15 1771.92C1689.03 1776.96 1690.47 1782.84 1690.47 1789.56ZM1669.47 1784.16C1669.47 1780.64 1668.27 1777.84 1665.87 1775.76C1663.47 1773.68 1660.47 1772.64 1656.87 1772.64C1653.43 1772.64 1650.51 1773.64 1648.11 1775.64C1645.79 1777.64 1644.35 1780.48 1643.79 1784.16H1669.47Z" fill="white"/>
<path d="M1602.28 1750.2C1598.68 1750.2 1595.72 1749.16 1593.4 1747.08C1591.16 1744.92 1590.04 1742.28 1590.04 1739.16C1590.04 1735.96 1591.16 1733.32 1593.4 1731.24C1595.72 1729.08 1598.68 1728 1602.28 1728C1605.8 1728 1608.68 1729.08 1610.92 1731.24C1613.24 1733.32 1614.4 1735.96 1614.4 1739.16C1614.4 1742.28 1613.24 1744.92 1610.92 1747.08C1608.68 1749.16 1605.8 1750.2 1602.28 1750.2ZM1612.6 1832.76C1612.6 1841 1610.52 1846.92 1606.36 1850.52C1602.2 1854.2 1596.4 1856.04 1588.96 1856.04H1580.92V1838.64H1585.84C1588.08 1838.64 1589.68 1838.2 1590.64 1837.32C1591.6 1836.44 1592.08 1835 1592.08 1833V1757.16H1612.6V1832.76Z" fill="white"/>
<path d="M1546.16 1825.08C1539.6 1825.08 1533.68 1823.68 1528.4 1820.88C1523.2 1818.08 1519.08 1814.08 1516.04 1808.88C1513.08 1803.68 1511.6 1797.6 1511.6 1790.64C1511.6 1783.76 1513.12 1777.72 1516.16 1772.52C1519.2 1767.24 1523.36 1763.2 1528.64 1760.4C1533.92 1757.6 1539.84 1756.2 1546.4 1756.2C1552.96 1756.2 1558.88 1757.6 1564.16 1760.4C1569.44 1763.2 1573.6 1767.24 1576.64 1772.52C1579.68 1777.72 1581.2 1783.76 1581.2 1790.64C1581.2 1797.52 1579.64 1803.6 1576.52 1808.88C1573.48 1814.08 1569.28 1818.08 1563.92 1820.88C1558.64 1823.68 1552.72 1825.08 1546.16 1825.08ZM1546.16 1807.32C1550.08 1807.32 1553.4 1805.88 1556.12 1803C1558.92 1800.12 1560.32 1796 1560.32 1790.64C1560.32 1785.28 1558.96 1781.16 1556.24 1778.28C1553.6 1775.4 1550.32 1773.96 1546.4 1773.96C1542.4 1773.96 1539.08 1775.4 1536.44 1778.28C1533.8 1781.08 1532.48 1785.2 1532.48 1790.64C1532.48 1796 1533.76 1800.12 1536.32 1803C1538.96 1805.88 1542.24 1807.32 1546.16 1807.32Z" fill="white"/>
<path d="M1484.87 1768.32C1487.27 1764.64 1490.27 1761.76 1493.87 1759.68C1497.47 1757.52 1501.47 1756.44 1505.87 1756.44V1778.16H1500.23C1495.11 1778.16 1491.27 1779.28 1488.71 1781.52C1486.15 1783.68 1484.87 1787.52 1484.87 1793.04V1824.12H1464.35V1757.16H1484.87V1768.32Z" fill="white"/>
<path d="M1453.66 1767C1453.66 1771.88 1452.54 1776.36 1450.3 1780.44C1448.06 1784.44 1444.62 1787.68 1439.98 1790.16C1435.34 1792.64 1429.58 1793.88 1422.7 1793.88H1409.98V1824.12H1389.46V1739.88H1422.7C1429.42 1739.88 1435.1 1741.04 1439.74 1743.36C1444.38 1745.68 1447.86 1748.88 1450.18 1752.96C1452.5 1757.04 1453.66 1761.72 1453.66 1767ZM1421.14 1777.56C1425.06 1777.56 1427.98 1776.64 1429.9 1774.8C1431.82 1772.96 1432.78 1770.36 1432.78 1767C1432.78 1763.64 1431.82 1761.04 1429.9 1759.2C1427.98 1757.36 1425.06 1756.44 1421.14 1756.44H1409.98V1777.56H1421.14Z" fill="white"/>
<path d="M1356.61 1757.16L1314.61 1855.92H1292.53L1307.89 1821.84L1280.65 1757.16H1303.57L1319.05 1799.04L1334.41 1757.16H1356.61Z" fill="white"/>
<path d="M1276.78 1806.72V1824.12H1266.34C1258.9 1824.12 1253.1 1822.32 1248.94 1818.72C1244.78 1815.04 1242.7 1809.08 1242.7 1800.84V1774.2H1234.54V1757.16H1242.7V1740.84H1263.22V1757.16H1276.66V1774.2H1263.22V1801.08C1263.22 1803.08 1263.7 1804.52 1264.66 1805.4C1265.62 1806.28 1267.22 1806.72 1269.46 1806.72H1276.78Z" fill="white"/>
<path d="M1214.39 1750.2C1210.79 1750.2 1207.83 1749.16 1205.51 1747.08C1203.27 1744.92 1202.15 1742.28 1202.15 1739.16C1202.15 1735.96 1203.27 1733.32 1205.51 1731.24C1207.83 1729.08 1210.79 1728 1214.39 1728C1217.91 1728 1220.79 1729.08 1223.03 1731.24C1225.35 1733.32 1226.51 1735.96 1226.51 1739.16C1226.51 1742.28 1225.35 1744.92 1223.03 1747.08C1220.79 1749.16 1217.91 1750.2 1214.39 1750.2ZM1224.59 1757.16V1824.12H1204.07V1757.16H1224.59Z" fill="white"/>
<path d="M1164.01 1756.44C1171.85 1756.44 1178.09 1759 1182.73 1764.12C1187.45 1769.16 1189.81 1776.12 1189.81 1785V1824.12H1169.41V1787.76C1169.41 1783.28 1168.25 1779.8 1165.93 1777.32C1163.61 1774.84 1160.49 1773.6 1156.57 1773.6C1152.65 1773.6 1149.53 1774.84 1147.21 1777.32C1144.89 1779.8 1143.73 1783.28 1143.73 1787.76V1824.12H1123.21V1757.16H1143.73V1766.04C1145.81 1763.08 1148.61 1760.76 1152.13 1759.08C1155.65 1757.32 1159.61 1756.44 1164.01 1756.44Z" fill="white"/>
<path d="M1108.47 1757.16V1824.12H1087.95V1815C1085.87 1817.96 1083.03 1820.36 1079.43 1822.2C1075.91 1823.96 1071.99 1824.84 1067.67 1824.84C1062.55 1824.84 1058.03 1823.72 1054.11 1821.48C1050.19 1819.16 1047.15 1815.84 1044.99 1811.52C1042.83 1807.2 1041.75 1802.12 1041.75 1796.28V1757.16H1062.15V1793.52C1062.15 1798 1063.31 1801.48 1065.63 1803.96C1067.95 1806.44 1071.07 1807.68 1074.99 1807.68C1078.99 1807.68 1082.15 1806.44 1084.47 1803.96C1086.79 1801.48 1087.95 1798 1087.95 1793.52V1757.16H1108.47Z" fill="white"/>
<path d="M1000.76 1756.44C1009.08 1756.44 1015.68 1758.96 1020.56 1764C1025.52 1769.04 1028 1776.04 1028 1785V1824.12H1007.6V1787.76C1007.6 1783.44 1006.44 1780.12 1004.12 1777.8C1001.88 1775.4 998.764 1774.2 994.764 1774.2C990.764 1774.2 987.604 1775.4 985.284 1777.8C983.044 1780.12 981.924 1783.44 981.924 1787.76V1824.12H961.524V1787.76C961.524 1783.44 960.364 1780.12 958.044 1777.8C955.804 1775.4 952.684 1774.2 948.684 1774.2C944.684 1774.2 941.524 1775.4 939.204 1777.8C936.964 1780.12 935.844 1783.44 935.844 1787.76V1824.12H915.324V1757.16H935.844V1765.56C937.924 1762.76 940.644 1760.56 944.004 1758.96C947.364 1757.28 951.164 1756.44 955.404 1756.44C960.444 1756.44 964.924 1757.52 968.844 1759.68C972.844 1761.84 975.964 1764.92 978.204 1768.92C980.524 1765.24 983.684 1762.24 987.684 1759.92C991.684 1757.6 996.044 1756.44 1000.76 1756.44Z" fill="white"/>
<path d="M873.732 1756.44C882.052 1756.44 888.652 1758.96 893.533 1764C898.492 1769.04 900.972 1776.04 900.972 1785V1824.12H880.572V1787.76C880.572 1783.44 879.412 1780.12 877.092 1777.8C874.852 1775.4 871.732 1774.2 867.732 1774.2C863.732 1774.2 860.572 1775.4 858.252 1777.8C856.012 1780.12 854.892 1783.44 854.892 1787.76V1824.12H834.492V1787.76C834.492 1783.44 833.332 1780.12 831.012 1777.8C828.772 1775.4 825.652 1774.2 821.652 1774.2C817.652 1774.2 814.492 1775.4 812.172 1777.8C809.932 1780.12 808.812 1783.44 808.812 1787.76V1824.12H788.292V1757.16H808.812V1765.56C810.892 1762.76 813.612 1760.56 816.972 1758.96C820.332 1757.28 824.132 1756.44 828.372 1756.44C833.412 1756.44 837.892 1757.52 841.812 1759.68C845.812 1761.84 848.932 1764.92 851.172 1768.92C853.492 1765.24 856.652 1762.24 860.652 1759.92C864.652 1757.6 869.012 1756.44 873.732 1756.44Z" fill="white"/>
<path d="M742.366 1825.08C735.806 1825.08 729.886 1823.68 724.606 1820.88C719.406 1818.08 715.286 1814.08 712.246 1808.88C709.286 1803.68 707.806 1797.6 707.806 1790.64C707.806 1783.76 709.326 1777.72 712.366 1772.52C715.406 1767.24 719.566 1763.2 724.846 1760.4C730.126 1757.6 736.046 1756.2 742.606 1756.2C749.166 1756.2 755.086 1757.6 760.366 1760.4C765.646 1763.2 769.806 1767.24 772.846 1772.52C775.886 1777.72 777.406 1783.76 777.406 1790.64C777.406 1797.52 775.846 1803.6 772.726 1808.88C769.686 1814.08 765.486 1818.08 760.126 1820.88C754.846 1823.68 748.926 1825.08 742.366 1825.08ZM742.366 1807.32C746.286 1807.32 749.606 1805.88 752.326 1803C755.126 1800.12 756.526 1796 756.526 1790.64C756.526 1785.28 755.166 1781.16 752.446 1778.28C749.806 1775.4 746.526 1773.96 742.606 1773.96C738.606 1773.96 735.286 1775.4 732.646 1778.28C730.006 1781.08 728.686 1785.2 728.686 1790.64C728.686 1796 729.966 1800.12 732.526 1803C735.166 1805.88 738.446 1807.32 742.366 1807.32Z" fill="white"/>
<path d="M617 1781.88C617 1773.56 618.8 1766.16 622.4 1759.68C626 1753.12 631 1748.04 637.4 1744.44C643.88 1740.76 651.2 1738.92 659.36 1738.92C669.36 1738.92 677.92 1741.56 685.04 1746.84C692.16 1752.12 696.92 1759.32 699.32 1768.44H676.76C675.08 1764.92 672.68 1762.24 669.56 1760.4C666.52 1758.56 663.04 1757.64 659.12 1757.64C652.8 1757.64 647.68 1759.84 643.76 1764.24C639.84 1768.64 637.88 1774.52 637.88 1781.88C637.88 1789.24 639.84 1795.12 643.76 1799.52C647.68 1803.92 652.8 1806.12 659.12 1806.12C663.04 1806.12 666.52 1805.2 669.56 1803.36C672.68 1801.52 675.08 1798.84 676.76 1795.32H699.32C696.92 1804.44 692.16 1811.64 685.04 1816.92C677.92 1822.12 669.36 1824.72 659.36 1824.72C651.2 1824.72 643.88 1822.92 637.4 1819.32C631 1815.64 626 1810.56 622.4 1804.08C618.8 1797.6 617 1790.2 617 1781.88Z" fill="white"/>
<path d="M6171.33 1168.88C6171.33 1173.05 6171.06 1176.81 6170.52 1180.17H6085.62C6086.29 1189.05 6089.58 1196.17 6095.5 1201.55C6101.42 1206.93 6108.68 1209.62 6117.28 1209.62C6129.65 1209.62 6138.39 1204.44 6143.5 1194.09H6168.3C6164.94 1204.31 6158.82 1212.71 6149.95 1219.3C6141.21 1225.75 6130.32 1228.98 6117.28 1228.98C6106.66 1228.98 6097.11 1226.62 6088.64 1221.92C6080.31 1217.08 6073.72 1210.36 6068.88 1201.75C6064.18 1193.01 6061.82 1182.93 6061.82 1171.5C6061.82 1160.07 6064.11 1150.06 6068.68 1141.45C6073.38 1132.71 6079.9 1125.99 6088.24 1121.29C6096.71 1116.58 6106.39 1114.23 6117.28 1114.23C6127.77 1114.23 6137.11 1116.51 6145.31 1121.09C6153.51 1125.66 6159.9 1132.11 6164.47 1140.45C6169.04 1148.65 6171.33 1158.12 6171.33 1168.88ZM6147.33 1161.62C6147.19 1153.15 6144.17 1146.36 6138.25 1141.25C6132.34 1136.14 6125.01 1133.59 6116.27 1133.59C6108.34 1133.59 6101.55 1136.14 6095.9 1141.25C6090.26 1146.23 6086.9 1153.02 6085.82 1161.62H6147.33Z" fill="black"/>
<path d="M5940.9 1171.5C5940.9 1160.07 5943.19 1150.06 5947.76 1141.45C5952.47 1132.71 5958.92 1125.99 5967.12 1121.29C5975.32 1116.58 5984.73 1114.23 5995.35 1114.23C6008.8 1114.23 6019.89 1117.46 6028.63 1123.91C6037.5 1130.23 6043.48 1139.3 6046.57 1151.13H6021.77C6019.75 1145.62 6016.53 1141.32 6012.09 1138.23C6007.65 1135.13 6002.07 1133.59 5995.35 1133.59C5985.94 1133.59 5978.41 1136.95 5972.77 1143.67C5967.25 1150.26 5964.5 1159.54 5964.5 1171.5C5964.5 1183.47 5967.25 1192.81 5972.77 1199.53C5978.41 1206.25 5985.94 1209.62 5995.35 1209.62C6008.66 1209.62 6017.47 1203.77 6021.77 1192.07H6046.57C6043.35 1203.36 6037.3 1212.37 6028.43 1219.09C6019.55 1225.68 6008.53 1228.98 5995.35 1228.98C5984.73 1228.98 5975.32 1226.62 5967.12 1221.92C5958.92 1217.08 5952.47 1210.36 5947.76 1201.75C5943.19 1193.01 5940.9 1182.93 5940.9 1171.5Z" fill="black"/>
<path d="M5894.16 1132.18C5897.52 1126.53 5901.96 1122.16 5907.47 1119.07C5913.12 1115.84 5919.77 1114.23 5927.43 1114.23V1138.03H5921.59C5912.58 1138.03 5905.72 1140.31 5901.02 1144.88C5896.45 1149.45 5894.16 1157.38 5894.16 1168.68V1227.16H5871.17V1116.04H5894.16V1132.18Z" fill="black"/>
<path d="M5840.84 1116.04V1227.16H5817.85V1214.05C5814.22 1218.62 5809.45 1222.25 5803.53 1224.94C5797.75 1227.5 5791.56 1228.77 5784.98 1228.77C5776.24 1228.77 5768.37 1226.96 5761.38 1223.33C5754.53 1219.7 5749.08 1214.32 5745.05 1207.2C5741.15 1200.07 5739.2 1191.47 5739.2 1181.38V1116.04H5761.99V1177.95C5761.99 1187.9 5764.47 1195.57 5769.45 1200.94C5774.42 1206.19 5781.21 1208.81 5789.82 1208.81C5798.42 1208.81 5805.21 1206.19 5810.18 1200.94C5815.29 1195.57 5817.85 1187.9 5817.85 1177.95V1116.04H5840.84Z" fill="black"/>
<path d="M5659.81 1228.98C5649.32 1228.98 5639.84 1226.62 5631.37 1221.92C5622.9 1217.08 5616.25 1210.36 5611.41 1201.75C5606.57 1193.01 5604.15 1182.93 5604.15 1171.5C5604.15 1160.21 5606.63 1150.19 5611.61 1141.45C5616.58 1132.71 5623.37 1125.99 5631.98 1121.29C5640.58 1116.58 5650.19 1114.23 5660.81 1114.23C5671.43 1114.23 5681.05 1116.58 5689.65 1121.29C5698.26 1125.99 5705.05 1132.71 5710.02 1141.45C5714.99 1150.19 5717.48 1160.21 5717.48 1171.5C5717.48 1182.79 5714.93 1192.81 5709.82 1201.55C5704.71 1210.29 5697.72 1217.08 5688.85 1221.92C5680.11 1226.62 5670.43 1228.98 5659.81 1228.98ZM5659.81 1209.01C5665.72 1209.01 5671.23 1207.6 5676.34 1204.78C5681.59 1201.95 5685.82 1197.72 5689.05 1192.07C5692.27 1186.42 5693.89 1179.57 5693.89 1171.5C5693.89 1163.43 5692.34 1156.65 5689.25 1151.13C5686.16 1145.49 5682.06 1141.25 5676.95 1138.43C5671.84 1135.61 5666.33 1134.19 5660.41 1134.19C5654.5 1134.19 5648.98 1135.61 5643.87 1138.43C5638.9 1141.25 5634.93 1145.49 5631.98 1151.13C5629.02 1156.65 5627.54 1163.43 5627.54 1171.5C5627.54 1183.47 5630.56 1192.74 5636.61 1199.33C5642.8 1205.78 5650.53 1209.01 5659.81 1209.01Z" fill="black"/>
<path d="M5536.08 1228.57C5526.67 1228.57 5518.2 1226.96 5510.67 1223.73C5503.14 1220.37 5497.23 1215.67 5492.93 1209.62C5488.62 1203.57 5486.47 1196.51 5486.47 1188.44H5511.08C5511.61 1194.49 5513.97 1199.47 5518.13 1203.36C5522.44 1207.26 5528.42 1209.21 5536.08 1209.21C5544.01 1209.21 5550.2 1207.33 5554.63 1203.57C5559.07 1199.67 5561.29 1194.69 5561.29 1188.64C5561.29 1183.94 5559.88 1180.11 5557.05 1177.15C5554.37 1174.19 5550.94 1171.91 5546.77 1170.29C5542.74 1168.68 5537.09 1166.93 5529.83 1165.05C5520.69 1162.63 5513.23 1160.21 5507.45 1157.79C5501.8 1155.23 5496.96 1151.34 5492.93 1146.09C5488.89 1140.85 5486.88 1133.86 5486.88 1125.12C5486.88 1117.05 5488.89 1109.99 5492.93 1103.94C5496.96 1097.89 5502.61 1093.26 5509.87 1090.03C5517.13 1086.8 5525.53 1085.19 5535.07 1085.19C5548.65 1085.19 5559.74 1088.62 5568.35 1095.47C5577.09 1102.2 5581.93 1111.47 5582.87 1123.3H5557.46C5557.05 1118.2 5554.63 1113.83 5550.2 1110.2C5545.76 1106.57 5539.91 1104.75 5532.65 1104.75C5526.07 1104.75 5520.69 1106.43 5516.52 1109.79C5512.35 1113.15 5510.27 1117.99 5510.27 1124.31C5510.27 1128.61 5511.55 1132.18 5514.1 1135C5516.79 1137.69 5520.15 1139.84 5524.18 1141.45C5528.22 1143.07 5533.73 1144.82 5540.72 1146.7C5550 1149.25 5557.53 1151.81 5563.31 1154.36C5569.22 1156.91 5574.2 1160.88 5578.23 1166.26C5582.4 1171.5 5584.48 1178.56 5584.48 1187.43C5584.48 1194.56 5582.53 1201.28 5578.63 1207.6C5574.87 1213.92 5569.29 1219.03 5561.89 1222.93C5554.63 1226.69 5546.03 1228.57 5536.08 1228.57Z" fill="black"/>
<path d="M5362.62 1114.23C5371.35 1114.23 5379.15 1116.04 5386.01 1119.67C5393 1123.3 5398.44 1128.68 5402.34 1135.81C5406.24 1142.93 5408.19 1151.54 5408.19 1161.62V1227.16H5385.4V1165.05C5385.4 1155.1 5382.92 1147.5 5377.94 1142.26C5372.97 1136.88 5366.18 1134.19 5357.57 1134.19C5348.97 1134.19 5342.11 1136.88 5337 1142.26C5332.03 1147.5 5329.54 1155.1 5329.54 1165.05V1227.16H5306.55V1116.04H5329.54V1128.75C5333.31 1124.18 5338.08 1120.62 5343.86 1118.06C5349.78 1115.51 5356.03 1114.23 5362.62 1114.23Z" fill="black"/>
<path d="M5283.93 1168.88C5283.93 1173.05 5283.66 1176.81 5283.12 1180.17H5198.22C5198.89 1189.05 5202.19 1196.17 5208.1 1201.55C5214.02 1206.93 5221.28 1209.62 5229.88 1209.62C5242.25 1209.62 5250.99 1204.44 5256.1 1194.09H5280.9C5277.54 1204.31 5271.42 1212.71 5262.55 1219.3C5253.81 1225.75 5242.92 1228.98 5229.88 1228.98C5219.26 1228.98 5209.72 1226.62 5201.25 1221.92C5192.91 1217.08 5186.32 1210.36 5181.48 1201.75C5176.78 1193.01 5174.42 1182.93 5174.42 1171.5C5174.42 1160.07 5176.71 1150.06 5181.28 1141.45C5185.99 1132.71 5192.51 1125.99 5200.84 1121.29C5209.31 1116.58 5218.99 1114.23 5229.88 1114.23C5240.37 1114.23 5249.71 1116.51 5257.91 1121.09C5266.11 1125.66 5272.5 1132.11 5277.07 1140.45C5281.64 1148.65 5283.93 1158.12 5283.93 1168.88ZM5259.93 1161.62C5259.8 1153.15 5256.77 1146.36 5250.86 1141.25C5244.94 1136.14 5237.61 1133.59 5228.87 1133.59C5220.94 1133.59 5214.15 1136.14 5208.51 1141.25C5202.86 1146.23 5199.5 1153.02 5198.42 1161.62H5259.93Z" fill="black"/>
<path d="M5068.4 1132.38C5072.3 1127.27 5077.61 1122.97 5084.34 1119.47C5091.06 1115.98 5098.65 1114.23 5107.12 1114.23C5116.8 1114.23 5125.61 1116.65 5133.54 1121.49C5141.61 1126.19 5147.93 1132.85 5152.5 1141.45C5157.07 1150.06 5159.35 1159.94 5159.35 1171.1C5159.35 1182.26 5157.07 1192.27 5152.5 1201.15C5147.93 1209.88 5141.61 1216.74 5133.54 1221.72C5125.61 1226.56 5116.8 1228.98 5107.12 1228.98C5098.65 1228.98 5091.12 1227.29 5084.54 1223.93C5077.95 1220.44 5072.57 1216.14 5068.4 1211.03V1280H5045.41V1116.04H5068.4V1132.38ZM5135.96 1171.1C5135.96 1163.43 5134.35 1156.85 5131.12 1151.34C5128.03 1145.69 5123.86 1141.45 5118.62 1138.63C5113.51 1135.67 5108 1134.19 5102.08 1134.19C5096.3 1134.19 5090.79 1135.67 5085.55 1138.63C5080.44 1141.59 5076.27 1145.89 5073.04 1151.54C5069.95 1157.18 5068.4 1163.84 5068.4 1171.5C5068.4 1179.16 5069.95 1185.89 5073.04 1191.67C5076.27 1197.31 5080.44 1201.62 5085.55 1204.57C5090.79 1207.53 5096.3 1209.01 5102.08 1209.01C5108 1209.01 5113.51 1207.53 5118.62 1204.57C5123.86 1201.48 5128.03 1197.05 5131.12 1191.26C5134.35 1185.48 5135.96 1178.76 5135.96 1171.1Z" fill="black"/>
<path d="M4951.2 1228.57C4938.16 1228.57 4926.13 1225.55 4915.1 1219.5C4904.21 1213.31 4895.54 1204.78 4889.09 1193.89C4882.77 1182.86 4879.61 1170.49 4879.61 1156.78C4879.61 1143.07 4882.77 1130.77 4889.09 1119.88C4895.54 1108.99 4904.21 1100.52 4915.1 1094.47C4926.13 1088.28 4938.16 1085.19 4951.2 1085.19C4964.38 1085.19 4976.41 1088.28 4987.3 1094.47C4998.32 1100.52 5006.99 1108.99 5013.31 1119.88C5019.63 1130.77 5022.79 1143.07 5022.79 1156.78C5022.79 1170.49 5019.63 1182.86 5013.31 1193.89C5006.99 1204.78 4998.32 1213.31 4987.3 1219.5C4976.41 1225.55 4964.38 1228.57 4951.2 1228.57ZM4951.2 1208.61C4960.48 1208.61 4968.75 1206.52 4976.01 1202.36C4983.27 1198.05 4988.91 1192 4992.95 1184.21C4997.11 1176.27 4999.2 1167.13 4999.2 1156.78C4999.2 1146.43 4997.11 1137.35 4992.95 1129.56C4988.91 1121.76 4983.27 1115.78 4976.01 1111.61C4968.75 1107.44 4960.48 1105.36 4951.2 1105.36C4941.92 1105.36 4933.66 1107.44 4926.4 1111.61C4919.14 1115.78 4913.42 1121.76 4909.25 1129.56C4905.22 1137.35 4903.2 1146.43 4903.2 1156.78C4903.2 1167.13 4905.22 1176.27 4909.25 1184.21C4913.42 1192 4919.14 1198.05 4926.4 1202.36C4933.66 1206.52 4941.92 1208.61 4951.2 1208.61Z" fill="black"/>
<path d="M5908.24 535.756C5971.64 535.756 6024.95 563.547 6060.53 608.866L6104.48 548.38H6171.33V968.511H6060.53V908.026C6024.99 953.345 5971.64 981.135 5907.43 981.135C5788.09 981.135 5700.15 885.321 5700.15 757.583C5700.15 629.845 5788.9 535.802 5908.24 535.802V535.756ZM5930.19 887.864C6002.13 887.864 6054.49 834.871 6054.49 758.491C6054.49 682.112 6002 628.301 5927.6 628.301C5854.03 629.119 5808.26 682.929 5808.26 758.491C5808.4 834.053 5857.44 887.864 5930.19 887.864Z" fill="black"/>
<path d="M5178 548.514H5300.88L5426.31 873.466L5551.74 548.514H5674.62L5500.2 968.418H5352.32L5178.04 548.514H5178Z" fill="black"/>
<path d="M4911.04 548.598C5043.65 548.598 5139.86 641.007 5139.86 770.379C5139.86 899.752 5044.51 993.932 4911.04 993.932C4777.57 993.932 4681.4 900.706 4681.4 770.379C4681.4 640.053 4777.57 548.598 4911.04 548.598ZM4911.04 902.34C4983.16 902.34 5034.61 846.895 5034.61 771.333C5034.61 695.771 4983.16 640.19 4911.04 640.19C4838.92 640.19 4786.66 695.635 4786.66 771.333C4786.75 846.895 4838.1 902.34 4911.04 902.34Z" fill="black"/>
<path d="M4159.35 548.471H4212.06L4271.91 599.648C4311.36 556.009 4364.8 535.756 4425.57 535.756C4532.36 535.756 4592.31 597.06 4592.31 708.768V968.375H4476.42V732.29C4476.42 665.901 4443.52 634.023 4384.48 634.023C4316.36 634.023 4275.28 675.21 4275.28 732.29V968.375H4159.48V548.471H4159.39H4159.35Z" fill="black"/>
<path d="M3810.95 561.65H3688.07L3756.28 777.937H3879.08L3810.95 561.65Z" fill="black"/>
<path d="M3956.79 561.254H4082.95L3928.85 981.159H3802.83L3956.84 561.254H3956.79Z" fill="black"/>
<path d="M3380.5 497.625C3537.29 497.625 3644.36 592.168 3644.36 739.25C3644.36 886.332 3537.29 980.875 3380.5 980.875H3178.81V497.625H3380.5ZM3282.38 576.32V902.089H3378.41C3477.21 902.089 3542.2 837.88 3542.2 739.159C3542.2 640.438 3477.21 576.229 3378.41 576.229H3282.38V576.365V576.32Z" fill="black"/>
<mask id="mask0_121_1878" style="mask-type:luminance" maskUnits="userSpaceOnUse" x="2004" y="256" width="934" height="967">
<path d="M2401.76 721.692H2937.37C2936.93 710.492 2936.2 699.292 2935.17 687.995C2923.13 555.457 2868.41 445.759 2761.81 364.28C2658.83 285.54 2538.76 258.788 2412.34 256.88C2377.24 256.342 2342.15 256.245 2307.05 256.098V627.057C2307.05 679.289 2349.49 721.692 2401.76 721.692ZM2156.89 777.103H2004.67V1222.45C2004.67 1222.45 2220.52 1222.45 2251.6 1222.45V871.738C2251.6 819.506 2209.16 777.103 2156.89 777.103ZM2004.67 256.44V721.692H2156.89C2209.16 721.692 2251.6 679.289 2251.6 627.057V256C2217.83 256 2184.06 256.098 2150.23 256.196C2101.73 256.391 2053.17 256.538 2004.67 256.44ZM2307.05 871.738V1222.45C2339.02 1222.45 2370.98 1222.45 2402.94 1222.5C2454.92 1222.5 2507.05 1218 2557.9 1206.7C2697.2 1175.45 2810.02 1104.98 2880.7 976.595C2915.55 913.456 2932.92 846.551 2936.89 777.054H2401.76C2349.49 777.054 2307.05 819.457 2307.05 871.689V871.738Z" fill="white"/>
</mask>
<g mask="url(#mask0_121_1878)">
<rect x="1448.94" y="-110.084" width="1717.98" height="1716.61" fill="url(#paint0_angular_121_1878)"/>
</g>
</g>
<rect x="0.5" y="0.5" width="8175" height="2303" stroke="black"/>
<defs>
<radialGradient id="paint0_angular_121_1878" cx="0" cy="0" r="1" gradientUnits="userSpaceOnUse" gradientTransform="translate(2307.93 748.222) rotate(90) scale(858.306 858.992)">
<stop offset="0.118623" stop-color="#58FC9A"/>
<stop offset="0.353064" stop-color="#0047FF"/>
<stop offset="0.476146" stop-color="#7867E2"/>
<stop offset="0.630208" stop-color="white"/>
<stop offset="0.869792" stop-color="#7867E2"/>
</radialGradient>
<clipPath id="clip0_121_1878">
<rect width="8176" height="2304" fill="white"/>
</clipPath>
</defs>
</svg>
