<svg width="8176" height="2304" viewBox="0 0 8176 2304" fill="none" xmlns="http://www.w3.org/2000/svg">
<g clip-path="url(#clip0_121_1402)">
<rect width="8176" height="2304" fill="white"/>
<path d="M2181 1515H7865C7900.35 1515 7929 1543.65 7929 1579V1963C7929 1998.35 7900.35 2027 7865 2027H2181V1515Z" fill="#313FB9" fill-opacity="0.25"/>
<path d="M7270.33 1737.63C7279.7 1737.63 7287.58 1741.74 7292.84 1748.44L7299.33 1739.5H7309.21V1801.58H7292.84V1792.65C7287.58 1799.34 7279.7 1803.45 7270.21 1803.45C7252.58 1803.45 7239.58 1789.29 7239.58 1770.41C7239.58 1751.54 7252.7 1737.64 7270.33 1737.64V1737.63ZM7273.58 1789.67C7284.21 1789.67 7291.94 1781.84 7291.94 1770.55C7291.94 1759.26 7284.19 1751.31 7273.19 1751.31C7262.32 1751.43 7255.56 1759.38 7255.56 1770.55C7255.58 1781.71 7262.82 1789.67 7273.58 1789.67Z" fill="black"/>
<path d="M7162.42 1739.52H7180.58L7199.11 1787.54L7217.65 1739.52H7235.81L7210.03 1801.57H7188.18L7162.43 1739.52H7162.42Z" fill="black"/>
<path d="M7122.97 1739.53C7142.57 1739.53 7156.79 1753.19 7156.79 1772.31C7156.79 1791.42 7142.7 1805.34 7122.97 1805.34C7103.25 1805.34 7089.04 1791.56 7089.04 1772.31C7089.04 1753.05 7103.25 1739.53 7122.97 1739.53ZM7122.97 1791.81C7133.63 1791.81 7141.23 1783.61 7141.23 1772.45C7141.23 1761.28 7133.63 1753.07 7122.97 1753.07C7112.32 1753.07 7104.59 1761.26 7104.59 1772.45C7104.61 1783.61 7112.2 1791.81 7122.97 1791.81Z" fill="black"/>
<path d="M7011.9 1739.51H7019.69L7028.53 1747.08C7034.36 1740.63 7042.26 1737.63 7051.24 1737.63C7067.02 1737.63 7075.87 1746.69 7075.87 1763.2V1801.56H7058.75V1766.68C7058.75 1756.87 7053.89 1752.16 7045.16 1752.16C7035.1 1752.16 7029.03 1758.24 7029.03 1766.68V1801.56H7011.92V1739.51H7011.9H7011.9Z" fill="black"/>
<path d="M6960.41 1741.46H6942.25L6952.33 1773.42H6970.48L6960.41 1741.46Z" fill="black"/>
<path d="M6981.96 1741.4H7000.61L6977.83 1803.45H6959.21L6981.97 1741.4H6981.96Z" fill="black"/>
<path d="M6896.8 1732C6919.97 1732 6935.79 1745.97 6935.79 1767.71C6935.79 1789.44 6919.97 1803.41 6896.8 1803.41H6867V1732H6896.8ZM6882.3 1743.63V1791.77H6896.49C6911.09 1791.77 6920.7 1782.28 6920.7 1767.69C6920.7 1753.1 6911.09 1743.62 6896.49 1743.62H6882.3V1743.64V1743.63Z" fill="black"/>
<path d="M3521.33 1737.63C3530.7 1737.63 3538.58 1741.74 3543.84 1748.44L3550.33 1739.5H3560.21V1801.58H3543.84V1792.65C3538.58 1799.34 3530.7 1803.45 3521.21 1803.45C3503.58 1803.45 3490.58 1789.29 3490.58 1770.41C3490.58 1751.54 3503.7 1737.64 3521.33 1737.64V1737.63ZM3524.58 1789.67C3535.21 1789.67 3542.94 1781.84 3542.94 1770.55C3542.94 1759.26 3535.19 1751.31 3524.19 1751.31C3513.32 1751.43 3506.56 1759.38 3506.56 1770.55C3506.58 1781.71 3513.82 1789.67 3524.58 1789.67Z" fill="black"/>
<path d="M3413.42 1739.52H3431.58L3450.11 1787.54L3468.65 1739.52H3486.81L3461.03 1801.57H3439.18L3413.43 1739.52H3413.42Z" fill="black"/>
<path d="M3373.97 1739.53C3393.57 1739.53 3407.79 1753.19 3407.79 1772.31C3407.79 1791.42 3393.7 1805.34 3373.97 1805.34C3354.25 1805.34 3340.04 1791.56 3340.04 1772.31C3340.04 1753.05 3354.25 1739.53 3373.97 1739.53ZM3373.97 1791.81C3384.63 1791.81 3392.23 1783.61 3392.23 1772.45C3392.23 1761.28 3384.63 1753.07 3373.97 1753.07C3363.32 1753.07 3355.59 1761.26 3355.59 1772.45C3355.61 1783.61 3363.2 1791.81 3373.97 1791.81Z" fill="black"/>
<path d="M3262.9 1739.51H3270.69L3279.53 1747.08C3285.36 1740.63 3293.26 1737.63 3302.24 1737.63C3318.02 1737.63 3326.87 1746.69 3326.87 1763.2V1801.56H3309.75V1766.68C3309.75 1756.87 3304.89 1752.16 3296.16 1752.16C3286.1 1752.16 3280.03 1758.24 3280.03 1766.68V1801.56H3262.92V1739.51H3262.9H3262.9Z" fill="black"/>
<path d="M3211.41 1741.46H3193.25L3203.33 1773.42H3221.48L3211.41 1741.46Z" fill="black"/>
<path d="M3232.96 1741.4H3251.61L3228.83 1803.45H3210.21L3232.97 1741.4H3232.96Z" fill="black"/>
<path d="M3147.8 1732C3170.97 1732 3186.79 1745.97 3186.79 1767.71C3186.79 1789.44 3170.97 1803.41 3147.8 1803.41H3118V1732H3147.8ZM3133.3 1743.63V1791.77H3147.49C3162.09 1791.77 3171.7 1782.28 3171.7 1767.69C3171.7 1753.1 3162.09 1743.62 3147.49 1743.62H3133.3V1743.64V1743.63Z" fill="black"/>
<path d="M2348.58 1738.09V1745.19H2330.34V1805H2321.6V1745.19H2303.26V1738.09H2348.58ZM2385.44 1751.43C2389.41 1751.43 2392.99 1752.3 2396.19 1754.02C2399.39 1755.69 2401.89 1758.22 2403.68 1761.61C2405.54 1765 2406.47 1769.13 2406.47 1773.99V1805H2397.83V1775.24C2397.83 1769.99 2396.51 1765.99 2393.89 1763.24C2391.27 1760.42 2387.68 1759.02 2383.14 1759.02C2378.53 1759.02 2374.85 1760.46 2372.1 1763.34C2369.41 1766.22 2368.07 1770.41 2368.07 1775.91V1805H2359.33V1733.96H2368.07V1759.88C2369.79 1757.19 2372.16 1755.11 2375.17 1753.64C2378.24 1752.17 2381.67 1751.43 2385.44 1751.43ZM2425.25 1743.85C2423.58 1743.85 2422.18 1743.27 2421.02 1742.12C2419.87 1740.97 2419.3 1739.56 2419.3 1737.9C2419.3 1736.23 2419.87 1734.82 2421.02 1733.67C2422.18 1732.52 2423.58 1731.94 2425.25 1731.94C2426.85 1731.94 2428.19 1732.52 2429.28 1733.67C2430.43 1734.82 2431.01 1736.23 2431.01 1737.9C2431.01 1739.56 2430.43 1740.97 2429.28 1742.12C2428.19 1743.27 2426.85 1743.85 2425.25 1743.85ZM2429.47 1752.39V1805H2420.74V1752.39H2429.47ZM2462.98 1805.86C2458.95 1805.86 2455.34 1805.19 2452.14 1803.85C2448.94 1802.44 2446.41 1800.52 2444.55 1798.09C2442.7 1795.59 2441.67 1792.74 2441.48 1789.54H2450.5C2450.76 1792.17 2451.98 1794.31 2454.15 1795.98C2456.39 1797.64 2459.3 1798.47 2462.89 1798.47C2466.22 1798.47 2468.84 1797.74 2470.76 1796.26C2472.68 1794.79 2473.64 1792.94 2473.64 1790.7C2473.64 1788.39 2472.62 1786.7 2470.57 1785.61C2468.52 1784.46 2465.35 1783.34 2461.06 1782.25C2457.16 1781.22 2453.96 1780.2 2451.46 1779.18C2449.03 1778.09 2446.92 1776.52 2445.13 1774.47C2443.4 1772.36 2442.54 1769.61 2442.54 1766.22C2442.54 1763.53 2443.34 1761.06 2444.94 1758.82C2446.54 1756.58 2448.81 1754.82 2451.75 1753.54C2454.7 1752.2 2458.06 1751.53 2461.83 1751.53C2467.66 1751.53 2472.36 1753 2475.94 1755.94C2479.53 1758.89 2481.45 1762.92 2481.7 1768.04H2472.97C2472.78 1765.29 2471.66 1763.08 2469.61 1761.42C2467.62 1759.75 2464.94 1758.92 2461.54 1758.92C2458.41 1758.92 2455.91 1759.59 2454.06 1760.94C2452.2 1762.28 2451.27 1764.04 2451.27 1766.22C2451.27 1767.94 2451.82 1769.38 2452.9 1770.54C2454.06 1771.62 2455.46 1772.52 2457.13 1773.22C2458.86 1773.86 2461.22 1774.6 2464.23 1775.43C2468.01 1776.46 2471.08 1777.48 2473.45 1778.5C2475.82 1779.46 2477.83 1780.94 2479.5 1782.92C2481.22 1784.9 2482.12 1787.5 2482.18 1790.7C2482.18 1793.58 2481.38 1796.17 2479.78 1798.47C2478.18 1800.78 2475.91 1802.6 2472.97 1803.94C2470.09 1805.22 2466.76 1805.86 2462.98 1805.86ZM2524.62 1743.85C2522.96 1743.85 2521.55 1743.27 2520.4 1742.12C2519.25 1740.97 2518.67 1739.56 2518.67 1737.9C2518.67 1736.23 2519.25 1734.82 2520.4 1733.67C2521.55 1732.52 2522.96 1731.94 2524.62 1731.94C2526.22 1731.94 2527.57 1732.52 2528.65 1733.67C2529.81 1734.82 2530.38 1736.23 2530.38 1737.9C2530.38 1739.56 2529.81 1740.97 2528.65 1742.12C2527.57 1743.27 2526.22 1743.85 2524.62 1743.85ZM2528.85 1752.39V1805H2520.11V1752.39H2528.85ZM2562.36 1805.86C2558.33 1805.86 2554.71 1805.19 2551.51 1803.85C2548.31 1802.44 2545.78 1800.52 2543.93 1798.09C2542.07 1795.59 2541.05 1792.74 2540.86 1789.54H2549.88C2550.14 1792.17 2551.35 1794.31 2553.53 1795.98C2555.77 1797.64 2558.68 1798.47 2562.26 1798.47C2565.59 1798.47 2568.22 1797.74 2570.14 1796.26C2572.06 1794.79 2573.02 1792.94 2573.02 1790.7C2573.02 1788.39 2571.99 1786.7 2569.94 1785.61C2567.9 1784.46 2564.73 1783.34 2560.44 1782.25C2556.54 1781.22 2553.34 1780.2 2550.84 1779.18C2548.41 1778.09 2546.3 1776.52 2544.5 1774.47C2542.78 1772.36 2541.91 1769.61 2541.91 1766.22C2541.91 1763.53 2542.71 1761.06 2544.31 1758.82C2545.91 1756.58 2548.18 1754.82 2551.13 1753.54C2554.07 1752.2 2557.43 1751.53 2561.21 1751.53C2567.03 1751.53 2571.74 1753 2575.32 1755.94C2578.9 1758.89 2580.82 1762.92 2581.08 1768.04H2572.34C2572.15 1765.29 2571.03 1763.08 2568.98 1761.42C2567 1759.75 2564.31 1758.92 2560.92 1758.92C2557.78 1758.92 2555.29 1759.59 2553.43 1760.94C2551.58 1762.28 2550.65 1764.04 2550.65 1766.22C2550.65 1767.94 2551.19 1769.38 2552.28 1770.54C2553.43 1771.62 2554.84 1772.52 2556.5 1773.22C2558.23 1773.86 2560.6 1774.6 2563.61 1775.43C2567.38 1776.46 2570.46 1777.48 2572.82 1778.5C2575.19 1779.46 2577.21 1780.94 2578.87 1782.92C2580.6 1784.9 2581.5 1787.5 2581.56 1790.7C2581.56 1793.58 2580.76 1796.17 2579.16 1798.47C2577.56 1800.78 2575.29 1802.6 2572.34 1803.94C2569.46 1805.22 2566.14 1805.86 2562.36 1805.86ZM2616.22 1778.5C2616.22 1773.13 2617.31 1768.42 2619.49 1764.39C2621.66 1760.3 2624.64 1757.13 2628.41 1754.89C2632.25 1752.65 2636.51 1751.53 2641.18 1751.53C2645.79 1751.53 2649.79 1752.52 2653.18 1754.5C2656.57 1756.49 2659.1 1758.98 2660.77 1761.99V1752.39H2669.6V1805H2660.77V1795.21C2659.04 1798.28 2656.45 1800.84 2652.99 1802.89C2649.6 1804.87 2645.63 1805.86 2641.09 1805.86C2636.41 1805.86 2632.19 1804.71 2628.41 1802.41C2624.64 1800.1 2621.66 1796.87 2619.49 1792.71C2617.31 1788.55 2616.22 1783.82 2616.22 1778.5ZM2660.77 1778.6C2660.77 1774.63 2659.97 1771.18 2658.37 1768.23C2656.77 1765.29 2654.59 1763.05 2651.84 1761.51C2649.15 1759.91 2646.17 1759.11 2642.91 1759.11C2639.65 1759.11 2636.67 1759.88 2633.98 1761.42C2631.29 1762.95 2629.15 1765.19 2627.55 1768.14C2625.95 1771.08 2625.15 1774.54 2625.15 1778.5C2625.15 1782.54 2625.95 1786.06 2627.55 1789.06C2629.15 1792.01 2631.29 1794.28 2633.98 1795.88C2636.67 1797.42 2639.65 1798.18 2642.91 1798.18C2646.17 1798.18 2649.15 1797.42 2651.84 1795.88C2654.59 1794.28 2656.77 1792.01 2658.37 1789.06C2659.97 1786.06 2660.77 1782.57 2660.77 1778.6ZM2709.99 1751.43C2716.39 1751.43 2721.58 1753.38 2725.54 1757.29C2729.51 1761.13 2731.5 1766.7 2731.5 1773.99V1805H2722.86V1775.24C2722.86 1769.99 2721.54 1765.99 2718.92 1763.24C2716.3 1760.42 2712.71 1759.02 2708.17 1759.02C2703.56 1759.02 2699.88 1760.46 2697.13 1763.34C2694.44 1766.22 2693.1 1770.41 2693.1 1775.91V1805H2684.36V1752.39H2693.1V1759.88C2694.82 1757.19 2697.16 1755.11 2700.1 1753.64C2703.11 1752.17 2706.41 1751.43 2709.99 1751.43ZM2794.3 1805.86C2789.38 1805.86 2784.9 1804.74 2780.86 1802.5C2776.9 1800.26 2773.76 1797.1 2771.46 1793C2769.22 1788.84 2768.1 1784.04 2768.1 1778.6C2768.1 1773.22 2769.25 1768.49 2771.55 1764.39C2773.92 1760.23 2777.12 1757.06 2781.15 1754.89C2785.18 1752.65 2789.7 1751.53 2794.69 1751.53C2799.68 1751.53 2804.19 1752.65 2808.22 1754.89C2812.26 1757.06 2815.42 1760.2 2817.73 1764.3C2820.1 1768.39 2821.28 1773.16 2821.28 1778.6C2821.28 1784.04 2820.06 1788.84 2817.63 1793C2815.26 1797.1 2812.03 1800.26 2807.94 1802.5C2803.84 1804.74 2799.3 1805.86 2794.3 1805.86ZM2794.3 1798.18C2797.44 1798.18 2800.38 1797.45 2803.14 1795.98C2805.89 1794.5 2808.1 1792.3 2809.76 1789.35C2811.49 1786.41 2812.35 1782.82 2812.35 1778.6C2812.35 1774.38 2811.52 1770.79 2809.86 1767.85C2808.19 1764.9 2806.02 1762.73 2803.33 1761.32C2800.64 1759.85 2797.73 1759.11 2794.59 1759.11C2791.39 1759.11 2788.45 1759.85 2785.76 1761.32C2783.14 1762.73 2781.02 1764.9 2779.42 1767.85C2777.82 1770.79 2777.02 1774.38 2777.02 1778.6C2777.02 1782.89 2777.79 1786.5 2779.33 1789.45C2780.93 1792.39 2783.04 1794.6 2785.66 1796.07C2788.29 1797.48 2791.17 1798.18 2794.3 1798.18ZM2854.18 1759.59H2843.14V1805H2834.4V1759.59H2827.58V1752.39H2834.4V1748.65C2834.4 1742.76 2835.9 1738.47 2838.91 1735.78C2841.98 1733.03 2846.88 1731.66 2853.6 1731.66V1738.95C2849.76 1738.95 2847.04 1739.72 2845.44 1741.26C2843.9 1742.73 2843.14 1745.19 2843.14 1748.65V1752.39H2854.18V1759.59ZM2885.77 1759.59H2874.73V1805H2865.99V1759.59H2859.18V1752.39H2865.99V1748.65C2865.99 1742.76 2867.5 1738.47 2870.5 1735.78C2873.58 1733.03 2878.47 1731.66 2885.19 1731.66V1738.95C2881.35 1738.95 2878.63 1739.72 2877.03 1741.26C2875.5 1742.73 2874.73 1745.19 2874.73 1748.65V1752.39H2885.77V1759.59ZM2900.47 1743.85C2898.8 1743.85 2897.39 1743.27 2896.24 1742.12C2895.09 1740.97 2894.51 1739.56 2894.51 1737.9C2894.51 1736.23 2895.09 1734.82 2896.24 1733.67C2897.39 1732.52 2898.8 1731.94 2900.47 1731.94C2902.07 1731.94 2903.41 1732.52 2904.5 1733.67C2905.65 1734.82 2906.23 1736.23 2906.23 1737.9C2906.23 1739.56 2905.65 1740.97 2904.5 1742.12C2903.41 1743.27 2902.07 1743.85 2900.47 1743.85ZM2904.69 1752.39V1805H2895.95V1752.39H2904.69ZM2916.32 1778.6C2916.32 1773.16 2917.4 1768.42 2919.58 1764.39C2921.76 1760.3 2924.76 1757.13 2928.6 1754.89C2932.51 1752.65 2936.96 1751.53 2941.95 1751.53C2948.41 1751.53 2953.72 1753.1 2957.88 1756.23C2962.11 1759.37 2964.89 1763.72 2966.24 1769.29H2956.83C2955.93 1766.09 2954.17 1763.56 2951.55 1761.7C2948.99 1759.85 2945.79 1758.92 2941.95 1758.92C2936.96 1758.92 2932.92 1760.65 2929.85 1764.1C2926.78 1767.5 2925.24 1772.33 2925.24 1778.6C2925.24 1784.94 2926.78 1789.83 2929.85 1793.29C2932.92 1796.74 2936.96 1798.47 2941.95 1798.47C2945.79 1798.47 2948.99 1797.58 2951.55 1795.78C2954.11 1793.99 2955.87 1791.43 2956.83 1788.1H2966.24C2964.83 1793.48 2962.01 1797.8 2957.79 1801.06C2953.56 1804.26 2948.28 1805.86 2941.95 1805.86C2936.96 1805.86 2932.51 1804.74 2928.6 1802.5C2924.76 1800.26 2921.76 1797.1 2919.58 1793C2917.4 1788.9 2916.32 1784.1 2916.32 1778.6ZM2982.4 1743.85C2980.74 1743.85 2979.33 1743.27 2978.18 1742.12C2977.03 1740.97 2976.45 1739.56 2976.45 1737.9C2976.45 1736.23 2977.03 1734.82 2978.18 1733.67C2979.33 1732.52 2980.74 1731.94 2982.4 1731.94C2984 1731.94 2985.35 1732.52 2986.44 1733.67C2987.59 1734.82 2988.16 1736.23 2988.16 1737.9C2988.16 1739.56 2987.59 1740.97 2986.44 1742.12C2985.35 1743.27 2984 1743.85 2982.4 1743.85ZM2986.63 1752.39V1805H2977.89V1752.39H2986.63ZM2998.25 1778.5C2998.25 1773.13 2999.34 1768.42 3001.52 1764.39C3003.69 1760.3 3006.67 1757.13 3010.45 1754.89C3014.29 1752.65 3018.54 1751.53 3023.21 1751.53C3027.82 1751.53 3031.82 1752.52 3035.21 1754.5C3038.61 1756.49 3041.13 1758.98 3042.8 1761.99V1752.39H3051.63V1805H3042.8V1795.21C3041.07 1798.28 3038.48 1800.84 3035.02 1802.89C3031.63 1804.87 3027.66 1805.86 3023.12 1805.86C3018.45 1805.86 3014.22 1804.71 3010.45 1802.41C3006.67 1800.1 3003.69 1796.87 3001.52 1792.71C2999.34 1788.55 2998.25 1783.82 2998.25 1778.5ZM3042.8 1778.6C3042.8 1774.63 3042 1771.18 3040.4 1768.23C3038.8 1765.29 3036.62 1763.05 3033.87 1761.51C3031.18 1759.91 3028.21 1759.11 3024.94 1759.11C3021.68 1759.11 3018.7 1759.88 3016.01 1761.42C3013.33 1762.95 3011.18 1765.19 3009.58 1768.14C3007.98 1771.08 3007.18 1774.54 3007.18 1778.5C3007.18 1782.54 3007.98 1786.06 3009.58 1789.06C3011.18 1792.01 3013.33 1794.28 3016.01 1795.88C3018.7 1797.42 3021.68 1798.18 3024.94 1798.18C3028.21 1798.18 3031.18 1797.42 3033.87 1795.88C3036.62 1794.28 3038.8 1792.01 3040.4 1789.06C3042 1786.06 3042.8 1782.57 3042.8 1778.6ZM3075.13 1733.96V1805H3066.39V1733.96H3075.13ZM3624.84 1805.86C3619.91 1805.86 3615.43 1804.74 3611.4 1802.5C3607.43 1800.26 3604.29 1797.1 3601.99 1793C3599.75 1788.84 3598.63 1784.04 3598.63 1778.6C3598.63 1773.22 3599.78 1768.49 3602.08 1764.39C3604.45 1760.23 3607.65 1757.06 3611.68 1754.89C3615.72 1752.65 3620.23 1751.53 3625.22 1751.53C3630.21 1751.53 3634.72 1752.65 3638.76 1754.89C3642.79 1757.06 3645.96 1760.2 3648.26 1764.3C3650.63 1768.39 3651.81 1773.16 3651.81 1778.6C3651.81 1784.04 3650.6 1788.84 3648.16 1793C3645.8 1797.1 3642.56 1800.26 3638.47 1802.5C3634.37 1804.74 3629.83 1805.86 3624.84 1805.86ZM3624.84 1798.18C3627.97 1798.18 3630.92 1797.45 3633.67 1795.98C3636.42 1794.5 3638.63 1792.3 3640.29 1789.35C3642.02 1786.41 3642.88 1782.82 3642.88 1778.6C3642.88 1774.38 3642.05 1770.79 3640.39 1767.85C3638.72 1764.9 3636.55 1762.73 3633.86 1761.32C3631.17 1759.85 3628.26 1759.11 3625.12 1759.11C3621.92 1759.11 3618.98 1759.85 3616.29 1761.32C3613.67 1762.73 3611.56 1764.9 3609.96 1767.85C3608.36 1770.79 3607.56 1774.38 3607.56 1778.6C3607.56 1782.89 3608.32 1786.5 3609.86 1789.45C3611.46 1792.39 3613.57 1794.6 3616.2 1796.07C3618.82 1797.48 3621.7 1798.18 3624.84 1798.18ZM3672.03 1762.09C3673.76 1759.08 3676.32 1756.58 3679.71 1754.6C3683.17 1752.55 3687.17 1751.53 3691.71 1751.53C3696.39 1751.53 3700.61 1752.65 3704.39 1754.89C3708.23 1757.13 3711.23 1760.3 3713.41 1764.39C3715.59 1768.42 3716.67 1773.13 3716.67 1778.5C3716.67 1783.82 3715.59 1788.55 3713.41 1792.71C3711.23 1796.87 3708.23 1800.1 3704.39 1802.41C3700.61 1804.71 3696.39 1805.86 3691.71 1805.86C3687.23 1805.86 3683.27 1804.87 3679.81 1802.89C3676.42 1800.84 3673.83 1798.31 3672.03 1795.3V1829.96H3663.3V1752.39H3672.03V1762.09ZM3707.75 1778.5C3707.75 1774.54 3706.95 1771.08 3705.35 1768.14C3703.75 1765.19 3701.57 1762.95 3698.82 1761.42C3696.13 1759.88 3693.15 1759.11 3689.89 1759.11C3686.69 1759.11 3683.71 1759.91 3680.96 1761.51C3678.27 1763.05 3676.1 1765.32 3674.43 1768.33C3672.83 1771.27 3672.03 1774.7 3672.03 1778.6C3672.03 1782.57 3672.83 1786.06 3674.43 1789.06C3676.1 1792.01 3678.27 1794.28 3680.96 1795.88C3683.71 1797.42 3686.69 1798.18 3689.89 1798.18C3693.15 1798.18 3696.13 1797.42 3698.82 1795.88C3701.57 1794.28 3703.75 1792.01 3705.35 1789.06C3706.95 1786.06 3707.75 1782.54 3707.75 1778.5ZM3776.17 1776.68C3776.17 1778.34 3776.08 1780.1 3775.89 1781.96H3733.84C3734.16 1787.14 3735.92 1791.21 3739.12 1794.15C3742.38 1797.03 3746.32 1798.47 3750.93 1798.47C3754.7 1798.47 3757.84 1797.61 3760.33 1795.88C3762.89 1794.09 3764.69 1791.72 3765.71 1788.78H3775.12C3773.71 1793.83 3770.89 1797.96 3766.67 1801.16C3762.45 1804.3 3757.2 1805.86 3750.93 1805.86C3745.93 1805.86 3741.45 1804.74 3737.49 1802.5C3733.58 1800.26 3730.51 1797.1 3728.27 1793C3726.03 1788.84 3724.91 1784.04 3724.91 1778.6C3724.91 1773.16 3726 1768.39 3728.17 1764.3C3730.35 1760.2 3733.39 1757.06 3737.29 1754.89C3741.26 1752.65 3745.81 1751.53 3750.93 1751.53C3755.92 1751.53 3760.33 1752.62 3764.17 1754.79C3768.01 1756.97 3770.96 1759.98 3773.01 1763.82C3775.12 1767.59 3776.17 1771.88 3776.17 1776.68ZM3767.15 1774.86C3767.15 1771.53 3766.41 1768.68 3764.94 1766.31C3763.47 1763.88 3761.45 1762.06 3758.89 1760.84C3756.4 1759.56 3753.61 1758.92 3750.54 1758.92C3746.13 1758.92 3742.35 1760.33 3739.21 1763.14C3736.14 1765.96 3734.38 1769.86 3733.93 1774.86H3767.15ZM3813.34 1751.43C3819.74 1751.43 3824.92 1753.38 3828.89 1757.29C3832.86 1761.13 3834.84 1766.7 3834.84 1773.99V1805H3826.2V1775.24C3826.2 1769.99 3824.89 1765.99 3822.26 1763.24C3819.64 1760.42 3816.06 1759.02 3811.51 1759.02C3806.9 1759.02 3803.22 1760.46 3800.47 1763.34C3797.78 1766.22 3796.44 1770.41 3796.44 1775.91V1805H3787.7V1752.39H3796.44V1759.88C3798.17 1757.19 3800.5 1755.11 3803.45 1753.64C3806.46 1752.17 3809.75 1751.43 3813.34 1751.43ZM3893.33 1805.86C3889.3 1805.86 3885.68 1805.19 3882.48 1803.85C3879.28 1802.44 3876.75 1800.52 3874.9 1798.09C3873.04 1795.59 3872.02 1792.74 3871.82 1789.54H3880.85C3881.1 1792.17 3882.32 1794.31 3884.5 1795.98C3886.74 1797.64 3889.65 1798.47 3893.23 1798.47C3896.56 1798.47 3899.18 1797.74 3901.1 1796.26C3903.02 1794.79 3903.98 1792.94 3903.98 1790.7C3903.98 1788.39 3902.96 1786.7 3900.91 1785.61C3898.86 1784.46 3895.7 1783.34 3891.41 1782.25C3887.5 1781.22 3884.3 1780.2 3881.81 1779.18C3879.38 1778.09 3877.26 1776.52 3875.47 1774.47C3873.74 1772.36 3872.88 1769.61 3872.88 1766.22C3872.88 1763.53 3873.68 1761.06 3875.28 1758.82C3876.88 1756.58 3879.15 1754.82 3882.1 1753.54C3885.04 1752.2 3888.4 1751.53 3892.18 1751.53C3898 1751.53 3902.7 1753 3906.29 1755.94C3909.87 1758.89 3911.79 1762.92 3912.05 1768.04H3903.31C3903.12 1765.29 3902 1763.08 3899.95 1761.42C3897.97 1759.75 3895.28 1758.92 3891.89 1758.92C3888.75 1758.92 3886.26 1759.59 3884.4 1760.94C3882.54 1762.28 3881.62 1764.04 3881.62 1766.22C3881.62 1767.94 3882.16 1769.38 3883.25 1770.54C3884.4 1771.62 3885.81 1772.52 3887.47 1773.22C3889.2 1773.86 3891.57 1774.6 3894.58 1775.43C3898.35 1776.46 3901.42 1777.48 3903.79 1778.5C3906.16 1779.46 3908.18 1780.94 3909.84 1782.92C3911.57 1784.9 3912.46 1787.5 3912.53 1790.7C3912.53 1793.58 3911.73 1796.17 3910.13 1798.47C3908.53 1800.78 3906.26 1802.6 3903.31 1803.94C3900.43 1805.22 3897.1 1805.86 3893.33 1805.86ZM3947.8 1805.86C3942.88 1805.86 3938.4 1804.74 3934.36 1802.5C3930.4 1800.26 3927.26 1797.1 3924.96 1793C3922.72 1788.84 3921.6 1784.04 3921.6 1778.6C3921.6 1773.22 3922.75 1768.49 3925.05 1764.39C3927.42 1760.23 3930.62 1757.06 3934.65 1754.89C3938.68 1752.65 3943.2 1751.53 3948.19 1751.53C3953.18 1751.53 3957.69 1752.65 3961.72 1754.89C3965.76 1757.06 3968.92 1760.2 3971.23 1764.3C3973.6 1768.39 3974.78 1773.16 3974.78 1778.6C3974.78 1784.04 3973.56 1788.84 3971.13 1793C3968.76 1797.1 3965.53 1800.26 3961.44 1802.5C3957.34 1804.74 3952.8 1805.86 3947.8 1805.86ZM3947.8 1798.18C3950.94 1798.18 3953.88 1797.45 3956.64 1795.98C3959.39 1794.5 3961.6 1792.3 3963.26 1789.35C3964.99 1786.41 3965.85 1782.82 3965.85 1778.6C3965.85 1774.38 3965.02 1770.79 3963.36 1767.85C3961.69 1764.9 3959.52 1762.73 3956.83 1761.32C3954.14 1759.85 3951.23 1759.11 3948.09 1759.11C3944.89 1759.11 3941.95 1759.85 3939.26 1761.32C3936.64 1762.73 3934.52 1764.9 3932.92 1767.85C3931.32 1770.79 3930.52 1774.38 3930.52 1778.6C3930.52 1782.89 3931.29 1786.5 3932.83 1789.45C3934.43 1792.39 3936.54 1794.6 3939.16 1796.07C3941.79 1797.48 3944.67 1798.18 3947.8 1798.18ZM4032.92 1752.39V1805H4024.19V1797.22C4022.52 1799.91 4020.19 1802.02 4017.18 1803.56C4014.24 1805.03 4010.97 1805.77 4007.39 1805.77C4003.29 1805.77 3999.61 1804.94 3996.35 1803.27C3993.08 1801.54 3990.49 1798.98 3988.57 1795.59C3986.72 1792.2 3985.79 1788.07 3985.79 1783.21V1752.39H3994.43V1782.06C3994.43 1787.24 3995.74 1791.24 3998.36 1794.06C4000.99 1796.81 4004.57 1798.18 4009.12 1798.18C4013.79 1798.18 4017.47 1796.74 4020.16 1793.86C4022.84 1790.98 4024.19 1786.79 4024.19 1781.29V1752.39H4032.92ZM4056.41 1760.94C4057.95 1757.93 4060.12 1755.59 4062.94 1753.93C4065.82 1752.26 4069.31 1751.43 4073.4 1751.43V1760.46H4071.1C4061.31 1760.46 4056.41 1765.77 4056.41 1776.39V1805H4047.67V1752.39H4056.41V1760.94ZM4080.22 1778.6C4080.22 1773.16 4081.31 1768.42 4083.49 1764.39C4085.66 1760.3 4088.67 1757.13 4092.51 1754.89C4096.41 1752.65 4100.86 1751.53 4105.85 1751.53C4112.32 1751.53 4117.63 1753.1 4121.79 1756.23C4126.01 1759.37 4128.8 1763.72 4130.14 1769.29H4120.73C4119.84 1766.09 4118.08 1763.56 4115.45 1761.7C4112.89 1759.85 4109.69 1758.92 4105.85 1758.92C4100.86 1758.92 4096.83 1760.65 4093.76 1764.1C4090.69 1767.5 4089.15 1772.33 4089.15 1778.6C4089.15 1784.94 4090.69 1789.83 4093.76 1793.29C4096.83 1796.74 4100.86 1798.47 4105.85 1798.47C4109.69 1798.47 4112.89 1797.58 4115.45 1795.78C4118.01 1793.99 4119.77 1791.43 4120.73 1788.1H4130.14C4128.73 1793.48 4125.92 1797.8 4121.69 1801.06C4117.47 1804.26 4112.19 1805.86 4105.85 1805.86C4100.86 1805.86 4096.41 1804.74 4092.51 1802.5C4088.67 1800.26 4085.66 1797.1 4083.49 1793C4081.31 1788.9 4080.22 1784.1 4080.22 1778.6ZM4189.8 1776.68C4189.8 1778.34 4189.7 1780.1 4189.51 1781.96H4147.46C4147.78 1787.14 4149.54 1791.21 4152.74 1794.15C4156.01 1797.03 4159.94 1798.47 4164.55 1798.47C4168.33 1798.47 4171.46 1797.61 4173.96 1795.88C4176.52 1794.09 4178.31 1791.72 4179.33 1788.78H4188.74C4187.33 1793.83 4184.52 1797.96 4180.29 1801.16C4176.07 1804.3 4170.82 1805.86 4164.55 1805.86C4159.56 1805.86 4155.08 1804.74 4151.11 1802.5C4147.21 1800.26 4144.13 1797.1 4141.89 1793C4139.65 1788.84 4138.53 1784.04 4138.53 1778.6C4138.53 1773.16 4139.62 1768.39 4141.8 1764.3C4143.97 1760.2 4147.01 1757.06 4150.92 1754.89C4154.89 1752.65 4159.43 1751.53 4164.55 1751.53C4169.54 1751.53 4173.96 1752.62 4177.8 1754.79C4181.64 1756.97 4184.58 1759.98 4186.63 1763.82C4188.74 1767.59 4189.8 1771.88 4189.8 1776.68ZM4180.77 1774.86C4180.77 1771.53 4180.04 1768.68 4178.57 1766.31C4177.09 1763.88 4175.08 1762.06 4172.52 1760.84C4170.02 1759.56 4167.24 1758.92 4164.17 1758.92C4159.75 1758.92 4155.97 1760.33 4152.84 1763.14C4149.77 1765.96 4148.01 1769.86 4147.56 1774.86H4180.77ZM4223.66 1778.6C4223.66 1773.16 4224.75 1768.42 4226.92 1764.39C4229.1 1760.3 4232.11 1757.13 4235.95 1754.89C4239.85 1752.65 4244.3 1751.53 4249.29 1751.53C4255.76 1751.53 4261.07 1753.1 4265.23 1756.23C4269.45 1759.37 4272.24 1763.72 4273.58 1769.29H4264.17C4263.28 1766.09 4261.52 1763.56 4258.89 1761.7C4256.33 1759.85 4253.13 1758.92 4249.29 1758.92C4244.3 1758.92 4240.27 1760.65 4237.2 1764.1C4234.12 1767.5 4232.59 1772.33 4232.59 1778.6C4232.59 1784.94 4234.12 1789.83 4237.2 1793.29C4240.27 1796.74 4244.3 1798.47 4249.29 1798.47C4253.13 1798.47 4256.33 1797.58 4258.89 1795.78C4261.45 1793.99 4263.21 1791.43 4264.17 1788.1H4273.58C4272.17 1793.48 4269.36 1797.8 4265.13 1801.06C4260.91 1804.26 4255.63 1805.86 4249.29 1805.86C4244.3 1805.86 4239.85 1804.74 4235.95 1802.5C4232.11 1800.26 4229.1 1797.1 4226.92 1793C4224.75 1788.9 4223.66 1784.1 4223.66 1778.6ZM4308.18 1805.86C4303.25 1805.86 4298.77 1804.74 4294.74 1802.5C4290.77 1800.26 4287.64 1797.1 4285.33 1793C4283.09 1788.84 4281.97 1784.04 4281.97 1778.6C4281.97 1773.22 4283.12 1768.49 4285.43 1764.39C4287.8 1760.23 4291 1757.06 4295.03 1754.89C4299.06 1752.65 4303.57 1751.53 4308.56 1751.53C4313.56 1751.53 4318.07 1752.65 4322.1 1754.89C4326.13 1757.06 4329.3 1760.2 4331.6 1764.3C4333.97 1768.39 4335.16 1773.16 4335.16 1778.6C4335.16 1784.04 4333.94 1788.84 4331.51 1793C4329.14 1797.1 4325.91 1800.26 4321.81 1802.5C4317.72 1804.74 4313.17 1805.86 4308.18 1805.86ZM4308.18 1798.18C4311.32 1798.18 4314.26 1797.45 4317.01 1795.98C4319.76 1794.5 4321.97 1792.3 4323.64 1789.35C4325.36 1786.41 4326.23 1782.82 4326.23 1778.6C4326.23 1774.38 4325.4 1770.79 4323.73 1767.85C4322.07 1764.9 4319.89 1762.73 4317.2 1761.32C4314.52 1759.85 4311.6 1759.11 4308.47 1759.11C4305.27 1759.11 4302.32 1759.85 4299.64 1761.32C4297.01 1762.73 4294.9 1764.9 4293.3 1767.85C4291.7 1770.79 4290.9 1774.38 4290.9 1778.6C4290.9 1782.89 4291.67 1786.5 4293.2 1789.45C4294.8 1792.39 4296.92 1794.6 4299.54 1796.07C4302.16 1797.48 4305.04 1798.18 4308.18 1798.18ZM4409.91 1751.43C4414 1751.43 4417.65 1752.3 4420.85 1754.02C4424.05 1755.69 4426.58 1758.22 4428.43 1761.61C4430.29 1765 4431.22 1769.13 4431.22 1773.99V1805H4422.58V1775.24C4422.58 1769.99 4421.27 1765.99 4418.64 1763.24C4416.08 1760.42 4412.59 1759.02 4408.18 1759.02C4403.63 1759.02 4400.02 1760.49 4397.33 1763.43C4394.64 1766.31 4393.3 1770.5 4393.3 1776.01V1805H4384.66V1775.24C4384.66 1769.99 4383.35 1765.99 4380.72 1763.24C4378.16 1760.42 4374.67 1759.02 4370.26 1759.02C4365.71 1759.02 4362.1 1760.49 4359.41 1763.43C4356.72 1766.31 4355.38 1770.5 4355.38 1776.01V1805H4346.64V1752.39H4355.38V1759.98C4357.11 1757.22 4359.41 1755.11 4362.29 1753.64C4365.23 1752.17 4368.47 1751.43 4371.99 1751.43C4376.4 1751.43 4380.31 1752.42 4383.7 1754.41C4387.09 1756.39 4389.62 1759.3 4391.28 1763.14C4392.75 1759.43 4395.19 1756.55 4398.58 1754.5C4401.97 1752.46 4405.75 1751.43 4409.91 1751.43ZM4508.81 1751.43C4512.91 1751.43 4516.56 1752.3 4519.76 1754.02C4522.96 1755.69 4525.48 1758.22 4527.34 1761.61C4529.2 1765 4530.12 1769.13 4530.12 1773.99V1805H4521.48V1775.24C4521.48 1769.99 4520.17 1765.99 4517.55 1763.24C4514.99 1760.42 4511.5 1759.02 4507.08 1759.02C4502.54 1759.02 4498.92 1760.49 4496.24 1763.43C4493.55 1766.31 4492.2 1770.5 4492.2 1776.01V1805H4483.56V1775.24C4483.56 1769.99 4482.25 1765.99 4479.63 1763.24C4477.07 1760.42 4473.58 1759.02 4469.16 1759.02C4464.62 1759.02 4461 1760.49 4458.32 1763.43C4455.63 1766.31 4454.28 1770.5 4454.28 1776.01V1805H4445.55V1752.39H4454.28V1759.98C4456.01 1757.22 4458.32 1755.11 4461.2 1753.64C4464.14 1752.17 4467.37 1751.43 4470.89 1751.43C4475.31 1751.43 4479.21 1752.42 4482.6 1754.41C4486 1756.39 4488.52 1759.3 4490.19 1763.14C4491.66 1759.43 4494.09 1756.55 4497.48 1754.5C4500.88 1752.46 4504.65 1751.43 4508.81 1751.43ZM4591.11 1752.39V1805H4582.37V1797.22C4580.71 1799.91 4578.37 1802.02 4575.37 1803.56C4572.42 1805.03 4569.16 1805.77 4565.57 1805.77C4561.48 1805.77 4557.8 1804.94 4554.53 1803.27C4551.27 1801.54 4548.68 1798.98 4546.76 1795.59C4544.9 1792.2 4543.97 1788.07 4543.97 1783.21V1752.39H4552.61V1782.06C4552.61 1787.24 4553.93 1791.24 4556.55 1794.06C4559.17 1796.81 4562.76 1798.18 4567.3 1798.18C4571.97 1798.18 4575.65 1796.74 4578.34 1793.86C4581.03 1790.98 4582.37 1786.79 4582.37 1781.29V1752.39H4591.11ZM4631.49 1751.43C4637.89 1751.43 4643.08 1753.38 4647.04 1757.29C4651.01 1761.13 4653 1766.7 4653 1773.99V1805H4644.36V1775.24C4644.36 1769.99 4643.04 1765.99 4640.42 1763.24C4637.8 1760.42 4634.21 1759.02 4629.67 1759.02C4625.06 1759.02 4621.38 1760.46 4618.63 1763.34C4615.94 1766.22 4614.6 1770.41 4614.6 1775.91V1805H4605.86V1752.39H4614.6V1759.88C4616.32 1757.19 4618.66 1755.11 4621.6 1753.64C4624.61 1752.17 4627.91 1751.43 4631.49 1751.43ZM4671.78 1743.85C4670.12 1743.85 4668.71 1743.27 4667.56 1742.12C4666.4 1740.97 4665.83 1739.56 4665.83 1737.9C4665.83 1736.23 4666.4 1734.82 4667.56 1733.67C4668.71 1732.52 4670.12 1731.94 4671.78 1731.94C4673.38 1731.94 4674.72 1732.52 4675.81 1733.67C4676.96 1734.82 4677.54 1736.23 4677.54 1737.9C4677.54 1739.56 4676.96 1740.97 4675.81 1742.12C4674.72 1743.27 4673.38 1743.85 4671.78 1743.85ZM4676 1752.39V1805H4667.27V1752.39H4676ZM4701.55 1759.59V1790.6C4701.55 1793.16 4702.09 1794.98 4703.18 1796.07C4704.27 1797.1 4706.16 1797.61 4708.84 1797.61H4715.28V1805H4707.4C4702.54 1805 4698.89 1803.88 4696.46 1801.64C4694.03 1799.4 4692.81 1795.72 4692.81 1790.6V1759.59H4686V1752.39H4692.81V1739.14H4701.55V1752.39H4715.28V1759.59H4701.55ZM4771.17 1752.39L4739.49 1829.77H4730.47L4740.84 1804.42L4719.62 1752.39H4729.32L4745.83 1795.02L4762.15 1752.39H4771.17ZM4814.28 1762.09C4816.01 1759.08 4818.57 1756.58 4821.96 1754.6C4825.42 1752.55 4829.42 1751.53 4833.96 1751.53C4838.64 1751.53 4842.86 1752.65 4846.64 1754.89C4850.48 1757.13 4853.48 1760.3 4855.66 1764.39C4857.84 1768.42 4858.92 1773.13 4858.92 1778.5C4858.92 1783.82 4857.84 1788.55 4855.66 1792.71C4853.48 1796.87 4850.48 1800.1 4846.64 1802.41C4842.86 1804.71 4838.64 1805.86 4833.96 1805.86C4829.48 1805.86 4825.52 1804.87 4822.06 1802.89C4818.67 1800.84 4816.08 1798.31 4814.28 1795.3V1829.96H4805.55V1752.39H4814.28V1762.09ZM4850 1778.5C4850 1774.54 4849.2 1771.08 4847.6 1768.14C4846 1765.19 4843.82 1762.95 4841.07 1761.42C4838.38 1759.88 4835.4 1759.11 4832.14 1759.11C4828.94 1759.11 4825.96 1759.91 4823.21 1761.51C4820.52 1763.05 4818.35 1765.32 4816.68 1768.33C4815.08 1771.27 4814.28 1774.7 4814.28 1778.6C4814.28 1782.57 4815.08 1786.06 4816.68 1789.06C4818.35 1792.01 4820.52 1794.28 4823.21 1795.88C4825.96 1797.42 4828.94 1798.18 4832.14 1798.18C4835.4 1798.18 4838.38 1797.42 4841.07 1795.88C4843.82 1794.28 4846 1792.01 4847.6 1789.06C4849.2 1786.06 4850 1782.54 4850 1778.5ZM4879.16 1760.94C4880.7 1757.93 4882.87 1755.59 4885.69 1753.93C4888.57 1752.26 4892.06 1751.43 4896.15 1751.43V1760.46H4893.85C4884.06 1760.46 4879.16 1765.77 4879.16 1776.39V1805H4870.42V1752.39H4879.16V1760.94ZM4929.18 1805.86C4924.25 1805.86 4919.77 1804.74 4915.74 1802.5C4911.77 1800.26 4908.64 1797.1 4906.33 1793C4904.09 1788.84 4902.97 1784.04 4902.97 1778.6C4902.97 1773.22 4904.12 1768.49 4906.43 1764.39C4908.8 1760.23 4912 1757.06 4916.03 1754.89C4920.06 1752.65 4924.57 1751.53 4929.56 1751.53C4934.56 1751.53 4939.07 1752.65 4943.1 1754.89C4947.13 1757.06 4950.3 1760.2 4952.6 1764.3C4954.97 1768.39 4956.16 1773.16 4956.16 1778.6C4956.16 1784.04 4954.94 1788.84 4952.51 1793C4950.14 1797.1 4946.91 1800.26 4942.81 1802.5C4938.72 1804.74 4934.17 1805.86 4929.18 1805.86ZM4929.18 1798.18C4932.32 1798.18 4935.26 1797.45 4938.01 1795.98C4940.76 1794.5 4942.97 1792.3 4944.64 1789.35C4946.36 1786.41 4947.23 1782.82 4947.23 1778.6C4947.23 1774.38 4946.4 1770.79 4944.73 1767.85C4943.07 1764.9 4940.89 1762.73 4938.2 1761.32C4935.52 1759.85 4932.6 1759.11 4929.47 1759.11C4926.27 1759.11 4923.32 1759.85 4920.64 1761.32C4918.01 1762.73 4915.9 1764.9 4914.3 1767.85C4912.7 1770.79 4911.9 1774.38 4911.9 1778.6C4911.9 1782.89 4912.67 1786.5 4914.2 1789.45C4915.8 1792.39 4917.92 1794.6 4920.54 1796.07C4923.16 1797.48 4926.04 1798.18 4929.18 1798.18ZM4972.35 1743.85C4970.68 1743.85 4969.27 1743.27 4968.12 1742.12C4967.03 1740.97 4966.49 1739.56 4966.49 1737.9C4966.49 1736.23 4967.03 1734.82 4968.12 1733.67C4969.27 1732.52 4970.68 1731.94 4972.35 1731.94C4974.01 1731.94 4975.39 1732.52 4976.47 1733.67C4977.63 1734.82 4978.2 1736.23 4978.2 1737.9C4978.2 1739.56 4977.63 1740.97 4976.47 1742.12C4975.39 1743.27 4974.01 1743.85 4972.35 1743.85ZM4976.67 1816.42C4976.67 1821.1 4975.48 1824.52 4973.11 1826.7C4970.75 1828.87 4967.29 1829.96 4962.75 1829.96H4957.66V1822.57H4961.31C4963.74 1822.57 4965.43 1822.09 4966.39 1821.13C4967.42 1820.17 4967.93 1818.54 4967.93 1816.23V1752.39H4976.67V1816.42ZM5039.45 1776.68C5039.45 1778.34 5039.36 1780.1 5039.17 1781.96H4997.12C4997.44 1787.14 4999.2 1791.21 5002.4 1794.15C5005.66 1797.03 5009.6 1798.47 5014.21 1798.47C5017.98 1798.47 5021.12 1797.61 5023.61 1795.88C5026.17 1794.09 5027.97 1791.72 5028.99 1788.78H5038.4C5036.99 1793.83 5034.17 1797.96 5029.95 1801.16C5025.73 1804.3 5020.48 1805.86 5014.21 1805.86C5009.21 1805.86 5004.73 1804.74 5000.77 1802.5C4996.86 1800.26 4993.79 1797.1 4991.55 1793C4989.31 1788.84 4988.19 1784.04 4988.19 1778.6C4988.19 1773.16 4989.28 1768.39 4991.45 1764.3C4993.63 1760.2 4996.67 1757.06 5000.57 1754.89C5004.54 1752.65 5009.09 1751.53 5014.21 1751.53C5019.2 1751.53 5023.61 1752.62 5027.45 1754.79C5031.29 1756.97 5034.24 1759.98 5036.29 1763.82C5038.4 1767.59 5039.45 1771.88 5039.45 1776.68ZM5030.43 1774.86C5030.43 1771.53 5029.69 1768.68 5028.22 1766.31C5026.75 1763.88 5024.73 1762.06 5022.17 1760.84C5019.68 1759.56 5016.89 1758.92 5013.82 1758.92C5009.41 1758.92 5005.63 1760.33 5002.49 1763.14C4999.42 1765.96 4997.66 1769.86 4997.21 1774.86H5030.43ZM5047.72 1778.6C5047.72 1773.16 5048.81 1768.42 5050.99 1764.39C5053.16 1760.3 5056.17 1757.13 5060.01 1754.89C5063.91 1752.65 5068.36 1751.53 5073.35 1751.53C5079.82 1751.53 5085.13 1753.1 5089.29 1756.23C5093.51 1759.37 5096.3 1763.72 5097.64 1769.29H5088.23C5087.34 1766.09 5085.58 1763.56 5082.95 1761.7C5080.39 1759.85 5077.19 1758.92 5073.35 1758.92C5068.36 1758.92 5064.33 1760.65 5061.26 1764.1C5058.19 1767.5 5056.65 1772.33 5056.65 1778.6C5056.65 1784.94 5058.19 1789.83 5061.26 1793.29C5064.33 1796.74 5068.36 1798.47 5073.35 1798.47C5077.19 1798.47 5080.39 1797.58 5082.95 1795.78C5085.51 1793.99 5087.27 1791.43 5088.23 1788.1H5097.64C5096.23 1793.48 5093.42 1797.8 5089.19 1801.06C5084.97 1804.26 5079.69 1805.86 5073.35 1805.86C5068.36 1805.86 5063.91 1804.74 5060.01 1802.5C5056.17 1800.26 5053.16 1797.1 5050.99 1793C5048.81 1788.9 5047.72 1784.1 5047.72 1778.6ZM5119.95 1759.59V1790.6C5119.95 1793.16 5120.5 1794.98 5121.59 1796.07C5122.67 1797.1 5124.56 1797.61 5127.25 1797.61H5133.68V1805H5125.81C5120.95 1805 5117.3 1803.88 5114.87 1801.64C5112.43 1799.4 5111.22 1795.72 5111.22 1790.6V1759.59H5104.4V1752.39H5111.22V1739.14H5119.95V1752.39H5133.68V1759.59H5119.95ZM5153.29 1792.9L5142.54 1818.73H5136.68L5143.69 1792.9H5153.29ZM5207.52 1805.86C5203.48 1805.86 5199.87 1805.19 5196.67 1803.85C5193.47 1802.44 5190.94 1800.52 5189.08 1798.09C5187.23 1795.59 5186.2 1792.74 5186.01 1789.54H5195.04C5195.29 1792.17 5196.51 1794.31 5198.68 1795.98C5200.92 1797.64 5203.84 1798.47 5207.42 1798.47C5210.75 1798.47 5213.37 1797.74 5215.29 1796.26C5217.21 1794.79 5218.17 1792.94 5218.17 1790.7C5218.17 1788.39 5217.15 1786.7 5215.1 1785.61C5213.05 1784.46 5209.88 1783.34 5205.6 1782.25C5201.69 1781.22 5198.49 1780.2 5196 1779.18C5193.56 1778.09 5191.45 1776.52 5189.66 1774.47C5187.93 1772.36 5187.07 1769.61 5187.07 1766.22C5187.07 1763.53 5187.87 1761.06 5189.47 1758.82C5191.07 1756.58 5193.34 1754.82 5196.28 1753.54C5199.23 1752.2 5202.59 1751.53 5206.36 1751.53C5212.19 1751.53 5216.89 1753 5220.48 1755.94C5224.06 1758.89 5225.98 1762.92 5226.24 1768.04H5217.5C5217.31 1765.29 5216.19 1763.08 5214.14 1761.42C5212.16 1759.75 5209.47 1758.92 5206.08 1758.92C5202.94 1758.92 5200.44 1759.59 5198.59 1760.94C5196.73 1762.28 5195.8 1764.04 5195.8 1766.22C5195.8 1767.94 5196.35 1769.38 5197.44 1770.54C5198.59 1771.62 5200 1772.52 5201.66 1773.22C5203.39 1773.86 5205.76 1774.6 5208.76 1775.43C5212.54 1776.46 5215.61 1777.48 5217.98 1778.5C5220.35 1779.46 5222.36 1780.94 5224.03 1782.92C5225.76 1784.9 5226.65 1787.5 5226.72 1790.7C5226.72 1793.58 5225.92 1796.17 5224.32 1798.47C5222.72 1800.78 5220.44 1802.6 5217.5 1803.94C5214.62 1805.22 5211.29 1805.86 5207.52 1805.86ZM5285.7 1752.39V1805H5276.97V1797.22C5275.3 1799.91 5272.97 1802.02 5269.96 1803.56C5267.02 1805.03 5263.75 1805.77 5260.17 1805.77C5256.07 1805.77 5252.39 1804.94 5249.13 1803.27C5245.86 1801.54 5243.27 1798.98 5241.35 1795.59C5239.5 1792.2 5238.57 1788.07 5238.57 1783.21V1752.39H5247.21V1782.06C5247.21 1787.24 5248.52 1791.24 5251.14 1794.06C5253.77 1796.81 5257.35 1798.18 5261.9 1798.18C5266.57 1798.18 5270.25 1796.74 5272.94 1793.86C5275.62 1790.98 5276.97 1786.79 5276.97 1781.29V1752.39H5285.7ZM5309.19 1762.09C5310.92 1759.08 5313.48 1756.58 5316.87 1754.6C5320.33 1752.55 5324.33 1751.53 5328.87 1751.53C5333.54 1751.53 5337.77 1752.65 5341.54 1754.89C5345.38 1757.13 5348.39 1760.3 5350.57 1764.39C5352.74 1768.42 5353.83 1773.13 5353.83 1778.5C5353.83 1783.82 5352.74 1788.55 5350.57 1792.71C5348.39 1796.87 5345.38 1800.1 5341.54 1802.41C5337.77 1804.71 5333.54 1805.86 5328.87 1805.86C5324.39 1805.86 5320.42 1804.87 5316.97 1802.89C5313.57 1800.84 5310.98 1798.31 5309.19 1795.3V1829.96H5300.45V1752.39H5309.19V1762.09ZM5344.9 1778.5C5344.9 1774.54 5344.1 1771.08 5342.5 1768.14C5340.9 1765.19 5338.73 1762.95 5335.97 1761.42C5333.29 1759.88 5330.31 1759.11 5327.05 1759.11C5323.85 1759.11 5320.87 1759.91 5318.12 1761.51C5315.43 1763.05 5313.25 1765.32 5311.59 1768.33C5309.99 1771.27 5309.19 1774.7 5309.19 1778.6C5309.19 1782.57 5309.99 1786.06 5311.59 1789.06C5313.25 1792.01 5315.43 1794.28 5318.12 1795.88C5320.87 1797.42 5323.85 1798.18 5327.05 1798.18C5330.31 1798.18 5333.29 1797.42 5335.97 1795.88C5338.73 1794.28 5340.9 1792.01 5342.5 1789.06C5344.1 1786.06 5344.9 1782.54 5344.9 1778.5ZM5374.07 1762.09C5375.79 1759.08 5378.35 1756.58 5381.75 1754.6C5385.2 1752.55 5389.2 1751.53 5393.75 1751.53C5398.42 1751.53 5402.64 1752.65 5406.42 1754.89C5410.26 1757.13 5413.27 1760.3 5415.44 1764.39C5417.62 1768.42 5418.71 1773.13 5418.71 1778.5C5418.71 1783.82 5417.62 1788.55 5415.44 1792.71C5413.27 1796.87 5410.26 1800.1 5406.42 1802.41C5402.64 1804.71 5398.42 1805.86 5393.75 1805.86C5389.27 1805.86 5385.3 1804.87 5381.84 1802.89C5378.45 1800.84 5375.86 1798.31 5374.07 1795.3V1829.96H5365.33V1752.39H5374.07V1762.09ZM5409.78 1778.5C5409.78 1774.54 5408.98 1771.08 5407.38 1768.14C5405.78 1765.19 5403.6 1762.95 5400.85 1761.42C5398.16 1759.88 5395.19 1759.11 5391.92 1759.11C5388.72 1759.11 5385.75 1759.91 5382.99 1761.51C5380.31 1763.05 5378.13 1765.32 5376.47 1768.33C5374.87 1771.27 5374.07 1774.7 5374.07 1778.6C5374.07 1782.57 5374.87 1786.06 5376.47 1789.06C5378.13 1792.01 5380.31 1794.28 5382.99 1795.88C5385.75 1797.42 5388.72 1798.18 5391.92 1798.18C5395.19 1798.18 5398.16 1797.42 5400.85 1795.88C5403.6 1794.28 5405.78 1792.01 5407.38 1789.06C5408.98 1786.06 5409.78 1782.54 5409.78 1778.5ZM5453.15 1805.86C5448.22 1805.86 5443.74 1804.74 5439.71 1802.5C5435.74 1800.26 5432.6 1797.1 5430.3 1793C5428.06 1788.84 5426.94 1784.04 5426.94 1778.6C5426.94 1773.22 5428.09 1768.49 5430.4 1764.39C5432.76 1760.23 5435.96 1757.06 5440 1754.89C5444.03 1752.65 5448.54 1751.53 5453.53 1751.53C5458.52 1751.53 5463.04 1752.65 5467.07 1754.89C5471.1 1757.06 5474.27 1760.2 5476.57 1764.3C5478.94 1768.39 5480.12 1773.16 5480.12 1778.6C5480.12 1784.04 5478.91 1788.84 5476.48 1793C5474.11 1797.1 5470.88 1800.26 5466.78 1802.5C5462.68 1804.74 5458.14 1805.86 5453.15 1805.86ZM5453.15 1798.18C5456.28 1798.18 5459.23 1797.45 5461.98 1795.98C5464.73 1794.5 5466.94 1792.3 5468.6 1789.35C5470.33 1786.41 5471.2 1782.82 5471.2 1778.6C5471.2 1774.38 5470.36 1770.79 5468.7 1767.85C5467.04 1764.9 5464.86 1762.73 5462.17 1761.32C5459.48 1759.85 5456.57 1759.11 5453.44 1759.11C5450.24 1759.11 5447.29 1759.85 5444.6 1761.32C5441.98 1762.73 5439.87 1764.9 5438.27 1767.85C5436.67 1770.79 5435.87 1774.38 5435.87 1778.6C5435.87 1782.89 5436.64 1786.5 5438.17 1789.45C5439.77 1792.39 5441.88 1794.6 5444.51 1796.07C5447.13 1797.48 5450.01 1798.18 5453.15 1798.18ZM5500.35 1760.94C5501.88 1757.93 5504.06 1755.59 5506.87 1753.93C5509.75 1752.26 5513.24 1751.43 5517.34 1751.43V1760.46H5515.03C5505.24 1760.46 5500.35 1765.77 5500.35 1776.39V1805H5491.61V1752.39H5500.35V1760.94ZM5538.08 1759.59V1790.6C5538.08 1793.16 5538.62 1794.98 5539.71 1796.07C5540.8 1797.1 5542.69 1797.61 5545.38 1797.61H5551.81V1805H5543.94C5539.07 1805 5535.42 1803.88 5532.99 1801.64C5530.56 1799.4 5529.34 1795.72 5529.34 1790.6V1759.59H5522.53V1752.39H5529.34V1739.14H5538.08V1752.39H5551.81V1759.59H5538.08ZM5610.39 1776.68C5610.39 1778.34 5610.3 1780.1 5610.1 1781.96H5568.06C5568.38 1787.14 5570.14 1791.21 5573.34 1794.15C5576.6 1797.03 5580.54 1798.47 5585.14 1798.47C5588.92 1798.47 5592.06 1797.61 5594.55 1795.88C5597.11 1794.09 5598.9 1791.72 5599.93 1788.78H5609.34C5607.93 1793.83 5605.11 1797.96 5600.89 1801.16C5596.66 1804.3 5591.42 1805.86 5585.14 1805.86C5580.15 1805.86 5575.67 1804.74 5571.7 1802.5C5567.8 1800.26 5564.73 1797.1 5562.49 1793C5560.25 1788.84 5559.13 1784.04 5559.13 1778.6C5559.13 1773.16 5560.22 1768.39 5562.39 1764.3C5564.57 1760.2 5567.61 1757.06 5571.51 1754.89C5575.48 1752.65 5580.02 1751.53 5585.14 1751.53C5590.14 1751.53 5594.55 1752.62 5598.39 1754.79C5602.23 1756.97 5605.18 1759.98 5607.22 1763.82C5609.34 1767.59 5610.39 1771.88 5610.39 1776.68ZM5601.37 1774.86C5601.37 1771.53 5600.63 1768.68 5599.16 1766.31C5597.69 1763.88 5595.67 1762.06 5593.11 1760.84C5590.62 1759.56 5587.83 1758.92 5584.76 1758.92C5580.34 1758.92 5576.57 1760.33 5573.43 1763.14C5570.36 1765.96 5568.6 1769.86 5568.15 1774.86H5601.37ZM5618.66 1778.5C5618.66 1773.13 5619.75 1768.42 5621.92 1764.39C5624.1 1760.3 5627.08 1757.13 5630.85 1754.89C5634.69 1752.65 5638.98 1751.53 5643.72 1751.53C5647.81 1751.53 5651.62 1752.49 5655.14 1754.41C5658.66 1756.26 5661.35 1758.73 5663.2 1761.8V1733.96H5672.04V1805H5663.2V1795.11C5661.48 1798.25 5658.92 1800.84 5655.52 1802.89C5652.13 1804.87 5648.16 1805.86 5643.62 1805.86C5638.95 1805.86 5634.69 1804.71 5630.85 1802.41C5627.08 1800.1 5624.1 1796.87 5621.92 1792.71C5619.75 1788.55 5618.66 1783.82 5618.66 1778.5ZM5663.2 1778.6C5663.2 1774.63 5662.4 1771.18 5660.8 1768.23C5659.2 1765.29 5657.03 1763.05 5654.28 1761.51C5651.59 1759.91 5648.61 1759.11 5645.35 1759.11C5642.08 1759.11 5639.11 1759.88 5636.42 1761.42C5633.73 1762.95 5631.59 1765.19 5629.99 1768.14C5628.39 1771.08 5627.59 1774.54 5627.59 1778.5C5627.59 1782.54 5628.39 1786.06 5629.99 1789.06C5631.59 1792.01 5633.73 1794.28 5636.42 1795.88C5639.11 1797.42 5642.08 1798.18 5645.35 1798.18C5648.61 1798.18 5651.59 1797.42 5654.28 1795.88C5657.03 1794.28 5659.2 1792.01 5660.8 1789.06C5662.4 1786.06 5663.2 1782.57 5663.2 1778.6ZM5721.13 1762.18C5722.92 1759.05 5725.54 1756.49 5729 1754.5C5732.46 1752.52 5736.39 1751.53 5740.81 1751.53C5745.54 1751.53 5749.8 1752.65 5753.58 1754.89C5757.35 1757.13 5760.33 1760.3 5762.5 1764.39C5764.68 1768.42 5765.77 1773.13 5765.77 1778.5C5765.77 1783.82 5764.68 1788.55 5762.5 1792.71C5760.33 1796.87 5757.32 1800.1 5753.48 1802.41C5749.7 1804.71 5745.48 1805.86 5740.81 1805.86C5736.26 1805.86 5732.26 1804.87 5728.81 1802.89C5725.42 1800.9 5722.86 1798.38 5721.13 1795.3V1805H5712.39V1733.96H5721.13V1762.18ZM5756.84 1778.5C5756.84 1774.54 5756.04 1771.08 5754.44 1768.14C5752.84 1765.19 5750.66 1762.95 5747.91 1761.42C5745.22 1759.88 5742.25 1759.11 5738.98 1759.11C5735.78 1759.11 5732.81 1759.91 5730.06 1761.51C5727.37 1763.05 5725.19 1765.32 5723.53 1768.33C5721.93 1771.27 5721.13 1774.7 5721.13 1778.6C5721.13 1782.57 5721.93 1786.06 5723.53 1789.06C5725.19 1792.01 5727.37 1794.28 5730.06 1795.88C5732.81 1797.42 5735.78 1798.18 5738.98 1798.18C5742.25 1798.18 5745.22 1797.42 5747.91 1795.88C5750.66 1794.28 5752.84 1792.01 5754.44 1789.06C5756.04 1786.06 5756.84 1782.54 5756.84 1778.5ZM5822.58 1752.39L5790.9 1829.77H5781.88L5792.24 1804.42L5771.03 1752.39H5780.72L5797.24 1795.02L5813.56 1752.39H5822.58ZM5920.22 1751.43C5924.31 1751.43 5927.96 1752.3 5931.16 1754.02C5934.36 1755.69 5936.89 1758.22 5938.75 1761.61C5940.6 1765 5941.53 1769.13 5941.53 1773.99V1805H5932.89V1775.24C5932.89 1769.99 5931.58 1765.99 5928.95 1763.24C5926.39 1760.42 5922.91 1759.02 5918.49 1759.02C5913.95 1759.02 5910.33 1760.49 5907.64 1763.43C5904.95 1766.31 5903.61 1770.5 5903.61 1776.01V1805H5894.97V1775.24C5894.97 1769.99 5893.66 1765.99 5891.03 1763.24C5888.47 1760.42 5884.99 1759.02 5880.57 1759.02C5876.03 1759.02 5872.41 1760.49 5869.72 1763.43C5867.03 1766.31 5865.69 1770.5 5865.69 1776.01V1805H5856.95V1752.39H5865.69V1759.98C5867.42 1757.22 5869.72 1755.11 5872.6 1753.64C5875.55 1752.17 5878.78 1751.43 5882.3 1751.43C5886.71 1751.43 5890.62 1752.42 5894.01 1754.41C5897.4 1756.39 5899.93 1759.3 5901.59 1763.14C5903.07 1759.43 5905.5 1756.55 5908.89 1754.5C5912.28 1752.46 5916.06 1751.43 5920.22 1751.43ZM5952.6 1778.5C5952.6 1773.13 5953.68 1768.42 5955.86 1764.39C5958.04 1760.3 5961.01 1757.13 5964.79 1754.89C5968.63 1752.65 5972.88 1751.53 5977.56 1751.53C5982.16 1751.53 5986.16 1752.52 5989.56 1754.5C5992.95 1756.49 5995.48 1758.98 5997.14 1761.99V1752.39H6005.97V1805H5997.14V1795.21C5995.41 1798.28 5992.82 1800.84 5989.36 1802.89C5985.97 1804.87 5982 1805.86 5977.46 1805.86C5972.79 1805.86 5968.56 1804.71 5964.79 1802.41C5961.01 1800.1 5958.04 1796.87 5955.86 1792.71C5953.68 1788.55 5952.6 1783.82 5952.6 1778.5ZM5997.14 1778.6C5997.14 1774.63 5996.34 1771.18 5994.74 1768.23C5993.14 1765.29 5990.96 1763.05 5988.21 1761.51C5985.52 1759.91 5982.55 1759.11 5979.28 1759.11C5976.02 1759.11 5973.04 1759.88 5970.36 1761.42C5967.67 1762.95 5965.52 1765.19 5963.92 1768.14C5962.32 1771.08 5961.52 1774.54 5961.52 1778.5C5961.52 1782.54 5962.32 1786.06 5963.92 1789.06C5965.52 1792.01 5967.67 1794.28 5970.36 1795.88C5973.04 1797.42 5976.02 1798.18 5979.28 1798.18C5982.55 1798.18 5985.52 1797.42 5988.21 1795.88C5990.96 1794.28 5993.14 1792.01 5994.74 1789.06C5996.34 1786.06 5997.14 1782.57 5997.14 1778.6ZM6025.25 1743.85C6023.58 1743.85 6022.18 1743.27 6021.02 1742.12C6019.87 1740.97 6019.3 1739.56 6019.3 1737.9C6019.3 1736.23 6019.87 1734.82 6021.02 1733.67C6022.18 1732.52 6023.58 1731.94 6025.25 1731.94C6026.85 1731.94 6028.19 1732.52 6029.28 1733.67C6030.43 1734.82 6031.01 1736.23 6031.01 1737.9C6031.01 1739.56 6030.43 1740.97 6029.28 1742.12C6028.19 1743.27 6026.85 1743.85 6025.25 1743.85ZM6029.47 1752.39V1805H6020.74V1752.39H6029.47ZM6069.99 1751.43C6076.39 1751.43 6081.58 1753.38 6085.54 1757.29C6089.51 1761.13 6091.5 1766.7 6091.5 1773.99V1805H6082.86V1775.24C6082.86 1769.99 6081.54 1765.99 6078.92 1763.24C6076.3 1760.42 6072.71 1759.02 6068.17 1759.02C6063.56 1759.02 6059.88 1760.46 6057.13 1763.34C6054.44 1766.22 6053.1 1770.41 6053.1 1775.91V1805H6044.36V1752.39H6053.1V1759.88C6054.82 1757.19 6057.16 1755.11 6060.1 1753.64C6063.11 1752.17 6066.41 1751.43 6069.99 1751.43ZM6116.42 1759.59V1790.6C6116.42 1793.16 6116.97 1794.98 6118.06 1796.07C6119.14 1797.1 6121.03 1797.61 6123.72 1797.61H6130.15V1805H6122.28C6117.42 1805 6113.77 1803.88 6111.34 1801.64C6108.9 1799.4 6107.69 1795.72 6107.69 1790.6V1759.59H6100.87V1752.39H6107.69V1739.14H6116.42V1752.39H6130.15V1759.59H6116.42ZM6137.47 1778.5C6137.47 1773.13 6138.56 1768.42 6140.74 1764.39C6142.91 1760.3 6145.89 1757.13 6149.66 1754.89C6153.5 1752.65 6157.76 1751.53 6162.43 1751.53C6167.04 1751.53 6171.04 1752.52 6174.43 1754.5C6177.82 1756.49 6180.35 1758.98 6182.02 1761.99V1752.39H6190.85V1805H6182.02V1795.21C6180.29 1798.28 6177.7 1800.84 6174.24 1802.89C6170.85 1804.87 6166.88 1805.86 6162.34 1805.86C6157.66 1805.86 6153.44 1804.71 6149.66 1802.41C6145.89 1800.1 6142.91 1796.87 6140.74 1792.71C6138.56 1788.55 6137.47 1783.82 6137.47 1778.5ZM6182.02 1778.6C6182.02 1774.63 6181.22 1771.18 6179.62 1768.23C6178.02 1765.29 6175.84 1763.05 6173.09 1761.51C6170.4 1759.91 6167.42 1759.11 6164.16 1759.11C6160.9 1759.11 6157.92 1759.88 6155.23 1761.42C6152.54 1762.95 6150.4 1765.19 6148.8 1768.14C6147.2 1771.08 6146.4 1774.54 6146.4 1778.5C6146.4 1782.54 6147.2 1786.06 6148.8 1789.06C6150.4 1792.01 6152.54 1794.28 6155.23 1795.88C6157.92 1797.42 6160.9 1798.18 6164.16 1798.18C6167.42 1798.18 6170.4 1797.42 6173.09 1795.88C6175.84 1794.28 6178.02 1792.01 6179.62 1789.06C6181.22 1786.06 6182.02 1782.57 6182.02 1778.6ZM6210.12 1743.85C6208.46 1743.85 6207.05 1743.27 6205.9 1742.12C6204.75 1740.97 6204.17 1739.56 6204.17 1737.9C6204.17 1736.23 6204.75 1734.82 6205.9 1733.67C6207.05 1732.52 6208.46 1731.94 6210.12 1731.94C6211.72 1731.94 6213.07 1732.52 6214.15 1733.67C6215.31 1734.82 6215.88 1736.23 6215.88 1737.9C6215.88 1739.56 6215.31 1740.97 6214.15 1742.12C6213.07 1743.27 6211.72 1743.85 6210.12 1743.85ZM6214.35 1752.39V1805H6205.61V1752.39H6214.35ZM6254.87 1751.43C6261.27 1751.43 6266.45 1753.38 6270.42 1757.29C6274.39 1761.13 6276.37 1766.7 6276.37 1773.99V1805H6267.73V1775.24C6267.73 1769.99 6266.42 1765.99 6263.8 1763.24C6261.17 1760.42 6257.59 1759.02 6253.04 1759.02C6248.44 1759.02 6244.76 1760.46 6242 1763.34C6239.32 1766.22 6237.97 1770.41 6237.97 1775.91V1805H6229.24V1752.39H6237.97V1759.88C6239.7 1757.19 6242.04 1755.11 6244.98 1753.64C6247.99 1752.17 6251.28 1751.43 6254.87 1751.43ZM6338.64 1776.68C6338.64 1778.34 6338.55 1780.1 6338.35 1781.96H6296.31C6296.63 1787.14 6298.39 1791.21 6301.59 1794.15C6304.85 1797.03 6308.79 1798.47 6313.39 1798.47C6317.17 1798.47 6320.31 1797.61 6322.8 1795.88C6325.36 1794.09 6327.15 1791.72 6328.18 1788.78H6337.59C6336.18 1793.83 6333.36 1797.96 6329.14 1801.16C6324.91 1804.3 6319.67 1805.86 6313.39 1805.86C6308.4 1805.86 6303.92 1804.74 6299.95 1802.5C6296.05 1800.26 6292.98 1797.1 6290.74 1793C6288.5 1788.84 6287.38 1784.04 6287.38 1778.6C6287.38 1773.16 6288.47 1768.39 6290.64 1764.3C6292.82 1760.2 6295.86 1757.06 6299.76 1754.89C6303.73 1752.65 6308.27 1751.53 6313.39 1751.53C6318.39 1751.53 6322.8 1752.62 6326.64 1754.79C6330.48 1756.97 6333.43 1759.98 6335.47 1763.82C6337.59 1767.59 6338.64 1771.88 6338.64 1776.68ZM6329.62 1774.86C6329.62 1771.53 6328.88 1768.68 6327.41 1766.31C6325.94 1763.88 6323.92 1762.06 6321.36 1760.84C6318.87 1759.56 6316.08 1758.92 6313.01 1758.92C6308.59 1758.92 6304.82 1760.33 6301.68 1763.14C6298.61 1765.96 6296.85 1769.86 6296.4 1774.86H6329.62ZM6358.91 1760.94C6360.45 1757.93 6362.62 1755.59 6365.44 1753.93C6368.32 1752.26 6371.81 1751.43 6375.9 1751.43V1760.46H6373.6C6363.81 1760.46 6358.91 1765.77 6358.91 1776.39V1805H6350.17V1752.39H6358.91V1760.94ZM6408.45 1822.86C6402.31 1816.84 6397.51 1809.19 6394.05 1799.91C6390.66 1790.63 6388.96 1780.62 6388.96 1769.86C6388.96 1758.86 6390.75 1748.58 6394.34 1739.05C6397.99 1729.45 6403.17 1721.54 6409.89 1715.34H6419.01V1716.2C6411.84 1722.92 6406.43 1731.02 6402.79 1740.49C6399.2 1749.9 6397.41 1759.69 6397.41 1769.86C6397.41 1779.78 6399.11 1789.26 6402.5 1798.28C6405.95 1807.3 6410.98 1815.21 6417.57 1821.99V1822.86H6408.45ZM6448.2 1805.86C6444.17 1805.86 6440.56 1805.19 6437.36 1803.85C6434.16 1802.44 6431.63 1800.52 6429.77 1798.09C6427.92 1795.59 6426.89 1792.74 6426.7 1789.54H6435.72C6435.98 1792.17 6437.2 1794.31 6439.37 1795.98C6441.61 1797.64 6444.52 1798.47 6448.11 1798.47C6451.44 1798.47 6454.06 1797.74 6455.98 1796.26C6457.9 1794.79 6458.86 1792.94 6458.86 1790.7C6458.86 1788.39 6457.84 1786.7 6455.79 1785.61C6453.74 1784.46 6450.57 1783.34 6446.28 1782.25C6442.38 1781.22 6439.18 1780.2 6436.68 1779.18C6434.25 1778.09 6432.14 1776.52 6430.35 1774.47C6428.62 1772.36 6427.76 1769.61 6427.76 1766.22C6427.76 1763.53 6428.56 1761.06 6430.16 1758.82C6431.76 1756.58 6434.03 1754.82 6436.97 1753.54C6439.92 1752.2 6443.28 1751.53 6447.05 1751.53C6452.88 1751.53 6457.58 1753 6461.16 1755.94C6464.75 1758.89 6466.67 1762.92 6466.92 1768.04H6458.19C6458 1765.29 6456.88 1763.08 6454.83 1761.42C6452.84 1759.75 6450.16 1758.92 6446.76 1758.92C6443.63 1758.92 6441.13 1759.59 6439.28 1760.94C6437.42 1762.28 6436.49 1764.04 6436.49 1766.22C6436.49 1767.94 6437.04 1769.38 6438.12 1770.54C6439.28 1771.62 6440.68 1772.52 6442.35 1773.22C6444.08 1773.86 6446.44 1774.6 6449.45 1775.43C6453.23 1776.46 6456.3 1777.48 6458.67 1778.5C6461.04 1779.46 6463.05 1780.94 6464.72 1782.92C6466.44 1784.9 6467.34 1787.5 6467.4 1790.7C6467.4 1793.58 6466.6 1796.17 6465 1798.47C6463.4 1800.78 6461.13 1802.6 6458.19 1803.94C6455.31 1805.22 6451.98 1805.86 6448.2 1805.86ZM6476.95 1822.86V1821.99C6483.54 1815.21 6488.54 1807.3 6491.93 1798.28C6495.38 1789.26 6497.11 1779.78 6497.11 1769.86C6497.11 1759.69 6495.29 1749.9 6491.64 1740.49C6488.06 1731.02 6482.68 1722.92 6475.51 1716.2V1715.34H6484.63C6491.35 1721.54 6496.5 1729.45 6500.09 1739.05C6503.74 1748.58 6505.56 1758.86 6505.56 1769.86C6505.56 1780.62 6503.83 1790.63 6500.38 1799.91C6496.98 1809.19 6492.22 1816.84 6486.07 1822.86H6476.95ZM6619 1752.39L6602.59 1805H6593.56L6580.89 1763.24L6568.22 1805H6559.2L6542.68 1752.39H6551.61L6563.71 1796.55L6576.76 1752.39H6585.69L6598.46 1796.65L6610.36 1752.39H6619ZM6632.19 1743.85C6630.52 1743.85 6629.11 1743.27 6627.96 1742.12C6626.81 1740.97 6626.23 1739.56 6626.23 1737.9C6626.23 1736.23 6626.81 1734.82 6627.96 1733.67C6629.11 1732.52 6630.52 1731.94 6632.19 1731.94C6633.79 1731.94 6635.13 1732.52 6636.22 1733.67C6637.37 1734.82 6637.95 1736.23 6637.95 1737.9C6637.95 1739.56 6637.37 1740.97 6636.22 1742.12C6635.13 1743.27 6633.79 1743.85 6632.19 1743.85ZM6636.41 1752.39V1805H6627.67V1752.39H6636.41ZM6661.95 1759.59V1790.6C6661.95 1793.16 6662.5 1794.98 6663.59 1796.07C6664.67 1797.1 6666.56 1797.61 6669.25 1797.61H6675.68V1805H6667.81C6662.95 1805 6659.3 1803.88 6656.87 1801.64C6654.43 1799.4 6653.22 1795.72 6653.22 1790.6V1759.59H6646.4V1752.39H6653.22V1739.14H6661.95V1752.39H6675.68V1759.59H6661.95ZM6712.38 1751.43C6716.35 1751.43 6719.93 1752.3 6723.13 1754.02C6726.33 1755.69 6728.83 1758.22 6730.62 1761.61C6732.48 1765 6733.4 1769.13 6733.4 1773.99V1805H6724.76V1775.24C6724.76 1769.99 6723.45 1765.99 6720.83 1763.24C6718.2 1760.42 6714.62 1759.02 6710.08 1759.02C6705.47 1759.02 6701.79 1760.46 6699.04 1763.34C6696.35 1766.22 6695 1770.41 6695 1775.91V1805H6686.27V1733.96H6695V1759.88C6696.73 1757.19 6699.1 1755.11 6702.11 1753.64C6705.18 1752.17 6708.6 1751.43 6712.38 1751.43ZM6752.19 1743.85C6750.52 1743.85 6749.11 1743.27 6747.96 1742.12C6746.81 1740.97 6746.23 1739.56 6746.23 1737.9C6746.23 1736.23 6746.81 1734.82 6747.96 1733.67C6749.11 1732.52 6750.52 1731.94 6752.19 1731.94C6753.79 1731.94 6755.13 1732.52 6756.22 1733.67C6757.37 1734.82 6757.95 1736.23 6757.95 1737.9C6757.95 1739.56 6757.37 1740.97 6756.22 1742.12C6755.13 1743.27 6753.79 1743.85 6752.19 1743.85ZM6756.41 1752.39V1805H6747.67V1752.39H6756.41ZM6796.93 1751.43C6803.33 1751.43 6808.51 1753.38 6812.48 1757.29C6816.45 1761.13 6818.43 1766.7 6818.43 1773.99V1805H6809.79V1775.24C6809.79 1769.99 6808.48 1765.99 6805.86 1763.24C6803.23 1760.42 6799.65 1759.02 6795.11 1759.02C6790.5 1759.02 6786.82 1760.46 6784.07 1763.34C6781.38 1766.22 6780.03 1770.41 6780.03 1775.91V1805H6771.3V1752.39H6780.03V1759.88C6781.76 1757.19 6784.1 1755.11 6787.04 1753.64C6790.05 1752.17 6793.35 1751.43 6796.93 1751.43ZM7321.77 1805.58C7320.11 1805.58 7318.7 1805 7317.55 1803.85C7316.39 1802.7 7315.82 1801.29 7315.82 1799.62C7315.82 1797.96 7316.39 1796.55 7317.55 1795.4C7318.7 1794.25 7320.11 1793.67 7321.77 1793.67C7323.37 1793.67 7324.71 1794.25 7325.8 1795.4C7326.95 1796.55 7327.53 1797.96 7327.53 1799.62C7327.53 1801.29 7326.95 1802.7 7325.8 1803.85C7324.71 1805 7323.37 1805.58 7321.77 1805.58Z" fill="black"/>
<path d="M265 1579C265 1543.65 293.654 1515 329 1515H2180.89V2027H329C293.654 2027 265 1998.35 265 1963V1579Z" fill="#313FB9"/>
<path d="M1820.28 1785.72V1803.12H1809.84C1802.4 1803.12 1796.6 1801.32 1792.44 1797.72C1788.28 1794.04 1786.2 1788.08 1786.2 1779.84V1753.2H1778.04V1736.16H1786.2V1719.84H1806.72V1736.16H1820.16V1753.2H1806.72V1780.08C1806.72 1782.08 1807.2 1783.52 1808.16 1784.4C1809.12 1785.28 1810.72 1785.72 1812.96 1785.72H1820.28Z" fill="white"/>
<path d="M1706.22 1769.64C1706.22 1762.68 1707.62 1756.6 1710.42 1751.4C1713.3 1746.2 1717.26 1742.2 1722.3 1739.4C1727.42 1736.6 1733.26 1735.2 1739.82 1735.2C1748.22 1735.2 1755.22 1737.4 1760.82 1741.8C1766.5 1746.2 1770.22 1752.4 1771.98 1760.4H1750.14C1748.3 1755.28 1744.74 1752.72 1739.46 1752.72C1735.7 1752.72 1732.7 1754.2 1730.46 1757.16C1728.22 1760.04 1727.1 1764.2 1727.1 1769.64C1727.1 1775.08 1728.22 1779.28 1730.46 1782.24C1732.7 1785.12 1735.7 1786.56 1739.46 1786.56C1744.74 1786.56 1748.3 1784 1750.14 1778.88H1771.98C1770.22 1786.72 1766.5 1792.88 1760.82 1797.36C1755.14 1801.84 1748.14 1804.08 1739.82 1804.08C1733.26 1804.08 1727.42 1802.68 1722.3 1799.88C1717.26 1797.08 1713.3 1793.08 1710.42 1787.88C1707.62 1782.68 1706.22 1776.6 1706.22 1769.64Z" fill="white"/>
<path d="M1699.47 1768.56C1699.47 1770.48 1699.35 1772.48 1699.11 1774.56H1652.67C1652.99 1778.72 1654.31 1781.92 1656.63 1784.16C1659.03 1786.32 1661.95 1787.4 1665.39 1787.4C1670.51 1787.4 1674.07 1785.24 1676.07 1780.92H1697.91C1696.79 1785.32 1694.75 1789.28 1691.79 1792.8C1688.91 1796.32 1685.27 1799.08 1680.87 1801.08C1676.47 1803.08 1671.55 1804.08 1666.11 1804.08C1659.55 1804.08 1653.71 1802.68 1648.59 1799.88C1643.47 1797.08 1639.47 1793.08 1636.59 1787.88C1633.71 1782.68 1632.27 1776.6 1632.27 1769.64C1632.27 1762.68 1633.67 1756.6 1636.47 1751.4C1639.35 1746.2 1643.35 1742.2 1648.47 1739.4C1653.59 1736.6 1659.47 1735.2 1666.11 1735.2C1672.59 1735.2 1678.35 1736.56 1683.39 1739.28C1688.43 1742 1692.35 1745.88 1695.15 1750.92C1698.03 1755.96 1699.47 1761.84 1699.47 1768.56ZM1678.47 1763.16C1678.47 1759.64 1677.27 1756.84 1674.87 1754.76C1672.47 1752.68 1669.47 1751.64 1665.87 1751.64C1662.43 1751.64 1659.51 1752.64 1657.11 1754.64C1654.79 1756.64 1653.35 1759.48 1652.79 1763.16H1678.47Z" fill="white"/>
<path d="M1611.28 1729.2C1607.68 1729.2 1604.72 1728.16 1602.4 1726.08C1600.16 1723.92 1599.04 1721.28 1599.04 1718.16C1599.04 1714.96 1600.16 1712.32 1602.4 1710.24C1604.72 1708.08 1607.68 1707 1611.28 1707C1614.8 1707 1617.68 1708.08 1619.92 1710.24C1622.24 1712.32 1623.4 1714.96 1623.4 1718.16C1623.4 1721.28 1622.24 1723.92 1619.92 1726.08C1617.68 1728.16 1614.8 1729.2 1611.28 1729.2ZM1621.6 1811.76C1621.6 1820 1619.52 1825.92 1615.36 1829.52C1611.2 1833.2 1605.4 1835.04 1597.96 1835.04H1589.92V1817.64H1594.84C1597.08 1817.64 1598.68 1817.2 1599.64 1816.32C1600.6 1815.44 1601.08 1814 1601.08 1812V1736.16H1621.6V1811.76Z" fill="white"/>
<path d="M1555.16 1804.08C1548.6 1804.08 1542.68 1802.68 1537.4 1799.88C1532.2 1797.08 1528.08 1793.08 1525.04 1787.88C1522.08 1782.68 1520.6 1776.6 1520.6 1769.64C1520.6 1762.76 1522.12 1756.72 1525.16 1751.52C1528.2 1746.24 1532.36 1742.2 1537.64 1739.4C1542.92 1736.6 1548.84 1735.2 1555.4 1735.2C1561.96 1735.2 1567.88 1736.6 1573.16 1739.4C1578.44 1742.2 1582.6 1746.24 1585.64 1751.52C1588.68 1756.72 1590.2 1762.76 1590.2 1769.64C1590.2 1776.52 1588.64 1782.6 1585.52 1787.88C1582.48 1793.08 1578.28 1797.08 1572.92 1799.88C1567.64 1802.68 1561.72 1804.08 1555.16 1804.08ZM1555.16 1786.32C1559.08 1786.32 1562.4 1784.88 1565.12 1782C1567.92 1779.12 1569.32 1775 1569.32 1769.64C1569.32 1764.28 1567.96 1760.16 1565.24 1757.28C1562.6 1754.4 1559.32 1752.96 1555.4 1752.96C1551.4 1752.96 1548.08 1754.4 1545.44 1757.28C1542.8 1760.08 1541.48 1764.2 1541.48 1769.64C1541.48 1775 1542.76 1779.12 1545.32 1782C1547.96 1784.88 1551.24 1786.32 1555.16 1786.32Z" fill="white"/>
<path d="M1493.87 1747.32C1496.27 1743.64 1499.27 1740.76 1502.87 1738.68C1506.47 1736.52 1510.47 1735.44 1514.87 1735.44V1757.16H1509.23C1504.11 1757.16 1500.27 1758.28 1497.71 1760.52C1495.15 1762.68 1493.87 1766.52 1493.87 1772.04V1803.12H1473.35V1736.16H1493.87V1747.32Z" fill="white"/>
<path d="M1462.66 1746C1462.66 1750.88 1461.54 1755.36 1459.3 1759.44C1457.06 1763.44 1453.62 1766.68 1448.98 1769.16C1444.34 1771.64 1438.58 1772.88 1431.7 1772.88H1418.98V1803.12H1398.46V1718.88H1431.7C1438.42 1718.88 1444.1 1720.04 1448.74 1722.36C1453.38 1724.68 1456.86 1727.88 1459.18 1731.96C1461.5 1736.04 1462.66 1740.72 1462.66 1746ZM1430.14 1756.56C1434.06 1756.56 1436.98 1755.64 1438.9 1753.8C1440.82 1751.96 1441.78 1749.36 1441.78 1746C1441.78 1742.64 1440.82 1740.04 1438.9 1738.2C1436.98 1736.36 1434.06 1735.44 1430.14 1735.44H1418.98V1756.56H1430.14Z" fill="white"/>
<path d="M1365.61 1736.16L1323.61 1834.92H1301.53L1316.89 1800.84L1289.65 1736.16H1312.57L1328.05 1778.04L1343.41 1736.16H1365.61Z" fill="white"/>
<path d="M1285.78 1785.72V1803.12H1275.34C1267.9 1803.12 1262.1 1801.32 1257.94 1797.72C1253.78 1794.04 1251.7 1788.08 1251.7 1779.84V1753.2H1243.54V1736.16H1251.7V1719.84H1272.22V1736.16H1285.66V1753.2H1272.22V1780.08C1272.22 1782.08 1272.7 1783.52 1273.66 1784.4C1274.62 1785.28 1276.22 1785.72 1278.46 1785.72H1285.78Z" fill="white"/>
<path d="M1223.39 1729.2C1219.79 1729.2 1216.83 1728.16 1214.51 1726.08C1212.27 1723.92 1211.15 1721.28 1211.15 1718.16C1211.15 1714.96 1212.27 1712.32 1214.51 1710.24C1216.83 1708.08 1219.79 1707 1223.39 1707C1226.91 1707 1229.79 1708.08 1232.03 1710.24C1234.35 1712.32 1235.51 1714.96 1235.51 1718.16C1235.51 1721.28 1234.35 1723.92 1232.03 1726.08C1229.79 1728.16 1226.91 1729.2 1223.39 1729.2ZM1233.59 1736.16V1803.12H1213.07V1736.16H1233.59Z" fill="white"/>
<path d="M1173.01 1735.44C1180.85 1735.44 1187.09 1738 1191.73 1743.12C1196.45 1748.16 1198.81 1755.12 1198.81 1764V1803.12H1178.41V1766.76C1178.41 1762.28 1177.25 1758.8 1174.93 1756.32C1172.61 1753.84 1169.49 1752.6 1165.57 1752.6C1161.65 1752.6 1158.53 1753.84 1156.21 1756.32C1153.89 1758.8 1152.73 1762.28 1152.73 1766.76V1803.12H1132.21V1736.16H1152.73V1745.04C1154.81 1742.08 1157.61 1739.76 1161.13 1738.08C1164.65 1736.32 1168.61 1735.44 1173.01 1735.44Z" fill="white"/>
<path d="M1117.47 1736.16V1803.12H1096.95V1794C1094.87 1796.96 1092.03 1799.36 1088.43 1801.2C1084.91 1802.96 1080.99 1803.84 1076.67 1803.84C1071.55 1803.84 1067.03 1802.72 1063.11 1800.48C1059.19 1798.16 1056.15 1794.84 1053.99 1790.52C1051.83 1786.2 1050.75 1781.12 1050.75 1775.28V1736.16H1071.15V1772.52C1071.15 1777 1072.31 1780.48 1074.63 1782.96C1076.95 1785.44 1080.07 1786.68 1083.99 1786.68C1087.99 1786.68 1091.15 1785.44 1093.47 1782.96C1095.79 1780.48 1096.95 1777 1096.95 1772.52V1736.16H1117.47Z" fill="white"/>
<path d="M1009.76 1735.44C1018.08 1735.44 1024.68 1737.96 1029.56 1743C1034.52 1748.04 1037 1755.04 1037 1764V1803.12H1016.6V1766.76C1016.6 1762.44 1015.44 1759.12 1013.12 1756.8C1010.88 1754.4 1007.76 1753.2 1003.76 1753.2C999.764 1753.2 996.604 1754.4 994.284 1756.8C992.044 1759.12 990.924 1762.44 990.924 1766.76V1803.12H970.524V1766.76C970.524 1762.44 969.364 1759.12 967.044 1756.8C964.804 1754.4 961.684 1753.2 957.684 1753.2C953.684 1753.2 950.524 1754.4 948.204 1756.8C945.964 1759.12 944.844 1762.44 944.844 1766.76V1803.12H924.324V1736.16H944.844V1744.56C946.924 1741.76 949.644 1739.56 953.004 1737.96C956.364 1736.28 960.164 1735.44 964.404 1735.44C969.444 1735.44 973.924 1736.52 977.844 1738.68C981.844 1740.84 984.964 1743.92 987.204 1747.92C989.524 1744.24 992.684 1741.24 996.684 1738.92C1000.68 1736.6 1005.04 1735.44 1009.76 1735.44Z" fill="white"/>
<path d="M882.732 1735.44C891.052 1735.44 897.652 1737.96 902.533 1743C907.492 1748.04 909.972 1755.04 909.972 1764V1803.12H889.572V1766.76C889.572 1762.44 888.412 1759.12 886.092 1756.8C883.852 1754.4 880.732 1753.2 876.732 1753.2C872.732 1753.2 869.572 1754.4 867.252 1756.8C865.012 1759.12 863.892 1762.44 863.892 1766.76V1803.12H843.492V1766.76C843.492 1762.44 842.332 1759.12 840.012 1756.8C837.772 1754.4 834.652 1753.2 830.652 1753.2C826.652 1753.2 823.492 1754.4 821.172 1756.8C818.932 1759.12 817.812 1762.44 817.812 1766.76V1803.12H797.292V1736.16H817.812V1744.56C819.892 1741.76 822.612 1739.56 825.972 1737.96C829.332 1736.28 833.132 1735.44 837.372 1735.44C842.412 1735.44 846.892 1736.52 850.812 1738.68C854.812 1740.84 857.932 1743.92 860.172 1747.92C862.492 1744.24 865.652 1741.24 869.652 1738.92C873.652 1736.6 878.012 1735.44 882.732 1735.44Z" fill="white"/>
<path d="M751.366 1804.08C744.806 1804.08 738.886 1802.68 733.606 1799.88C728.406 1797.08 724.286 1793.08 721.246 1787.88C718.286 1782.68 716.806 1776.6 716.806 1769.64C716.806 1762.76 718.326 1756.72 721.366 1751.52C724.406 1746.24 728.566 1742.2 733.846 1739.4C739.126 1736.6 745.046 1735.2 751.606 1735.2C758.166 1735.2 764.086 1736.6 769.366 1739.4C774.646 1742.2 778.806 1746.24 781.846 1751.52C784.886 1756.72 786.406 1762.76 786.406 1769.64C786.406 1776.52 784.846 1782.6 781.726 1787.88C778.686 1793.08 774.486 1797.08 769.126 1799.88C763.846 1802.68 757.926 1804.08 751.366 1804.08ZM751.366 1786.32C755.286 1786.32 758.606 1784.88 761.326 1782C764.126 1779.12 765.526 1775 765.526 1769.64C765.526 1764.28 764.166 1760.16 761.446 1757.28C758.806 1754.4 755.526 1752.96 751.606 1752.96C747.606 1752.96 744.286 1754.4 741.646 1757.28C739.006 1760.08 737.686 1764.2 737.686 1769.64C737.686 1775 738.966 1779.12 741.526 1782C744.166 1784.88 747.446 1786.32 751.366 1786.32Z" fill="white"/>
<path d="M626 1760.88C626 1752.56 627.8 1745.16 631.4 1738.68C635 1732.12 640 1727.04 646.4 1723.44C652.88 1719.76 660.2 1717.92 668.36 1717.92C678.36 1717.92 686.92 1720.56 694.04 1725.84C701.16 1731.12 705.92 1738.32 708.32 1747.44H685.76C684.08 1743.92 681.68 1741.24 678.56 1739.4C675.52 1737.56 672.04 1736.64 668.12 1736.64C661.8 1736.64 656.68 1738.84 652.76 1743.24C648.84 1747.64 646.88 1753.52 646.88 1760.88C646.88 1768.24 648.84 1774.12 652.76 1778.52C656.68 1782.92 661.8 1785.12 668.12 1785.12C672.04 1785.12 675.52 1784.2 678.56 1782.36C681.68 1780.52 684.08 1777.84 685.76 1774.32H708.32C705.92 1783.44 701.16 1790.64 694.04 1795.92C686.92 1801.12 678.36 1803.72 668.36 1803.72C660.2 1803.72 652.88 1801.92 646.4 1798.32C640 1794.64 635 1789.56 631.4 1783.08C627.8 1776.6 626 1769.2 626 1760.88Z" fill="white"/>
<path d="M6171.33 1168.88C6171.33 1173.05 6171.06 1176.81 6170.52 1180.17H6085.62C6086.29 1189.05 6089.58 1196.17 6095.5 1201.55C6101.42 1206.93 6108.68 1209.62 6117.28 1209.62C6129.65 1209.62 6138.39 1204.44 6143.5 1194.09H6168.3C6164.94 1204.31 6158.82 1212.71 6149.95 1219.3C6141.21 1225.75 6130.32 1228.98 6117.28 1228.98C6106.66 1228.98 6097.11 1226.62 6088.64 1221.92C6080.31 1217.08 6073.72 1210.36 6068.88 1201.75C6064.18 1193.01 6061.82 1182.93 6061.82 1171.5C6061.82 1160.07 6064.11 1150.06 6068.68 1141.45C6073.38 1132.71 6079.9 1125.99 6088.24 1121.29C6096.71 1116.58 6106.39 1114.23 6117.28 1114.23C6127.77 1114.23 6137.11 1116.51 6145.31 1121.09C6153.51 1125.66 6159.9 1132.11 6164.47 1140.45C6169.04 1148.65 6171.33 1158.12 6171.33 1168.88ZM6147.33 1161.62C6147.19 1153.15 6144.17 1146.36 6138.25 1141.25C6132.34 1136.14 6125.01 1133.59 6116.27 1133.59C6108.34 1133.59 6101.55 1136.14 6095.9 1141.25C6090.26 1146.23 6086.9 1153.02 6085.82 1161.62H6147.33Z" fill="black"/>
<path d="M5940.9 1171.5C5940.9 1160.07 5943.19 1150.06 5947.76 1141.45C5952.47 1132.71 5958.92 1125.99 5967.12 1121.29C5975.32 1116.58 5984.73 1114.23 5995.35 1114.23C6008.8 1114.23 6019.89 1117.46 6028.63 1123.91C6037.5 1130.23 6043.48 1139.3 6046.57 1151.13H6021.77C6019.75 1145.62 6016.53 1141.32 6012.09 1138.23C6007.65 1135.13 6002.07 1133.59 5995.35 1133.59C5985.94 1133.59 5978.41 1136.95 5972.77 1143.67C5967.25 1150.26 5964.5 1159.54 5964.5 1171.5C5964.5 1183.47 5967.25 1192.81 5972.77 1199.53C5978.41 1206.25 5985.94 1209.62 5995.35 1209.62C6008.66 1209.62 6017.47 1203.77 6021.77 1192.07H6046.57C6043.35 1203.36 6037.3 1212.37 6028.43 1219.09C6019.55 1225.68 6008.53 1228.98 5995.35 1228.98C5984.73 1228.98 5975.32 1226.62 5967.12 1221.92C5958.92 1217.08 5952.47 1210.36 5947.76 1201.75C5943.19 1193.01 5940.9 1182.93 5940.9 1171.5Z" fill="black"/>
<path d="M5894.16 1132.18C5897.52 1126.53 5901.96 1122.16 5907.47 1119.07C5913.12 1115.84 5919.77 1114.23 5927.43 1114.23V1138.03H5921.59C5912.58 1138.03 5905.72 1140.31 5901.02 1144.88C5896.45 1149.45 5894.16 1157.38 5894.16 1168.68V1227.16H5871.17V1116.04H5894.16V1132.18Z" fill="black"/>
<path d="M5840.84 1116.04V1227.16H5817.85V1214.05C5814.22 1218.62 5809.45 1222.25 5803.53 1224.94C5797.75 1227.5 5791.56 1228.77 5784.98 1228.77C5776.24 1228.77 5768.37 1226.96 5761.38 1223.33C5754.53 1219.7 5749.08 1214.32 5745.05 1207.2C5741.15 1200.07 5739.2 1191.47 5739.2 1181.38V1116.04H5761.99V1177.95C5761.99 1187.9 5764.47 1195.57 5769.45 1200.94C5774.42 1206.19 5781.21 1208.81 5789.82 1208.81C5798.42 1208.81 5805.21 1206.19 5810.18 1200.94C5815.29 1195.57 5817.85 1187.9 5817.85 1177.95V1116.04H5840.84Z" fill="black"/>
<path d="M5659.81 1228.98C5649.32 1228.98 5639.84 1226.62 5631.37 1221.92C5622.9 1217.08 5616.25 1210.36 5611.41 1201.75C5606.57 1193.01 5604.15 1182.93 5604.15 1171.5C5604.15 1160.21 5606.63 1150.19 5611.61 1141.45C5616.58 1132.71 5623.37 1125.99 5631.98 1121.29C5640.58 1116.58 5650.19 1114.23 5660.81 1114.23C5671.43 1114.23 5681.05 1116.58 5689.65 1121.29C5698.26 1125.99 5705.05 1132.71 5710.02 1141.45C5714.99 1150.19 5717.48 1160.21 5717.48 1171.5C5717.48 1182.79 5714.93 1192.81 5709.82 1201.55C5704.71 1210.29 5697.72 1217.08 5688.85 1221.92C5680.11 1226.62 5670.43 1228.98 5659.81 1228.98ZM5659.81 1209.01C5665.72 1209.01 5671.23 1207.6 5676.34 1204.78C5681.59 1201.95 5685.82 1197.72 5689.05 1192.07C5692.27 1186.42 5693.89 1179.57 5693.89 1171.5C5693.89 1163.43 5692.34 1156.65 5689.25 1151.13C5686.16 1145.49 5682.06 1141.25 5676.95 1138.43C5671.84 1135.61 5666.33 1134.19 5660.41 1134.19C5654.5 1134.19 5648.98 1135.61 5643.87 1138.43C5638.9 1141.25 5634.93 1145.49 5631.98 1151.13C5629.02 1156.65 5627.54 1163.43 5627.54 1171.5C5627.54 1183.47 5630.56 1192.74 5636.61 1199.33C5642.8 1205.78 5650.53 1209.01 5659.81 1209.01Z" fill="black"/>
<path d="M5536.08 1228.57C5526.67 1228.57 5518.2 1226.96 5510.67 1223.73C5503.14 1220.37 5497.23 1215.67 5492.93 1209.62C5488.62 1203.57 5486.47 1196.51 5486.47 1188.44H5511.08C5511.61 1194.49 5513.97 1199.47 5518.13 1203.36C5522.44 1207.26 5528.42 1209.21 5536.08 1209.21C5544.01 1209.21 5550.2 1207.33 5554.63 1203.57C5559.07 1199.67 5561.29 1194.69 5561.29 1188.64C5561.29 1183.94 5559.88 1180.11 5557.05 1177.15C5554.37 1174.19 5550.94 1171.91 5546.77 1170.29C5542.74 1168.68 5537.09 1166.93 5529.83 1165.05C5520.69 1162.63 5513.23 1160.21 5507.45 1157.79C5501.8 1155.23 5496.96 1151.34 5492.93 1146.09C5488.89 1140.85 5486.88 1133.86 5486.88 1125.12C5486.88 1117.05 5488.89 1109.99 5492.93 1103.94C5496.96 1097.89 5502.61 1093.26 5509.87 1090.03C5517.13 1086.8 5525.53 1085.19 5535.07 1085.19C5548.65 1085.19 5559.74 1088.62 5568.35 1095.47C5577.09 1102.2 5581.93 1111.47 5582.87 1123.3H5557.46C5557.05 1118.2 5554.63 1113.83 5550.2 1110.2C5545.76 1106.57 5539.91 1104.75 5532.65 1104.75C5526.07 1104.75 5520.69 1106.43 5516.52 1109.79C5512.35 1113.15 5510.27 1117.99 5510.27 1124.31C5510.27 1128.61 5511.55 1132.18 5514.1 1135C5516.79 1137.69 5520.15 1139.84 5524.18 1141.45C5528.22 1143.07 5533.73 1144.82 5540.72 1146.7C5550 1149.25 5557.53 1151.81 5563.31 1154.36C5569.22 1156.91 5574.2 1160.88 5578.23 1166.26C5582.4 1171.5 5584.48 1178.56 5584.48 1187.43C5584.48 1194.56 5582.53 1201.28 5578.63 1207.6C5574.87 1213.92 5569.29 1219.03 5561.89 1222.93C5554.63 1226.69 5546.03 1228.57 5536.08 1228.57Z" fill="black"/>
<path d="M5362.62 1114.23C5371.35 1114.23 5379.15 1116.04 5386.01 1119.67C5393 1123.3 5398.44 1128.68 5402.34 1135.81C5406.24 1142.93 5408.19 1151.54 5408.19 1161.62V1227.16H5385.4V1165.05C5385.4 1155.1 5382.92 1147.5 5377.94 1142.26C5372.97 1136.88 5366.18 1134.19 5357.57 1134.19C5348.97 1134.19 5342.11 1136.88 5337 1142.26C5332.03 1147.5 5329.54 1155.1 5329.54 1165.05V1227.16H5306.55V1116.04H5329.54V1128.75C5333.31 1124.18 5338.08 1120.62 5343.86 1118.06C5349.78 1115.51 5356.03 1114.23 5362.62 1114.23Z" fill="black"/>
<path d="M5283.93 1168.88C5283.93 1173.05 5283.66 1176.81 5283.12 1180.17H5198.22C5198.89 1189.05 5202.19 1196.17 5208.1 1201.55C5214.02 1206.93 5221.28 1209.62 5229.88 1209.62C5242.25 1209.62 5250.99 1204.44 5256.1 1194.09H5280.9C5277.54 1204.31 5271.42 1212.71 5262.55 1219.3C5253.81 1225.75 5242.92 1228.98 5229.88 1228.98C5219.26 1228.98 5209.72 1226.62 5201.25 1221.92C5192.91 1217.08 5186.32 1210.36 5181.48 1201.75C5176.78 1193.01 5174.42 1182.93 5174.42 1171.5C5174.42 1160.07 5176.71 1150.06 5181.28 1141.45C5185.99 1132.71 5192.51 1125.99 5200.84 1121.29C5209.31 1116.58 5218.99 1114.23 5229.88 1114.23C5240.37 1114.23 5249.71 1116.51 5257.91 1121.09C5266.11 1125.66 5272.5 1132.11 5277.07 1140.45C5281.64 1148.65 5283.93 1158.12 5283.93 1168.88ZM5259.93 1161.62C5259.8 1153.15 5256.77 1146.36 5250.86 1141.25C5244.94 1136.14 5237.61 1133.59 5228.87 1133.59C5220.94 1133.59 5214.15 1136.14 5208.51 1141.25C5202.86 1146.23 5199.5 1153.02 5198.42 1161.62H5259.93Z" fill="black"/>
<path d="M5068.4 1132.38C5072.3 1127.27 5077.61 1122.97 5084.34 1119.47C5091.06 1115.98 5098.65 1114.23 5107.12 1114.23C5116.8 1114.23 5125.61 1116.65 5133.54 1121.49C5141.61 1126.19 5147.93 1132.85 5152.5 1141.45C5157.07 1150.06 5159.35 1159.94 5159.35 1171.1C5159.35 1182.26 5157.07 1192.27 5152.5 1201.15C5147.93 1209.88 5141.61 1216.74 5133.54 1221.72C5125.61 1226.56 5116.8 1228.98 5107.12 1228.98C5098.65 1228.98 5091.12 1227.29 5084.54 1223.93C5077.95 1220.44 5072.57 1216.14 5068.4 1211.03V1280H5045.41V1116.04H5068.4V1132.38ZM5135.96 1171.1C5135.96 1163.43 5134.35 1156.85 5131.12 1151.34C5128.03 1145.69 5123.86 1141.45 5118.62 1138.63C5113.51 1135.67 5108 1134.19 5102.08 1134.19C5096.3 1134.19 5090.79 1135.67 5085.55 1138.63C5080.44 1141.59 5076.27 1145.89 5073.04 1151.54C5069.95 1157.18 5068.4 1163.84 5068.4 1171.5C5068.4 1179.16 5069.95 1185.89 5073.04 1191.67C5076.27 1197.31 5080.44 1201.62 5085.55 1204.57C5090.79 1207.53 5096.3 1209.01 5102.08 1209.01C5108 1209.01 5113.51 1207.53 5118.62 1204.57C5123.86 1201.48 5128.03 1197.05 5131.12 1191.26C5134.35 1185.48 5135.96 1178.76 5135.96 1171.1Z" fill="black"/>
<path d="M4951.2 1228.57C4938.16 1228.57 4926.13 1225.55 4915.1 1219.5C4904.21 1213.31 4895.54 1204.78 4889.09 1193.89C4882.77 1182.86 4879.61 1170.49 4879.61 1156.78C4879.61 1143.07 4882.77 1130.77 4889.09 1119.88C4895.54 1108.99 4904.21 1100.52 4915.1 1094.47C4926.13 1088.28 4938.16 1085.19 4951.2 1085.19C4964.38 1085.19 4976.41 1088.28 4987.3 1094.47C4998.32 1100.52 5006.99 1108.99 5013.31 1119.88C5019.63 1130.77 5022.79 1143.07 5022.79 1156.78C5022.79 1170.49 5019.63 1182.86 5013.31 1193.89C5006.99 1204.78 4998.32 1213.31 4987.3 1219.5C4976.41 1225.55 4964.38 1228.57 4951.2 1228.57ZM4951.2 1208.61C4960.48 1208.61 4968.75 1206.52 4976.01 1202.36C4983.27 1198.05 4988.91 1192 4992.95 1184.21C4997.11 1176.27 4999.2 1167.13 4999.2 1156.78C4999.2 1146.43 4997.11 1137.35 4992.95 1129.56C4988.91 1121.76 4983.27 1115.78 4976.01 1111.61C4968.75 1107.44 4960.48 1105.36 4951.2 1105.36C4941.92 1105.36 4933.66 1107.44 4926.4 1111.61C4919.14 1115.78 4913.42 1121.76 4909.25 1129.56C4905.22 1137.35 4903.2 1146.43 4903.2 1156.78C4903.2 1167.13 4905.22 1176.27 4909.25 1184.21C4913.42 1192 4919.14 1198.05 4926.4 1202.36C4933.66 1206.52 4941.92 1208.61 4951.2 1208.61Z" fill="black"/>
<path d="M5908.24 535.756C5971.64 535.756 6024.95 563.547 6060.53 608.866L6104.48 548.38H6171.33V968.511H6060.53V908.026C6024.99 953.345 5971.64 981.135 5907.43 981.135C5788.09 981.135 5700.15 885.321 5700.15 757.583C5700.15 629.845 5788.9 535.802 5908.24 535.802V535.756ZM5930.19 887.864C6002.13 887.864 6054.49 834.871 6054.49 758.491C6054.49 682.112 6002 628.301 5927.6 628.301C5854.03 629.119 5808.26 682.929 5808.26 758.491C5808.4 834.053 5857.44 887.864 5930.19 887.864Z" fill="black"/>
<path d="M5178 548.514H5300.88L5426.31 873.466L5551.74 548.514H5674.62L5500.2 968.418H5352.32L5178.04 548.514H5178Z" fill="black"/>
<path d="M4911.04 548.598C5043.65 548.598 5139.86 641.007 5139.86 770.379C5139.86 899.752 5044.51 993.932 4911.04 993.932C4777.57 993.932 4681.4 900.706 4681.4 770.379C4681.4 640.053 4777.57 548.598 4911.04 548.598ZM4911.04 902.34C4983.16 902.34 5034.61 846.895 5034.61 771.333C5034.61 695.771 4983.16 640.19 4911.04 640.19C4838.92 640.19 4786.66 695.635 4786.66 771.333C4786.75 846.895 4838.1 902.34 4911.04 902.34Z" fill="black"/>
<path d="M4159.35 548.471H4212.06L4271.91 599.648C4311.36 556.009 4364.8 535.756 4425.57 535.756C4532.36 535.756 4592.31 597.06 4592.31 708.768V968.375H4476.42V732.29C4476.42 665.901 4443.52 634.023 4384.48 634.023C4316.36 634.023 4275.28 675.21 4275.28 732.29V968.375H4159.48V548.471H4159.39H4159.35Z" fill="black"/>
<path d="M3810.95 561.65H3688.07L3756.28 777.937H3879.08L3810.95 561.65Z" fill="black"/>
<path d="M3956.79 561.254H4082.95L3928.85 981.159H3802.83L3956.84 561.254H3956.79Z" fill="black"/>
<path d="M3380.5 497.625C3537.29 497.625 3644.36 592.168 3644.36 739.25C3644.36 886.332 3537.29 980.875 3380.5 980.875H3178.81V497.625H3380.5ZM3282.38 576.32V902.089H3378.41C3477.21 902.089 3542.2 837.88 3542.2 739.159C3542.2 640.438 3477.21 576.229 3378.41 576.229H3282.38V576.365V576.32Z" fill="black"/>
<mask id="mask0_121_1402" style="mask-type:luminance" maskUnits="userSpaceOnUse" x="2004" y="256" width="934" height="967">
<path d="M2401.76 721.692H2937.37C2936.93 710.492 2936.2 699.292 2935.17 687.995C2923.13 555.457 2868.41 445.759 2761.81 364.28C2658.83 285.54 2538.76 258.788 2412.34 256.88C2377.24 256.342 2342.15 256.245 2307.05 256.098V627.057C2307.05 679.289 2349.49 721.692 2401.76 721.692ZM2156.89 777.103H2004.67V1222.45C2004.67 1222.45 2220.52 1222.45 2251.6 1222.45V871.738C2251.6 819.506 2209.16 777.103 2156.89 777.103ZM2004.67 256.44V721.692H2156.89C2209.16 721.692 2251.6 679.289 2251.6 627.057V256C2217.83 256 2184.06 256.098 2150.23 256.196C2101.73 256.391 2053.17 256.538 2004.67 256.44ZM2307.05 871.738V1222.45C2339.02 1222.45 2370.98 1222.45 2402.94 1222.5C2454.92 1222.5 2507.05 1218 2557.9 1206.7C2697.2 1175.45 2810.02 1104.98 2880.7 976.595C2915.55 913.456 2932.92 846.551 2936.89 777.054H2401.76C2349.49 777.054 2307.05 819.457 2307.05 871.689V871.738Z" fill="white"/>
</mask>
<g mask="url(#mask0_121_1402)">
<rect x="1448.94" y="-110.084" width="1717.98" height="1716.61" fill="url(#paint0_angular_121_1402)"/>
</g>
</g>
<rect x="0.5" y="0.5" width="8175" height="2303" stroke="black"/>
<defs>
<radialGradient id="paint0_angular_121_1402" cx="0" cy="0" r="1" gradientUnits="userSpaceOnUse" gradientTransform="translate(2307.93 748.222) rotate(90) scale(858.306 858.992)">
<stop offset="0.118623" stop-color="#58FC9A"/>
<stop offset="0.353064" stop-color="#0047FF"/>
<stop offset="0.476146" stop-color="#7867E2"/>
<stop offset="0.630208" stop-color="white"/>
<stop offset="0.869792" stop-color="#7867E2"/>
</radialGradient>
<clipPath id="clip0_121_1402">
<rect width="8176" height="2304" fill="white"/>
</clipPath>
</defs>
</svg>
