<?xml version="1.0" encoding="UTF-8" standalone="no"?>
<svg
   width="5683.9292"
   height="1536"
   viewBox="0 0 5683.9292 1536"
   fill="none"
   version="1.1"
   id="svg26"
   sodipodi:docname="dynova-open-source.svg"
   inkscape:version="1.3.2 (091e20ef0f, 2023-11-25)"
   inkscape:export-filename="dynova-open-source.png"
   inkscape:export-xdpi="96"
   inkscape:export-ydpi="96"
   xmlns:inkscape="http://www.inkscape.org/namespaces/inkscape"
   xmlns:sodipodi="http://sodipodi.sourceforge.net/DTD/sodipodi-0.dtd"
   xmlns="http://www.w3.org/2000/svg"
   xmlns:svg="http://www.w3.org/2000/svg">
  <sodipodi:namedview
     id="namedview26"
     pagecolor="#ffffff"
     bordercolor="#000000"
     borderopacity="0.25"
     inkscape:showpageshadow="2"
     inkscape:pageopacity="0.0"
     inkscape:pagecheckerboard="0"
     inkscape:deskcolor="#d1d1d1"
     showguides="false"
     inkscape:clip-to-page="false"
     inkscape:zoom="0.0625"
     inkscape:cx="3016"
     inkscape:cy="3496"
     inkscape:window-width="1720"
     inkscape:window-height="1329"
     inkscape:window-x="20"
     inkscape:window-y="20"
     inkscape:window-maximized="0"
     inkscape:current-layer="svg26" />
  <defs
     id="defs26">
    <linearGradient
       id="paint0_linear_115_2"
       x1="6"
       y1="107"
       x2="103"
       y2="20.000099"
       gradientUnits="userSpaceOnUse">
      <stop
         stop-color="#58FC9A"
         id="stop12" />
      <stop
         offset="1"
         stop-color="#712FFF"
         id="stop13" />
    </linearGradient>
    <linearGradient
       id="paint1_linear_115_2"
       x1="6.5"
       y1="111.5"
       x2="111.5"
       y2="38.000099"
       gradientUnits="userSpaceOnUse">
      <stop
         stop-color="#58FC9A"
         id="stop14" />
      <stop
         offset="1"
         stop-color="#712FFF"
         id="stop15" />
    </linearGradient>
    <linearGradient
       id="paint2_linear_115_2"
       x1="53.5"
       y1="160"
       x2="202.5"
       y2="24.5"
       gradientUnits="userSpaceOnUse">
      <stop
         stop-color="#58FC9A"
         id="stop16" />
      <stop
         offset="0.601575"
         stop-color="#0047FF"
         id="stop17" />
      <stop
         offset="1"
         stop-color="#712FFF"
         id="stop18" />
    </linearGradient>
    <linearGradient
       id="paint3_linear_115_2"
       x1="46"
       y1="154"
       x2="214.5"
       y2="18"
       gradientUnits="userSpaceOnUse">
      <stop
         stop-color="#58FC9A"
         id="stop19" />
      <stop
         offset="0.518353"
         stop-color="#0047FF"
         id="stop20" />
      <stop
         offset="1"
         stop-color="#712FFF"
         id="stop21" />
    </linearGradient>
    <linearGradient
       id="paint4_linear_115_2"
       x1="126"
       y1="159.5"
       x2="43.5"
       y2="59.500099"
       gradientUnits="userSpaceOnUse">
      <stop
         stop-color="#0047FF"
         id="stop22" />
      <stop
         offset="0.516"
         stop-color="#5B34FF"
         id="stop23" />
      <stop
         offset="1"
         stop-color="#712FFF"
         id="stop24" />
    </linearGradient>
    <linearGradient
       id="paint5_linear_115_2"
       x1="129"
       y1="159"
       x2="62.5"
       y2="45.500099"
       gradientUnits="userSpaceOnUse">
      <stop
         stop-color="#0047FF"
         id="stop25" />
      <stop
         offset="1"
         stop-color="#712FFF"
         id="stop26" />
    </linearGradient>
  </defs>
  <rect
     style="fill:#ffffff;fill-opacity:1;stroke-width:0.789067"
     id="rect35"
     width="5683.9292"
     height="1536"
     x="0"
     y="0" />
  <g
     id="g2"
     transform="translate(256.00006,256.00015)">
    <g
       id="g32">
      <g
         id="path1"
         transform="matrix(5.8777461,0,0,5.8777461,-2.9388731,-2.9388731)">
        <path
           style="color:#000000;fill:url(#paint0_linear_115_2);-inkscape-stroke:none"
           d="m 19.7803,84.8665 c -0.0669,1.5906 1.23,2.8849 2.8221,2.8849 v 0 c 1.592,0 2.8757,-1.2931 2.9487,-2.8835 1.4707,-32.0217 27.3046,-57.8521 59.3278,-59.3172 1.5842,-0.0725 2.8725,-1.3512 2.8725,-2.9372 v 0 c 0,-1.5946 -1.3027,-2.8899 -2.8954,-2.8115 -35.1839,1.7305 -63.5958,29.8928 -65.0757,65.0645 z"
           id="path29" />
        <path
           style="color:#000000;fill:url(#paint1_linear_115_2);-inkscape-stroke:none"
           d="M 84.757812,17.804687 C 48.563333,19.584892 19.304463,48.582121 17.78125,84.783203 c -0.114418,2.720368 2.14428,4.96875 4.820312,4.96875 2.674996,0 4.8273,-2.179359 4.947266,-4.792969 1.423712,-30.998622 26.421768,-55.991864 57.421875,-57.410156 2.60757,-0.119334 4.78125,-2.266489 4.78125,-4.935547 0,-2.683857 -2.267521,-4.94281 -4.994141,-4.808594 z"
           id="path30"
           sodipodi:nodetypes="ccsccsc" />
      </g>
      <g
         id="path2"
         transform="matrix(5.8777461,0,0,5.8777461,-2.9388731,-2.9388731)">
        <path
           style="color:#000000;fill:url(#paint2_linear_115_2);-inkscape-stroke:none"
           d="M 87.7514,3 C 41.0516,3 3,41.0516 3,87.7514 3,120.497 22.1259,150.43 51.7652,164.493 c 0.7275,0.345 1.4534,0.803 2.2586,0.803 v 0 c 0.1498,0 0.2993,0 0.489,-0.04 0.4629,-0.098 0.9033,-0.3 1.3091,-0.544 0.5137,-0.308 0.8752,-0.727 1.0846,-1.146 l 17.3858,-41.834 c 0.5915,-1.423 -0.0604,-3.059 -1.4689,-3.685 v 0 c -1.4569,-0.647 -3.1613,0.031 -3.7745,1.503 l -12.0927,29.023 c -2.2153,5.316 -8.4976,7.711 -13.2903,4.517 C 21.9182,138.592 8.47715,114.18 8.47715,87.7514 8.47715,44.2226 43.9344,8.76541 87.4632,8.76541 c 43.5288,0 78.9858,35.45719 78.9858,78.98599 0,25.5566 -12.314,49.2396 -32.814,64.0836 -1.29,0.934 -1.661,2.714 -0.796,4.051 v 0 c 0.886,1.37 2.726,1.751 4.048,0.797 22.17,-15.991 35.328,-41.387 35.328,-68.9316 C 172.502,41.0516 134.451,3 87.7514,3 Z"
           id="path27" />
        <path
           style="color:#000000;fill:url(#paint3_linear_115_2);-inkscape-stroke:none"
           d="M 87.751953,0.5 C 39.69418,0.5 0.5,39.69418 0.5,87.751953 c 0,33.719027 19.689141,64.526617 50.193359,78.999997 0.535255,0.25384 1.576876,1.04493 3.330078,1.04492 0.1498,0 0.556697,9.7e-4 1.00586,-0.0937 v -0.002 h 0.002 c 0.828906,-0.17548 1.508287,-0.50437 2.076172,-0.8457 0.927676,-0.55621 1.609342,-1.31984 2.035156,-2.17188 l 0.03906,-0.0781 17.419921,-41.91406 c 1.102065,-2.65129 -0.139568,-5.76342 -2.763671,-6.92969 -2.709993,-1.20349 -5.95689,0.0877 -7.097657,2.82617 l -12.091797,29.02344 c -1.67232,4.01302 -6.121865,5.71351 -9.595703,3.39844 -21.065588,-14.04327 -34.076216,-37.6769 -34.076215,-63.257837 0,-42.171141 34.315184,-76.486328 76.486328,-76.486328 42.171139,0 76.486329,34.315177 76.486329,76.486328 0,24.753517 -11.91918,47.676517 -31.78125,62.058597 -2.32768,1.68531 -3.01953,4.97321 -1.42774,7.43359 1.62833,2.51784 5.13864,3.24976 7.60938,1.4668 22.80365,-16.44805 36.36021,-42.60868 36.36523,-70.943362 v -0.0098 C 175.00482,39.696294 135.80624,0.5 87.751953,0.5 Z"
           id="path28"
           sodipodi:nodetypes="sscsccccsccccccssscccscs" />
      </g>
      <g
         id="path3"
         transform="matrix(5.8777461,0,0,5.8777461,-2.9388731,-2.9388731)">
        <path
           style="color:#000000;fill:url(#paint4_linear_115_2);-inkscape-stroke:none"
           d="m 121.377,162.176 c -1.504,0.752 -3.329,0.072 -3.974,-1.48 l -17.256,-41.523 c -0.5765,-1.442 0,-2.883 1.441,-3.748 10.378,-5.477 17.008,-15.8545 17.008,-27.6736 0,-17.0079 -13.837,-31.1332 -31.1329,-31.1332 -17.0081,0 -31.1332,13.837 -31.1332,31.1332 0,6.8082 2.2056,13.1756 6.2311,18.5226 0.9561,1.27 0.8544,3.087 -0.347,4.129 v 0 c -1.1817,1.024 -2.9781,0.906 -3.9233,-0.34 -4.9427,-6.514 -7.7262,-14.3251 -7.7262,-22.5999 0,-20.1789 16.4313,-36.8985 36.8986,-36.8985 20.1789,0 36.8989,16.4313 36.8989,36.8985 0,10.0459 -3.977,19.3999 -10.992,26.1889 -3.574,3.458 -5.478,8.647 -3.588,13.246 l 12.98,31.583 c 0.577,1.405 -0.027,3.016 -1.385,3.695 z"
           id="path31" />
        <path
           style="color:#000000;fill:url(#paint5_linear_115_2);-inkscape-stroke:none"
           d="m 87.462891,48.064453 c -21.828767,0 -39.398438,17.862424 -39.398438,39.398438 0,8.835429 2.983157,17.190729 8.234375,24.111329 1.821053,2.40058 5.351563,2.62617 7.552734,0.71875 v -0.002 c 2.235377,-1.93879 2.403485,-5.26807 0.707032,-7.52149 -3.715814,-4.935648 -5.728516,-10.74932 -5.728516,-17.017577 0,-15.935085 12.980651,-28.632812 28.632813,-28.632812 15.934739,0 28.632809,12.980866 28.632809,28.632812 0,10.884162 -6.05997,20.389167 -15.67382,25.462887 l -0.0625,0.0312 -0.0586,0.0352 c -2.239188,1.34414 -3.477493,4.3118 -2.474608,6.82031 l 0.0059,0.0156 17.261718,41.53906 c 1.18704,2.85625 4.63365,4.13923 7.40039,2.75586 2.50754,-1.25377 3.6451,-4.28753 2.58008,-6.88086 l -12.98047,-31.58398 c -1.41431,-3.44148 0.019,-7.60057 3.01367,-10.49805 h 0.002 c 7.50031,-7.25868 11.75195,-17.280635 11.75195,-27.986329 0,-21.828707 -17.86243,-39.398438 -39.398438,-39.398438 z"
           id="path32"
           sodipodi:nodetypes="csccccsssccscccsccccscc" />
      </g>
    </g>
    <g
       id="g1">
      <path
         d="m 1648.7368,674.91104 c -44.8406,44.4217 -99.4175,66.63041 -163.7175,66.63041 -64.3043,0 -118.8768,-22.20871 -163.7218,-66.63041 -44.4217,-44.84498 -66.6304,-99.62704 -66.6304,-164.35467 0,-64.72755 22.2087,-119.30006 66.6304,-163.72176 44.845,-44.84068 99.4175,-67.26323 163.7218,-67.26323 64.3,0 118.8769,22.42255 163.7175,67.26323 44.845,44.4217 67.2632,98.99421 67.2632,163.72176 0,64.72763 -22.4182,119.50969 -67.2632,164.35467 z m -265.8843,-59.65217 c 27.4979,27.07891 61.5506,40.61617 102.1668,40.61617 40.6119,0 74.6646,-13.53726 102.1626,-40.61617 27.4979,-27.4979 41.249,-62.3973 41.249,-104.7025 0,-42.3051 -13.7511,-77.2088 -41.249,-104.7067 -27.498,-27.4979 -61.5507,-41.2447 -102.1626,-41.2447 -40.6162,0 -74.6689,13.7468 -102.1668,41.2447 -27.4979,27.4979 -41.2491,62.4016 -41.2491,104.7067 0,42.3052 13.7512,77.2046 41.2491,104.7025 z m 588.2422,-208.77208 c 42.7289,0 79.1106,16.28667 109.1451,48.86004 30.4592,32.15427 45.6936,71.71005 45.6936,118.66734 0,46.95718 -15.2344,86.7225 -45.6936,119.30005 -30.0345,32.15009 -66.4162,48.22723 -109.1451,48.22723 -44.4216,0 -78.6881,-15.44003 -102.7996,-46.32447 v 164.35468 h -81.8609 v -444.1997 h 81.8609 v 37.43928 c 24.1115,-30.88444 58.378,-46.32445 102.7996,-46.32445 z m -78.0554,232.25501 c 16.5005,16.49612 37.4436,24.74848 62.825,24.74848 25.3813,0 46.3238,-8.25236 62.8255,-24.74848 16.921,-16.92379 25.3787,-38.49967 25.3787,-64.72763 0,-26.22807 -8.4577,-47.59441 -25.3787,-64.09053 -16.5017,-16.92379 -37.4442,-25.3857 -62.8255,-25.3857 -25.3814,0 -46.3245,8.46191 -62.825,25.3857 -16.4961,16.49612 -24.7442,37.86246 -24.7442,64.09053 0,26.22796 8.2481,47.80384 24.7442,64.72763 z m 372.4903,-31.09398 c 10.9899,39.76532 40.81,59.64798 89.4637,59.64798 31.3117,0 54.9912,-10.5741 71.0861,-31.7267 l 65.9745,38.072 c -31.2867,45.26836 -77.3977,67.90035 -138.3325,67.90035 -52.4482,0 -94.5472,-15.86341 -126.2738,-47.59441 -31.7293,-31.7267 -47.5864,-71.70576 -47.5864,-119.93287 0,-47.80395 15.642,-87.57347 46.9494,-119.30017 31.3108,-32.15008 71.5013,-48.22721 120.5735,-48.22721 46.5299,0 84.8131,16.07713 114.8509,48.22721 30.4561,32.14998 45.6963,71.9196 45.6963,119.30017 0,10.5741 -1.053,21.78532 -3.1801,33.63365 z m -1.269,-63.4577 h 161.8188 c -4.6699,-21.57588 -14.3841,-37.65302 -29.2066,-48.22712 -14.3838,-10.5784 -30.8717,-15.86769 -49.4887,-15.86769 -21.9936,0 -40.1906,5.71257 -54.5745,17.13334 -14.3839,11.00167 -23.9002,26.65553 -28.549,46.96147 z m 489.9283,-137.70333 c 34.6871,0 63.2331,11.63459 85.6671,34.8994 22.8491,23.26909 34.2421,55.41908 34.2421,96.45863 v 194.81144 h -81.848 V 547.99564 c 0,-21.1526 -5.6971,-37.22973 -17.121,-48.22722 -11.4251,-11.42066 -26.6664,-17.13324 -45.6978,-17.13324 -21.1614,0 -38.0895,6.55485 -50.7571,19.67312 -12.6979,13.11398 -19.0602,32.78291 -19.0602,59.01516 v 171.3328 h -81.8497 v -317.2843 h 81.8497 v 35.53223 c 19.8883,-29.61021 51.4229,-44.4174 94.5749,-44.4174 z m 529.3206,335.05466 c -44.0132,0 -81.0217,-9.73185 -111.0629,-29.19113 -30.0053,-19.88266 -51.1687,-46.74773 -63.4538,-80.59104 l 74.8781,-43.78458 c 17.3434,45.26406 51.4293,67.90034 102.1853,67.90034 24.5354,0 42.5153,-4.44264 53.9398,-13.32781 11.4246,-8.88519 17.1181,-20.0964 17.1181,-33.63377 0,-15.64956 -6.9667,-27.70734 -20.9387,-36.16923 -13.9724,-8.88518 -38.9191,-18.40328 -74.8789,-28.55411 -19.89,-5.92631 -36.7838,-11.84833 -50.7554,-17.77036 -13.5598,-5.92202 -27.3066,-13.7468 -41.2418,-23.47864 -13.559,-10.15511 -23.8984,-22.84581 -31.0904,-38.072 -7.192,-15.23058 -10.788,-33.00093 -10.788,-53.30687 0,-40.18861 14.1594,-72.12915 42.5148,-95.82152 28.768,-24.11147 63.2301,-36.16935 103.4223,-36.16935 35.9598,0 67.4619,8.88518 94.5441,26.65135 27.4939,17.34708 48.883,41.67227 64.0903,72.97569 l -73.6046,42.51894 c -17.7552,-38.0764 -46.111,-57.11239 -85.0298,-57.11239 -18.2042,0 -32.588,4.2288 -43.1516,12.69069 -10.1509,8.03853 -15.2453,18.61273 -15.2453,31.72671 0,13.96493 5.7309,25.38569 17.1553,34.27087 11.8374,8.45761 34.2747,17.76606 67.2752,27.92118 13.5223,4.22881 23.6731,7.61095 30.4531,10.15082 7.192,2.1166 16.7067,5.71258 28.5431,10.78795 12.2865,4.65208 21.5758,9.09472 27.9058,13.32781 6.7802,4.2288 14.3839,9.94128 22.8497,17.13324 8.4652,7.19196 14.8338,14.59347 19.0668,22.2087 4.6444,7.61535 8.4271,16.9238 11.4248,27.92129 3.371,10.57839 5.056,22.2087 5.056,34.90359 0,41.03526 -15.0207,73.60863 -45.0623,97.72428 -29.591,24.11146 -68.323,36.16935 -116.1191,36.16935 z m 506.1711,-48.22723 c -32.5487,32.15009 -72.3304,48.22723 -119.3039,48.22723 -46.933,0 -86.7145,-16.07714 -119.264,-48.22723 -32.1777,-32.57755 -48.247,-72.34287 -48.247,-119.30005 0,-46.95729 16.0693,-86.51307 48.247,-118.66734 32.5495,-32.57337 72.331,-48.86004 119.264,-48.86004 46.9735,0 86.7552,16.28667 119.3039,48.86004 32.5899,32.15427 48.8849,71.71005 48.8849,118.66734 0,46.95718 -16.295,86.7225 -48.8849,119.30005 z m -180.8467,-56.47947 c 16.5206,16.50041 37.0079,24.74848 61.5428,24.74848 24.5755,0 45.0625,-8.24807 61.5835,-24.74848 16.4798,-16.49623 24.7195,-37.43928 24.7195,-62.82058 0,-25.38141 -8.2397,-46.32447 -24.7195,-62.82498 -16.521,-16.49613 -37.008,-24.74849 -61.5835,-24.74849 -24.5349,0 -45.0222,8.25236 -61.5428,24.74849 -16.069,16.50051 -24.1234,37.44357 -24.1234,62.82498 0,25.3813 8.0544,46.32435 24.1234,62.82058 z m 509.411,-221.46279 h 81.8435 v 317.2843 h -81.8435 v -35.53652 c -19.891,29.6145 -51.3907,44.42171 -94.543,44.42171 -34.6855,0 -63.4534,-11.63461 -86.3035,-34.9037 -22.4394,-23.26481 -33.638,-55.41909 -33.638,-96.45435 V 415.37196 h 81.8439 v 184.66062 c 0,21.1526 5.7338,37.43929 17.1589,48.86004 11.4251,11.00168 26.6298,16.50042 45.7003,16.50042 21.1222,0 38.0544,-6.55913 50.7537,-19.67312 12.6994,-13.11398 19.0277,-32.7871 19.0277,-59.01516 z m 251.3757,54.57253 c 7.6451,-20.30595 20.1172,-35.53643 37.4601,-45.69155 17.7536,-10.15092 37.4182,-15.23057 58.9939,-15.23057 v 91.37888 c -24.9452,-2.95887 -47.3852,2.11659 -67.2332,15.23058 -19.4812,13.11397 -29.2208,34.90369 -29.2208,65.36046 v 151.66397 h -81.8446 v -317.2843 h 81.8446 z m 296.2673,271.59696 c -47.7948,0 -87.7628,-16.07714 -119.8995,-48.22723 -31.727,-32.15427 -47.6115,-71.91949 -47.6115,-119.30005 0,-47.38057 15.8845,-87.15019 47.6115,-119.30017 32.1367,-32.15008 72.1047,-48.22721 119.8995,-48.22721 30.905,0 59.0352,7.4015 84.4339,22.2087 25.3559,14.80719 44.6115,34.68985 57.7216,59.65227 l -70.4192,41.2447 c -6.3712,-13.11397 -16.0689,-23.47864 -29.178,-31.09387 -12.6994,-7.61534 -27.0836,-11.42077 -43.197,-11.42077 -24.5345,0 -44.8361,8.24807 -60.9049,24.74849 -16.0679,16.07293 -24.1238,36.80645 -24.1238,62.18786 0,24.95802 8.0559,45.68724 24.1238,62.18776 16.0688,16.07713 36.3704,24.11575 60.9049,24.11575 16.5224,0 31.1329,-3.59598 43.7894,-10.78794 13.1537,-7.61534 22.8514,-17.9799 29.2226,-31.09827 l 71.0545,40.61627 c -13.9734,24.95803 -33.638,45.05442 -58.9939,60.285 -25.3987,14.80291 -53.5289,22.20871 -84.4339,22.20871 z m 263.6096,-133.89363 c 11.0146,39.76532 40.8296,59.64798 89.4887,59.64798 31.3163,0 54.9874,-10.5741 71.0992,-31.7267 l 65.9592,38.072 c -31.2734,45.26836 -77.3846,67.90035 -138.3324,67.90035 -52.4384,0 -94.543,-15.86341 -126.27,-47.59441 -31.726,-31.7267 -47.6115,-71.70576 -47.6115,-119.93287 0,-47.80395 15.6582,-87.57347 46.9745,-119.30017 31.3163,-32.15008 71.5089,-48.22721 120.5788,-48.22721 46.5208,0 84.8023,16.07713 114.8446,48.22721 30.453,32.14998 45.7004,71.9196 45.7004,119.30017 0,10.5741 -1.0477,21.78532 -3.186,33.63365 z m -1.2312,-63.4577 h 161.8191 c -4.6864,-21.57588 -14.4271,-37.65302 -29.2219,-48.22712 -14.3831,-10.5784 -30.8626,-15.86769 -49.4795,-15.86769 -21.9864,0 -40.1926,5.71257 -54.5767,17.13334 -14.3841,11.00167 -23.8975,26.65553 -28.541,46.96147 z"
         fill="#000000"
         id="path4"
         style="stroke-width:6.61152" />
      <path
         id="path34"
         d="m 4180.3081,859.57166 v 160.13324 h 66.827 c 51.954,0 87.4421,-31.33119 87.4421,-80.0727 0,-48.73512 -35.4881,-80.06054 -87.4421,-80.06054 z m 413.1364,12.62358 c -20.1353,0 -37.844,6.71367 -50.917,21.17557 l -19.8312,-16.95539 h -17.4296 v 139.14378 h 38.3814 v -78.23053 c 0,-18.91148 13.6071,-32.56637 36.1772,-32.56637 19.5616,0 30.4751,10.56991 30.4751,32.56637 v 78.23053 h 38.3933 v -86.03606 c 0,-37.01346 -19.8611,-57.3279 -55.2492,-57.3279 z m 491.3037,0 v 0 c -39.5439,0 -68.943,31.17053 -68.943,73.49986 0,42.32932 29.1314,74.0722 68.6817,74.0722 21.2762,0 38.9575,-9.2091 50.7296,-24.2261 v 20.0428 h 36.7125 V 876.36571 h -22.1468 l -14.5657,20.05566 c -11.7913,-15.01706 -29.4598,-24.23824 -50.4683,-24.23824 z m -330.4363,4.23229 c -44.2288,0 -76.0889,30.30432 -76.0889,73.48711 0,43.18343 31.8601,74.08506 76.0889,74.08506 44.2287,0 75.8275,-31.21395 75.8275,-74.08506 0,-42.87047 -31.8856,-73.48711 -75.8275,-73.48711 z m 88.4753,0 57.7516,139.14377 h 48.9997 L 5007.34,876.42753 h -40.7213 l -41.5554,107.6852 -41.567,-107.6852 z m -493.694,4.22083 22.6071,71.66925 h 40.136 l -24.7487,67.47399 h 41.7544 l 51.0661,-139.14324 h -41.7792 l -25.9937,70.84766 -22.3087,-70.84766 z m -134.4627,4.96728 h 31.82 c 32.7423,0 54.2651,21.26791 54.2651,53.97896 0,32.71742 -21.5228,54.00446 -54.2651,54.00446 h -31.82 v -107.9216 z m -318.672,7.08335 v 124.92661 h 53.0083 c 10.944,0 20.1657,-3.389 27.6615,-10.1708 7.4957,-6.782 11.2417,-15.46899 11.2417,-26.05609 0,-12.72876 -5.4764,-22.25461 -16.4205,-28.55843 7.8527,-6.30383 11.7892,-14.63393 11.7892,-24.9852 0,-10.23017 -3.6924,-18.62592 -11.067,-25.17195 -7.2599,-6.66077 -16.244,-9.98414 -26.9522,-9.98414 z m 94.8123,0 42.6506,76.20106 v 48.72555 h 24.4498 v -48.72555 l 42.8373,-76.20106 h -27.8484 l -27.1268,52.11204 -27.1262,-52.11204 z m 1100.401,10.1709 c 24.6481,0 42.0407,17.83172 42.0407,43.13625 0,25.31091 -17.3429,42.87429 -41.1814,42.87429 -24.1062,0 -40.3464,-17.83109 -40.4101,-42.87429 0,-25.03683 15.1706,-42.86218 39.5508,-43.13625 z m -336.8599,3.90913 c 23.8958,0 40.9448,18.41621 40.9448,43.45942 0,25.03683 -17.049,43.41034 -40.9448,43.41034 -24.1701,0 -41.2191,-18.37351 -41.2191,-43.41034 0,-25.08782 17.3167,-43.45942 41.2191,-43.45942 z m -833.7169,8.93817 h 24.6245 c 3.9264,0 7.1368,1.30156 9.6354,3.92125 2.4986,2.61968 3.7473,5.89652 3.7473,9.82287 0,3.92635 -1.3079,7.1898 -3.9213,9.8095 -2.4986,2.61968 -5.6561,3.93399 -9.4614,3.93399 h -24.6245 z m 0,49.43562 h 28.3718 c 4.1621,0 7.6168,1.42649 10.3576,4.28202 2.7344,2.73442 4.0959,6.19547 4.0959,10.35764 0,4.28329 -1.3615,7.85078 -4.0959,10.70631 -2.7408,2.73441 -6.1955,4.09589 -10.3576,4.09589 h -28.3718 z"
         style="fill:#000000;fill-opacity:1;stroke-width:6.37394" />
    </g>
  </g>
</svg>
