<svg width="8176" height="1536" viewBox="0 0 8176 1536" fill="none" xmlns="http://www.w3.org/2000/svg">
<g clip-path="url(#clip0_119_1088)">
<rect width="8176" height="1536" fill="white"/>
<path d="M6171.39 1116.05L6103.23 1279.4H6079.43L6102.02 1225.35L6058.26 1116.05H6083.87L6115.13 1200.75L6147.59 1116.05H6171.39Z" fill="black"/>
<path d="M5992.43 1114.24C6001.17 1114.24 6008.97 1116.05 6015.82 1119.68C6022.82 1123.31 6028.26 1128.69 6032.16 1135.81C6036.06 1142.94 6038.01 1151.54 6038.01 1161.63V1227.17H6015.22V1165.05C6015.22 1155.11 6012.73 1147.51 6007.76 1142.27C6002.78 1136.89 5995.99 1134.2 5987.39 1134.2C5978.79 1134.2 5971.93 1136.89 5966.82 1142.27C5961.85 1147.51 5959.36 1155.11 5959.36 1165.05V1227.17H5936.37V1116.05H5959.36V1128.75C5963.12 1124.18 5967.9 1120.62 5973.68 1118.07C5979.59 1115.51 5985.84 1114.24 5992.43 1114.24Z" fill="black"/>
<path d="M5788 1171.1C5788 1159.94 5790.29 1150.06 5794.86 1141.46C5799.56 1132.86 5805.88 1126.2 5813.81 1121.5C5821.88 1116.66 5830.75 1114.24 5840.43 1114.24C5849.17 1114.24 5856.77 1115.98 5863.22 1119.48C5869.81 1122.84 5875.05 1127.07 5878.95 1132.18V1116.05H5902.14V1227.17H5878.95V1210.63C5875.05 1215.87 5869.74 1220.24 5863.02 1223.74C5856.3 1227.23 5848.63 1228.98 5840.03 1228.98C5830.49 1228.98 5821.75 1226.56 5813.81 1221.72C5805.88 1216.75 5799.56 1209.89 5794.86 1201.15C5790.29 1192.28 5788 1182.26 5788 1171.1ZM5878.95 1171.51C5878.95 1163.84 5877.34 1157.19 5874.11 1151.54C5871.02 1145.9 5866.92 1141.59 5861.81 1138.64C5856.7 1135.68 5851.19 1134.2 5845.27 1134.2C5839.36 1134.2 5833.85 1135.68 5828.74 1138.64C5823.63 1141.46 5819.46 1145.69 5816.23 1151.34C5813.14 1156.85 5811.6 1163.44 5811.6 1171.1C5811.6 1178.77 5813.14 1185.49 5816.23 1191.27C5819.46 1197.05 5823.63 1201.49 5828.74 1204.58C5833.98 1207.54 5839.49 1209.02 5845.27 1209.02C5851.19 1209.02 5856.7 1207.54 5861.81 1204.58C5866.92 1201.62 5871.02 1197.32 5874.11 1191.67C5877.34 1185.89 5878.95 1179.17 5878.95 1171.51Z" fill="black"/>
<path d="M5677.95 1132.38C5681.85 1127.28 5687.16 1122.97 5693.88 1119.48C5700.6 1115.98 5708.2 1114.24 5716.67 1114.24C5726.35 1114.24 5735.15 1116.66 5743.09 1121.5C5751.15 1126.2 5757.47 1132.86 5762.04 1141.46C5766.61 1150.06 5768.9 1159.94 5768.9 1171.1C5768.9 1182.26 5766.61 1192.28 5762.04 1201.15C5757.47 1209.89 5751.15 1216.75 5743.09 1221.72C5735.15 1226.56 5726.35 1228.98 5716.67 1228.98C5708.2 1228.98 5700.67 1227.3 5694.08 1223.94C5687.5 1220.44 5682.12 1216.14 5677.95 1211.03V1280H5654.96V1116.05H5677.95V1132.38ZM5745.51 1171.1C5745.51 1163.44 5743.89 1156.85 5740.67 1151.34C5737.57 1145.69 5733.41 1141.46 5728.16 1138.64C5723.05 1135.68 5717.54 1134.2 5711.63 1134.2C5705.85 1134.2 5700.33 1135.68 5695.09 1138.64C5689.98 1141.59 5685.81 1145.9 5682.59 1151.54C5679.5 1157.19 5677.95 1163.84 5677.95 1171.51C5677.95 1179.17 5679.5 1185.89 5682.59 1191.67C5685.81 1197.32 5689.98 1201.62 5695.09 1204.58C5700.33 1207.54 5705.85 1209.02 5711.63 1209.02C5717.54 1209.02 5723.05 1207.54 5728.16 1204.58C5733.41 1201.49 5737.57 1197.05 5740.67 1191.27C5743.89 1185.49 5745.51 1178.77 5745.51 1171.1Z" fill="black"/>
<path d="M5575.9 1114.24C5584.64 1114.24 5592.43 1116.05 5599.29 1119.68C5606.28 1123.31 5611.73 1128.69 5615.62 1135.81C5619.66 1142.94 5621.67 1151.54 5621.67 1161.63V1227.17H5598.89V1165.05C5598.89 1155.11 5596.4 1147.51 5591.42 1142.27C5586.45 1136.89 5579.66 1134.2 5571.06 1134.2C5562.45 1134.2 5555.6 1136.89 5550.49 1142.27C5545.51 1147.51 5543.03 1155.11 5543.03 1165.05V1227.17H5520.24V1165.05C5520.24 1155.11 5517.75 1147.51 5512.78 1142.27C5507.8 1136.89 5501.01 1134.2 5492.41 1134.2C5483.81 1134.2 5476.95 1136.89 5471.84 1142.27C5466.87 1147.51 5464.38 1155.11 5464.38 1165.05V1227.17H5441.39V1116.05H5464.38V1128.75C5468.14 1124.18 5472.92 1120.62 5478.7 1118.07C5484.48 1115.51 5490.66 1114.24 5497.25 1114.24C5506.12 1114.24 5514.05 1116.12 5521.05 1119.88C5528.04 1123.65 5533.41 1129.09 5537.18 1136.22C5540.54 1129.49 5545.78 1124.18 5552.91 1120.29C5560.03 1116.25 5567.7 1114.24 5575.9 1114.24Z" fill="black"/>
<path d="M5356.96 1228.98C5346.47 1228.98 5336.99 1226.63 5328.52 1221.92C5320.05 1217.08 5313.4 1210.36 5308.56 1201.76C5303.72 1193.02 5301.3 1182.93 5301.3 1171.51C5301.3 1160.21 5303.78 1150.2 5308.76 1141.46C5313.73 1132.72 5320.52 1126 5329.13 1121.29C5337.73 1116.59 5347.34 1114.24 5357.96 1114.24C5368.59 1114.24 5378.2 1116.59 5386.8 1121.29C5395.41 1126 5402.2 1132.72 5407.17 1141.46C5412.14 1150.2 5414.63 1160.21 5414.63 1171.51C5414.63 1182.8 5412.08 1192.82 5406.97 1201.55C5401.86 1210.29 5394.87 1217.08 5386 1221.92C5377.26 1226.63 5367.58 1228.98 5356.96 1228.98ZM5356.96 1209.02C5362.87 1209.02 5368.38 1207.6 5373.49 1204.78C5378.74 1201.96 5382.97 1197.72 5386.2 1192.08C5389.42 1186.43 5391.04 1179.57 5391.04 1171.51C5391.04 1163.44 5389.49 1156.65 5386.4 1151.14C5383.31 1145.49 5379.21 1141.26 5374.1 1138.43C5368.99 1135.61 5363.48 1134.2 5357.56 1134.2C5351.65 1134.2 5346.13 1135.61 5341.02 1138.43C5336.05 1141.26 5332.08 1145.49 5329.13 1151.14C5326.17 1156.65 5324.69 1163.44 5324.69 1171.51C5324.69 1183.47 5327.72 1192.75 5333.77 1199.34C5339.95 1205.79 5347.68 1209.02 5356.96 1209.02Z" fill="black"/>
<path d="M5141.09 1156.79C5141.09 1143.07 5144.25 1130.77 5150.57 1119.88C5157.02 1108.99 5165.69 1100.52 5176.58 1094.47C5187.61 1088.29 5199.64 1085.2 5212.68 1085.2C5227.6 1085.2 5240.85 1088.89 5252.41 1096.29C5264.1 1103.55 5272.57 1113.9 5277.82 1127.34H5250.19C5246.56 1119.95 5241.52 1114.44 5235.07 1110.81C5228.61 1107.18 5221.15 1105.36 5212.68 1105.36C5203.4 1105.36 5195.14 1107.45 5187.88 1111.61C5180.62 1115.78 5174.9 1121.76 5170.74 1129.56C5166.7 1137.36 5164.69 1146.43 5164.69 1156.79C5164.69 1167.14 5166.7 1176.21 5170.74 1184.01C5174.9 1191.81 5180.62 1197.86 5187.88 1202.16C5195.14 1206.33 5203.4 1208.41 5212.68 1208.41C5221.15 1208.41 5228.61 1206.6 5235.07 1202.97C5241.52 1199.34 5246.56 1193.82 5250.19 1186.43H5277.82C5272.57 1199.87 5264.1 1210.23 5252.41 1217.49C5240.85 1224.74 5227.6 1228.37 5212.68 1228.37C5199.51 1228.37 5187.47 1225.35 5176.58 1219.3C5165.69 1213.12 5157.02 1204.58 5150.57 1193.69C5144.25 1182.8 5141.09 1170.5 5141.09 1156.79Z" fill="black"/>
<path d="M5065.68 1168.89C5065.68 1173.05 5065.41 1176.82 5064.87 1180.18H4979.97C4980.65 1189.05 4983.94 1196.18 4989.86 1201.55C4995.77 1206.93 5003.03 1209.62 5011.63 1209.62C5024 1209.62 5032.74 1204.44 5037.85 1194.09H5062.65C5059.29 1204.31 5053.18 1212.71 5044.3 1219.3C5035.56 1225.75 5024.68 1228.98 5011.63 1228.98C5001.01 1228.98 4991.47 1226.63 4983 1221.92C4974.66 1217.08 4968.08 1210.36 4963.24 1201.76C4958.53 1193.02 4956.18 1182.93 4956.18 1171.51C4956.18 1160.08 4958.46 1150.06 4963.03 1141.46C4967.74 1132.72 4974.26 1126 4982.6 1121.29C4991.06 1116.59 5000.74 1114.24 5011.63 1114.24C5022.12 1114.24 5031.46 1116.52 5039.67 1121.09C5047.87 1125.66 5054.25 1132.12 5058.82 1140.45C5063.39 1148.65 5065.68 1158.13 5065.68 1168.89ZM5041.68 1161.63C5041.55 1153.16 5038.52 1146.37 5032.61 1141.26C5026.69 1136.15 5019.36 1133.59 5010.63 1133.59C5002.69 1133.59 4995.9 1136.15 4990.26 1141.26C4984.61 1146.23 4981.25 1153.02 4980.18 1161.63H5041.68Z" fill="black"/>
<path d="M4905.4 1132.18C4908.76 1126.54 4913.2 1122.17 4918.71 1119.08C4924.36 1115.85 4931.01 1114.24 4938.68 1114.24V1138.03H4932.83C4923.82 1138.03 4916.96 1140.32 4912.26 1144.89C4907.69 1149.46 4905.4 1157.39 4905.4 1168.68V1227.17H4882.41V1116.05H4905.4V1132.18Z" fill="black"/>
<path d="M4734.04 1171.1C4734.04 1159.94 4736.33 1150.06 4740.9 1141.46C4745.61 1132.86 4751.92 1126.2 4759.86 1121.5C4767.92 1116.66 4776.8 1114.24 4786.48 1114.24C4795.21 1114.24 4802.81 1115.98 4809.26 1119.48C4815.85 1122.84 4821.09 1127.07 4824.99 1132.18V1116.05H4848.18V1227.17H4824.99V1210.63C4821.09 1215.87 4815.78 1220.24 4809.06 1223.74C4802.34 1227.23 4794.68 1228.98 4786.07 1228.98C4776.53 1228.98 4767.79 1226.56 4759.86 1221.72C4751.92 1216.75 4745.61 1209.89 4740.9 1201.15C4736.33 1192.28 4734.04 1182.26 4734.04 1171.1ZM4824.99 1171.51C4824.99 1163.84 4823.38 1157.19 4820.15 1151.54C4817.06 1145.9 4812.96 1141.59 4807.85 1138.64C4802.74 1135.68 4797.23 1134.2 4791.32 1134.2C4785.4 1134.2 4779.89 1135.68 4774.78 1138.64C4769.67 1141.46 4765.5 1145.69 4762.28 1151.34C4759.18 1156.85 4757.64 1163.44 4757.64 1171.1C4757.64 1178.77 4759.18 1185.49 4762.28 1191.27C4765.5 1197.05 4769.67 1201.49 4774.78 1204.58C4780.02 1207.54 4785.53 1209.02 4791.32 1209.02C4797.23 1209.02 4802.74 1207.54 4807.85 1204.58C4812.96 1201.62 4817.06 1197.32 4820.15 1191.67C4823.38 1185.89 4824.99 1179.17 4824.99 1171.51Z" fill="black"/>
<path d="M4720.49 1116.05L4686.01 1227.17H4661.81L4639.43 1145.09L4617.04 1227.17H4592.84L4558.16 1116.05H4581.55L4604.74 1205.39L4628.34 1116.05H4652.33L4674.92 1204.98L4697.91 1116.05H4720.49Z" fill="black"/>
<path d="M4519.02 1134.8V1196.31C4519.02 1200.48 4519.96 1203.5 4521.84 1205.39C4523.86 1207.13 4527.22 1208.01 4531.93 1208.01H4546.04V1227.16H4527.89C4517.54 1227.16 4509.61 1224.74 4504.1 1219.91C4498.59 1215.07 4495.83 1207.2 4495.83 1196.31V1134.8H4482.72V1116.05H4495.83V1088.42H4519.02V1116.05H4546.04V1134.8H4519.02Z" fill="black"/>
<path d="M4467.79 1134.8H4447.22V1227.16H4424.03V1134.8H4410.92V1116.05H4424.03V1108.19C4424.03 1095.41 4427.39 1086.14 4434.11 1080.36C4440.97 1074.44 4451.66 1071.48 4466.18 1071.48V1090.64C4459.19 1090.64 4454.28 1091.99 4451.46 1094.67C4448.63 1097.23 4447.22 1101.73 4447.22 1108.19V1116.05H4467.79V1134.8Z" fill="black"/>
<path d="M4336.78 1228.98C4326.29 1228.98 4316.81 1226.63 4308.34 1221.92C4299.87 1217.08 4293.22 1210.36 4288.38 1201.76C4283.54 1193.02 4281.12 1182.93 4281.12 1171.51C4281.12 1160.21 4283.6 1150.2 4288.58 1141.46C4293.55 1132.72 4300.34 1126 4308.95 1121.29C4317.55 1116.59 4327.16 1114.24 4337.78 1114.24C4348.4 1114.24 4358.02 1116.59 4366.62 1121.29C4375.23 1126 4382.01 1132.72 4386.99 1141.46C4391.96 1150.2 4394.45 1160.21 4394.45 1171.51C4394.45 1182.8 4391.9 1192.82 4386.79 1201.55C4381.68 1210.29 4374.69 1217.08 4365.81 1221.92C4357.08 1226.63 4347.4 1228.98 4336.78 1228.98ZM4336.78 1209.02C4342.69 1209.02 4348.2 1207.6 4353.31 1204.78C4358.55 1201.96 4362.79 1197.72 4366.02 1192.08C4369.24 1186.43 4370.86 1179.57 4370.86 1171.51C4370.86 1163.44 4369.31 1156.65 4366.22 1151.14C4363.13 1145.49 4359.03 1141.26 4353.92 1138.43C4348.81 1135.61 4343.3 1134.2 4337.38 1134.2C4331.47 1134.2 4325.95 1135.61 4320.84 1138.43C4315.87 1141.26 4311.9 1145.49 4308.95 1151.14C4305.99 1156.65 4304.51 1163.44 4304.51 1171.51C4304.51 1183.47 4307.53 1192.75 4313.58 1199.34C4319.77 1205.79 4327.5 1209.02 4336.78 1209.02Z" fill="black"/>
<path d="M4209.02 1228.58C4199.61 1228.58 4191.14 1226.96 4183.61 1223.74C4176.08 1220.38 4170.17 1215.67 4165.86 1209.62C4161.56 1203.57 4159.41 1196.51 4159.41 1188.45H4184.01C4184.55 1194.5 4186.9 1199.47 4191.07 1203.37C4195.37 1207.27 4201.36 1209.22 4209.02 1209.22C4216.95 1209.22 4223.14 1207.33 4227.57 1203.57C4232.01 1199.67 4234.23 1194.7 4234.23 1188.65C4234.23 1183.94 4232.82 1180.11 4229.99 1177.15C4227.3 1174.2 4223.88 1171.91 4219.71 1170.3C4215.67 1168.68 4210.03 1166.94 4202.77 1165.05C4193.63 1162.63 4186.16 1160.21 4180.38 1157.79C4174.74 1155.24 4169.9 1151.34 4165.86 1146.1C4161.83 1140.85 4159.81 1133.86 4159.81 1125.12C4159.81 1117.06 4161.83 1110 4165.86 1103.95C4169.9 1097.9 4175.54 1093.26 4182.8 1090.04C4190.06 1086.81 4198.47 1085.2 4208.01 1085.2C4221.59 1085.2 4232.68 1088.62 4241.29 1095.48C4250.02 1102.2 4254.86 1111.48 4255.8 1123.31H4230.4C4229.99 1118.2 4227.57 1113.83 4223.14 1110.2C4218.7 1106.57 4212.85 1104.76 4205.59 1104.76C4199 1104.76 4193.63 1106.44 4189.46 1109.8C4185.29 1113.16 4183.21 1118 4183.21 1124.32C4183.21 1128.62 4184.48 1132.18 4187.04 1135.01C4189.73 1137.69 4193.09 1139.85 4197.12 1141.46C4201.15 1143.07 4206.67 1144.82 4213.66 1146.7C4222.93 1149.26 4230.46 1151.81 4236.24 1154.37C4242.16 1156.92 4247.13 1160.89 4251.17 1166.26C4255.33 1171.51 4257.42 1178.56 4257.42 1187.44C4257.42 1194.56 4255.47 1201.29 4251.57 1207.6C4247.81 1213.92 4242.23 1219.03 4234.83 1222.93C4227.57 1226.69 4218.97 1228.58 4209.02 1228.58Z" fill="black"/>
<path d="M5908.18 535.757C5971.58 535.757 6024.89 563.547 6060.47 608.866L6104.42 548.38H6171.27V968.512H6060.47V908.026C6024.93 953.345 5971.58 981.136 5907.37 981.136C5788.03 981.136 5700.09 885.321 5700.09 757.583C5700.09 629.846 5788.84 535.802 5908.18 535.802V535.757ZM5930.13 887.864C6002.07 887.864 6054.43 834.871 6054.43 758.491C6054.43 682.112 6001.94 628.302 5927.54 628.302C5853.97 629.119 5808.2 682.93 5808.2 758.491C5808.34 834.053 5857.38 887.864 5930.13 887.864Z" fill="black"/>
<path d="M5177.94 548.514H5300.82L5426.25 873.466L5551.68 548.514H5674.56L5500.14 968.418H5352.26L5177.98 548.514H5177.94Z" fill="black"/>
<path d="M4910.98 548.598C5043.59 548.598 5139.8 641.007 5139.8 770.38C5139.8 899.752 5044.46 993.932 4910.98 993.932C4777.51 993.932 4681.35 900.706 4681.35 770.38C4681.35 640.054 4777.51 548.598 4910.98 548.598ZM4910.98 902.34C4983.1 902.34 5034.55 846.895 5034.55 771.333C5034.55 695.771 4983.1 640.19 4910.98 640.19C4838.86 640.19 4786.6 695.635 4786.6 771.333C4786.69 846.895 4838.04 902.34 4910.98 902.34Z" fill="black"/>
<path d="M4159.29 548.471H4212L4271.86 599.648C4311.3 556.009 4364.75 535.756 4425.51 535.756C4532.3 535.756 4592.25 597.06 4592.25 708.768V968.375H4476.36V732.29C4476.36 665.901 4443.46 634.023 4384.42 634.023C4316.3 634.023 4275.22 675.21 4275.22 732.29V968.375H4159.42V548.471H4159.33H4159.29Z" fill="black"/>
<path d="M3810.89 561.65H3688.01L3756.22 777.937H3879.02L3810.89 561.65Z" fill="black"/>
<path d="M3956.74 561.255H4082.89L3928.79 981.159H3802.77L3956.78 561.255H3956.74Z" fill="black"/>
<path d="M3380.44 497.625C3537.23 497.625 3644.3 592.168 3644.3 739.25C3644.3 886.332 3537.23 980.875 3380.44 980.875H3178.75V497.625H3380.44ZM3282.33 576.32V902.089H3378.35C3477.15 902.089 3542.14 837.88 3542.14 739.159C3542.14 640.438 3477.15 576.229 3378.35 576.229H3282.33V576.365V576.32Z" fill="black"/>
<mask id="mask0_119_1088" style="mask-type:luminance" maskUnits="userSpaceOnUse" x="2004" y="256" width="934" height="967">
<path d="M2401.7 721.692H2937.31C2936.87 710.492 2936.14 699.292 2935.11 687.995C2923.07 555.457 2868.35 445.759 2761.75 364.28C2658.77 285.54 2538.7 258.788 2412.28 256.88C2377.18 256.342 2342.09 256.245 2306.99 256.098V627.057C2306.99 679.289 2349.43 721.692 2401.7 721.692ZM2156.83 777.103H2004.61V1222.45C2004.61 1222.45 2220.46 1222.45 2251.54 1222.45V871.738C2251.54 819.506 2209.1 777.103 2156.83 777.103ZM2004.61 256.44V721.692H2156.83C2209.1 721.692 2251.54 679.289 2251.54 627.057V256C2217.77 256 2183.99 256.098 2150.17 256.196C2101.67 256.391 2053.11 256.538 2004.61 256.44ZM2306.99 871.738V1222.45C2338.96 1222.45 2370.92 1222.45 2402.88 1222.5C2454.86 1222.5 2506.99 1218 2557.84 1206.7C2697.14 1175.45 2809.96 1104.98 2880.64 976.595C2915.48 913.456 2932.86 846.551 2936.83 777.054H2401.7C2349.43 777.054 2306.99 819.457 2306.99 871.689V871.738Z" fill="white"/>
</mask>
<g mask="url(#mask0_119_1088)">
<rect x="1448.88" y="-110.084" width="1717.98" height="1716.61" fill="url(#paint0_angular_119_1088)"/>
</g>
</g>
<rect x="0.5" y="0.5" width="8175" height="1535" stroke="black"/>
<defs>
<radialGradient id="paint0_angular_119_1088" cx="0" cy="0" r="1" gradientUnits="userSpaceOnUse" gradientTransform="translate(2307.87 748.222) rotate(90) scale(858.306 858.992)">
<stop offset="0.118623" stop-color="#58FC9A"/>
<stop offset="0.353064" stop-color="#0047FF"/>
<stop offset="0.476146" stop-color="#7867E2"/>
<stop offset="0.630208" stop-color="white"/>
<stop offset="0.869792" stop-color="#7867E2"/>
</radialGradient>
<clipPath id="clip0_119_1088">
<rect width="8176" height="1536" fill="white"/>
</clipPath>
</defs>
</svg>
