<?xml version="1.0" encoding="UTF-8" standalone="no"?>
<svg
   width="1024"
   height="1024"
   viewBox="0 0 1024 1024"
   fill="none"
   version="1.1"
   id="svg26"
   sodipodi:docname="dynova-open-source--imagotype.svg"
   inkscape:version="1.3.2 (091e20ef0f, 2023-11-25)"
   inkscape:export-filename="dynova-open-source--imagotype.png"
   inkscape:export-xdpi="96"
   inkscape:export-ydpi="96"
   xmlns:inkscape="http://www.inkscape.org/namespaces/inkscape"
   xmlns:sodipodi="http://sodipodi.sourceforge.net/DTD/sodipodi-0.dtd"
   xmlns="http://www.w3.org/2000/svg"
   xmlns:svg="http://www.w3.org/2000/svg">
  <sodipodi:namedview
     id="namedview26"
     pagecolor="#ffffff"
     bordercolor="#000000"
     borderopacity="0.25"
     inkscape:showpageshadow="2"
     inkscape:pageopacity="0.0"
     inkscape:pagecheckerboard="0"
     inkscape:deskcolor="#d1d1d1"
     showguides="false"
     inkscape:clip-to-page="false"
     inkscape:zoom="0.0625"
     inkscape:cx="-1592"
     inkscape:cy="6328"
     inkscape:window-width="1720"
     inkscape:window-height="1329"
     inkscape:window-x="20"
     inkscape:window-y="20"
     inkscape:window-maximized="0"
     inkscape:current-layer="svg26" />
  <defs
     id="defs26">
    <linearGradient
       id="paint0_linear_115_2"
       x1="6"
       y1="107"
       x2="103"
       y2="20.000099"
       gradientUnits="userSpaceOnUse"
       gradientTransform="matrix(5.8777461,0,0,5.8777461,1498.8866,253.06113)">
      <stop
         stop-color="#58FC9A"
         id="stop12" />
      <stop
         offset="1"
         stop-color="#712FFF"
         id="stop13" />
    </linearGradient>
    <linearGradient
       id="paint1_linear_115_2"
       x1="6.5"
       y1="111.5"
       x2="111.5"
       y2="38.000099"
       gradientUnits="userSpaceOnUse"
       gradientTransform="matrix(5.8777461,0,0,5.8777461,1498.8866,253.06113)">
      <stop
         stop-color="#58FC9A"
         id="stop14" />
      <stop
         offset="1"
         stop-color="#712FFF"
         id="stop15" />
    </linearGradient>
    <linearGradient
       id="paint2_linear_115_2"
       x1="53.5"
       y1="160"
       x2="202.5"
       y2="24.5"
       gradientUnits="userSpaceOnUse"
       gradientTransform="matrix(5.8777461,0,0,5.8777461,1498.8866,253.06113)">
      <stop
         stop-color="#58FC9A"
         id="stop16" />
      <stop
         offset="0.601575"
         stop-color="#0047FF"
         id="stop17" />
      <stop
         offset="1"
         stop-color="#712FFF"
         id="stop18" />
    </linearGradient>
    <linearGradient
       id="paint3_linear_115_2"
       x1="46"
       y1="154"
       x2="214.5"
       y2="18"
       gradientUnits="userSpaceOnUse"
       gradientTransform="matrix(5.8777461,0,0,5.8777461,1498.8866,253.06113)">
      <stop
         stop-color="#58FC9A"
         id="stop19" />
      <stop
         offset="0.518353"
         stop-color="#0047FF"
         id="stop20" />
      <stop
         offset="1"
         stop-color="#712FFF"
         id="stop21" />
    </linearGradient>
    <linearGradient
       id="paint4_linear_115_2"
       x1="126"
       y1="159.5"
       x2="43.5"
       y2="59.500099"
       gradientUnits="userSpaceOnUse"
       gradientTransform="matrix(5.8777461,0,0,5.8777461,1498.8866,253.06113)">
      <stop
         stop-color="#0047FF"
         id="stop22" />
      <stop
         offset="0.516"
         stop-color="#5B34FF"
         id="stop23" />
      <stop
         offset="1"
         stop-color="#712FFF"
         id="stop24" />
    </linearGradient>
    <linearGradient
       id="paint5_linear_115_2"
       x1="129"
       y1="159"
       x2="62.5"
       y2="45.500099"
       gradientUnits="userSpaceOnUse"
       gradientTransform="matrix(5.8777461,0,0,5.8777461,1498.8866,253.06113)">
      <stop
         stop-color="#0047FF"
         id="stop25" />
      <stop
         offset="1"
         stop-color="#712FFF"
         id="stop26" />
    </linearGradient>
  </defs>
  <rect
     style="fill:#ffffff;fill-opacity:1;stroke-width:0.27346"
     id="rect35"
     width="1024"
     height="1024"
     x="0"
     y="0" />
  <g
     id="g1"
     transform="matrix(0.74999986,0,0,0.74999986,-998.36894,-48.74809)">
    <path
       style="color:#000000;fill:url(#paint0_linear_115_2);stroke-width:5.87775;-inkscape-stroke:none"
       d="m 1615.1502,751.88487 c -0.3932,9.34914 7.2296,16.95671 16.5876,16.95671 v 0 c 9.3574,0 16.9026,-7.60052 17.3317,-16.94848 8.6444,-188.21543 160.4895,-340.03996 348.7138,-348.65145 9.3115,-0.42613 16.8838,-7.94201 16.8838,-17.26411 v 0 c 0,-9.37266 -7.657,-16.9861 -17.0185,-16.52528 -206.802,10.17143 -373.7999,175.70228 -382.4984,382.43261 z"
       id="path29" />
    <path
       style="color:#000000;fill:url(#paint1_linear_115_2);stroke-width:5.87775;-inkscape-stroke:none"
       d="m 1997.0715,357.71256 c -212.7419,10.46359 -384.7181,180.90194 -393.6712,393.68271 -0.6725,15.98963 12.6035,29.20505 28.3326,29.20505 15.7229,0 28.3736,-12.80972 29.0787,-28.17186 8.3683,-182.20203 155.3005,-329.10596 337.5113,-337.44232 15.3266,-0.70141 28.1029,-13.32184 28.1029,-29.00989 0,-15.77503 -13.3279,-29.05258 -29.3543,-28.26369 z"
       id="path30"
       sodipodi:nodetypes="ccsccsc" />
    <path
       style="color:#000000;fill:url(#paint2_linear_115_2);stroke-width:5.87775;-inkscape-stroke:none"
       d="m 2014.6671,270.69436 c -274.4896,0 -498.1472,223.65765 -498.1472,498.14722 0,192.47032 112.4172,368.40892 286.6294,451.06762 4.2761,2.0278 8.5427,4.7199 13.2755,4.7199 v 0 c 0.8805,0 1.7592,0 2.8742,-0.2352 2.7208,-0.576 5.3094,-1.7633 7.6946,-3.1975 3.0194,-1.8103 5.1442,-4.2731 6.375,-6.7358 l 102.1893,-245.88968 c 3.4767,-8.36404 -0.355,-17.98003 -8.6338,-21.6595 v 0 c -8.5633,-3.8029 -18.5813,0.18221 -22.1856,8.83425 l -71.0778,170.58983 c -13.021,31.2461 -49.9467,45.3233 -78.117,26.5498 -127.8275,-85.2156 -206.8305,-228.70312 -206.8305,-384.04372 0,-255.85124 208.4087,-464.2596 464.2599,-464.2596 255.8512,0 464.2585,208.40836 464.2585,464.2596 0,150.2152 -72.3786,289.41782 -192.8724,376.66712 -7.5823,5.4898 -9.7629,15.9522 -4.6787,23.8108 v 0 c 5.2077,8.0525 16.0228,10.2919 23.7932,4.6845 130.3096,-93.991 207.649,-243.26226 207.649,-405.16242 1.6869,-274.48957 -221.9672,-498.14722 -496.4556,-498.14722 z"
       id="path27" />
    <path
       style="color:#000000;fill:url(#paint3_linear_115_2);stroke-width:5.87775;-inkscape-stroke:none"
       d="m 2014.6703,256 c -282.4714,0 -512.8448,230.37344 -512.8448,512.84483 0,198.19188 115.7278,379.27107 295.0238,464.34187 3.1461,1.4921 9.2685,6.1419 19.5734,6.1418 0.8805,0 3.2721,0.01 5.9122,-0.5507 v -0.012 h 0.012 c 4.8721,-1.0314 8.8653,-2.9646 12.2032,-4.9708 5.4526,-3.2693 9.4593,-7.7577 11.9621,-12.7658 l 0.2296,-0.459 102.3899,-246.36024 c 6.4776,-15.58361 -0.8204,-33.87592 -16.2442,-40.73096 -15.9286,-7.07381 -35.0131,0.51548 -41.7182,16.61151 l -71.0725,170.59239 c -9.8295,23.5875 -35.9828,33.5826 -56.4011,19.9752 -123.8183,-82.5427 -200.2914,-221.45522 -200.2914,-371.81347 0,-247.87126 201.6959,-449.56722 449.5672,-449.56722 247.8712,0 449.5672,201.6959 449.5672,449.56722 0,145.49488 -70.0579,280.23047 -186.8021,364.76467 -13.6815,9.9058 -17.748,29.2313 -8.3919,43.6928 9.5709,14.7992 30.2036,19.1012 44.726,8.6214 134.0341,-96.6774 213.7161,-250.44297 213.7456,-416.98703 v -0.0576 C 2527.5205,486.38586 2297.1212,256 2014.6703,256 Z"
       id="path28"
       sodipodi:nodetypes="sscsccccsccccccssscccscs" />
    <path
       style="color:#000000;fill:url(#paint4_linear_115_2);stroke-width:5.87775;-inkscape-stroke:none"
       d="m 2212.3098,1206.2905 c -8.8401,4.42 -19.567,0.4232 -23.3581,-8.6991 L 2087.5253,953.52976 c -3.3886,-8.47571 0,-16.94554 8.4698,-22.02979 60.9993,-32.19241 99.9687,-93.18873 99.9687,-162.65839 0,-99.96812 -81.3304,-182.99305 -182.9913,-182.99305 -99.9693,0 -182.993,81.33037 -182.993,182.99305 0,40.01687 12.9639,77.44283 36.6248,108.87114 5.6197,7.46473 5.0219,18.1446 -2.0396,24.26921 v 0 c -6.9457,6.01881 -17.5045,5.32524 -23.0601,-1.99843 -29.052,-38.28764 -45.4127,-84.1993 -45.4127,-132.83648 0,-118.60645 96.579,-216.88001 216.8806,-216.88001 118.6065,0 216.8824,96.57901 216.8824,216.88001 0,59.04725 -23.3758,114.02769 -64.6082,153.93171 -21.0071,20.32524 -32.1983,50.82487 -21.0893,77.85662 l 76.2931,185.63685 c 3.3915,8.2582 -0.1587,17.7273 -8.1407,21.7183 z"
       id="path31" />
    <path
       style="color:#000000;fill:url(#paint5_linear_115_2);stroke-width:5.87775;-inkscape-stroke:none"
       d="m 2012.9713,535.57178 c -128.304,0 -231.574,104.99079 -231.574,231.57401 0,51.93241 17.5342,101.04274 48.3995,141.72027 10.7037,14.11 31.4552,15.43596 44.3931,4.22463 v -0.0118 c 13.139,-11.39572 14.1271,-30.96438 4.1558,-44.20941 -21.8407,-29.01049 -33.6708,-63.18177 -33.6708,-100.025 0,-93.66238 76.297,-168.2964 168.2964,-168.2964 93.6603,0 168.2964,76.29824 168.2964,168.2964 0,63.97434 -35.619,119.84235 -92.1268,149.66439 l -0.3673,0.18338 -0.3444,0.2069 c -13.1614,7.90051 -20.4399,25.34367 -14.5452,40.08805 l 0.035,0.0917 101.46,244.1561 c 6.9771,16.7883 27.2354,24.3293 43.4976,16.1982 14.7387,-7.3693 21.425,-25.201 15.1651,-40.4439 l -76.2959,-185.64263 c -8.313,-20.22814 0.1116,-44.67422 17.7136,-61.70487 h 0.012 c 44.085,-42.66468 69.075,-101.57118 69.075,-164.49654 0,-128.30359 -104.9908,-231.57401 -231.574,-231.57401 z"
       id="path32"
       sodipodi:nodetypes="csccccsssccscccsccccscc" />
  </g>
  <g
     id="g2"
     transform="translate(-5693.79,-3195)" />
</svg>
