<?xml version="1.0" encoding="UTF-8" standalone="no"?>
<svg
   width="8175.5801"
   height="2304"
   viewBox="0 0 8175.5801 2304"
   fill="none"
   version="1.1"
   id="svg26"
   sodipodi:docname="softbutterfly-open-source--banner--community-project.svg"
   inkscape:version="1.3.2 (091e20ef0f, 2023-11-25)"
   inkscape:export-filename="softbutterfly-open-source--banner--community-project.png"
   inkscape:export-xdpi="96"
   inkscape:export-ydpi="96"
   xmlns:inkscape="http://www.inkscape.org/namespaces/inkscape"
   xmlns:sodipodi="http://sodipodi.sourceforge.net/DTD/sodipodi-0.dtd"
   xmlns="http://www.w3.org/2000/svg"
   xmlns:svg="http://www.w3.org/2000/svg">
  <sodipodi:namedview
     id="namedview26"
     pagecolor="#ffffff"
     bordercolor="#000000"
     borderopacity="0.25"
     inkscape:showpageshadow="2"
     inkscape:pageopacity="0.0"
     inkscape:pagecheckerboard="0"
     inkscape:deskcolor="#d1d1d1"
     showguides="false"
     inkscape:clip-to-page="false"
     inkscape:zoom="0.0625"
     inkscape:cx="1976"
     inkscape:cy="6968"
     inkscape:window-width="1720"
     inkscape:window-height="1329"
     inkscape:window-x="20"
     inkscape:window-y="20"
     inkscape:window-maximized="0"
     inkscape:current-layer="svg26" />
  <defs
     id="defs26">
    <linearGradient
       id="paint0_linear_115_2"
       x1="6"
       y1="107"
       x2="103"
       y2="20.000099"
       gradientUnits="userSpaceOnUse"
       gradientTransform="matrix(5.8777461,0,0,5.8777461,1498.8866,253.06113)">
      <stop
         stop-color="#58FC9A"
         id="stop12" />
      <stop
         offset="1"
         stop-color="#712FFF"
         id="stop13" />
    </linearGradient>
    <linearGradient
       id="paint1_linear_115_2"
       x1="6.5"
       y1="111.5"
       x2="111.5"
       y2="38.000099"
       gradientUnits="userSpaceOnUse"
       gradientTransform="matrix(5.8777461,0,0,5.8777461,1498.8866,253.06113)">
      <stop
         stop-color="#58FC9A"
         id="stop14" />
      <stop
         offset="1"
         stop-color="#712FFF"
         id="stop15" />
    </linearGradient>
    <linearGradient
       id="paint2_linear_115_2"
       x1="53.5"
       y1="160"
       x2="202.5"
       y2="24.5"
       gradientUnits="userSpaceOnUse"
       gradientTransform="matrix(5.8777461,0,0,5.8777461,1498.8866,253.06113)">
      <stop
         stop-color="#58FC9A"
         id="stop16" />
      <stop
         offset="0.601575"
         stop-color="#0047FF"
         id="stop17" />
      <stop
         offset="1"
         stop-color="#712FFF"
         id="stop18" />
    </linearGradient>
    <linearGradient
       id="paint3_linear_115_2"
       x1="46"
       y1="154"
       x2="214.5"
       y2="18"
       gradientUnits="userSpaceOnUse"
       gradientTransform="matrix(5.8777461,0,0,5.8777461,1498.8866,253.06113)">
      <stop
         stop-color="#58FC9A"
         id="stop19" />
      <stop
         offset="0.518353"
         stop-color="#0047FF"
         id="stop20" />
      <stop
         offset="1"
         stop-color="#712FFF"
         id="stop21" />
    </linearGradient>
    <linearGradient
       id="paint4_linear_115_2"
       x1="126"
       y1="159.5"
       x2="43.5"
       y2="59.500099"
       gradientUnits="userSpaceOnUse"
       gradientTransform="matrix(5.8777461,0,0,5.8777461,1498.8866,253.06113)">
      <stop
         stop-color="#0047FF"
         id="stop22" />
      <stop
         offset="0.516"
         stop-color="#5B34FF"
         id="stop23" />
      <stop
         offset="1"
         stop-color="#712FFF"
         id="stop24" />
    </linearGradient>
    <linearGradient
       id="paint5_linear_115_2"
       x1="129"
       y1="159"
       x2="62.5"
       y2="45.500099"
       gradientUnits="userSpaceOnUse"
       gradientTransform="matrix(5.8777461,0,0,5.8777461,1498.8866,253.06113)">
      <stop
         stop-color="#0047FF"
         id="stop25" />
      <stop
         offset="1"
         stop-color="#712FFF"
         id="stop26" />
    </linearGradient>
  </defs>
  <rect
     style="fill:#ffffff;fill-opacity:1;stroke-width:1.15903"
     id="rect35"
     width="8175.5801"
     height="2304"
     x="0"
     y="0" />
  <path
     style="color:#000000;fill:url(#paint0_linear_115_2);stroke-width:5.87775;-inkscape-stroke:none"
     d="m 1615.1502,751.88487 c -0.3932,9.34914 7.2296,16.95671 16.5876,16.95671 v 0 c 9.3574,0 16.9026,-7.60052 17.3317,-16.94848 8.6444,-188.21543 160.4895,-340.03996 348.7138,-348.65145 9.3115,-0.42613 16.8838,-7.94201 16.8838,-17.26411 v 0 c 0,-9.37266 -7.657,-16.9861 -17.0185,-16.52528 -206.802,10.17143 -373.7999,175.70228 -382.4984,382.43261 z"
     id="path29" />
  <path
     style="color:#000000;fill:url(#paint1_linear_115_2);stroke-width:5.87775;-inkscape-stroke:none"
     d="m 1997.0715,357.71256 c -212.7419,10.46359 -384.7181,180.90194 -393.6712,393.68271 -0.6725,15.98963 12.6035,29.20505 28.3326,29.20505 15.7229,0 28.3736,-12.80972 29.0787,-28.17186 8.3683,-182.20203 155.3005,-329.10596 337.5113,-337.44232 15.3266,-0.70141 28.1029,-13.32184 28.1029,-29.00989 0,-15.77503 -13.3279,-29.05258 -29.3543,-28.26369 z"
     id="path30"
     sodipodi:nodetypes="ccsccsc" />
  <path
     style="color:#000000;fill:url(#paint2_linear_115_2);stroke-width:5.87775;-inkscape-stroke:none"
     d="m 2014.6671,270.69436 c -274.4896,0 -498.1472,223.65765 -498.1472,498.14722 0,192.47032 112.4172,368.40892 286.6294,451.06762 4.2761,2.0278 8.5427,4.7199 13.2755,4.7199 v 0 c 0.8805,0 1.7592,0 2.8742,-0.2352 2.7208,-0.576 5.3094,-1.7633 7.6946,-3.1975 3.0194,-1.8103 5.1442,-4.2731 6.375,-6.7358 l 102.1893,-245.88968 c 3.4767,-8.36404 -0.355,-17.98003 -8.6338,-21.6595 v 0 c -8.5633,-3.8029 -18.5813,0.18221 -22.1856,8.83425 l -71.0778,170.58983 c -13.021,31.2461 -49.9467,45.3233 -78.117,26.5498 -127.8275,-85.2156 -206.8305,-228.70312 -206.8305,-384.04372 0,-255.85124 208.4087,-464.2596 464.2599,-464.2596 255.8512,0 464.2585,208.40836 464.2585,464.2596 0,150.2152 -72.3786,289.41782 -192.8724,376.66712 -7.5823,5.4898 -9.7629,15.9522 -4.6787,23.8108 v 0 c 5.2077,8.0525 16.0228,10.2919 23.7932,4.6845 130.3096,-93.991 207.649,-243.26226 207.649,-405.16242 1.6869,-274.48957 -221.9672,-498.14722 -496.4556,-498.14722 z"
     id="path27" />
  <path
     style="color:#000000;fill:url(#paint3_linear_115_2);stroke-width:5.87775;-inkscape-stroke:none"
     d="m 2014.6703,256 c -282.4714,0 -512.8448,230.37344 -512.8448,512.84483 0,198.19188 115.7278,379.27107 295.0238,464.34187 3.1461,1.4921 9.2685,6.1419 19.5734,6.1418 0.8805,0 3.2721,0.01 5.9122,-0.5507 v -0.012 h 0.012 c 4.8721,-1.0314 8.8653,-2.9646 12.2032,-4.9708 5.4526,-3.2693 9.4593,-7.7577 11.9621,-12.7658 l 0.2296,-0.459 102.3899,-246.36024 c 6.4776,-15.58361 -0.8204,-33.87592 -16.2442,-40.73096 -15.9286,-7.07381 -35.0131,0.51548 -41.7182,16.61151 l -71.0725,170.59239 c -9.8295,23.5875 -35.9828,33.5826 -56.4011,19.9752 -123.8183,-82.5427 -200.2914,-221.45522 -200.2914,-371.81347 0,-247.87126 201.6959,-449.56722 449.5672,-449.56722 247.8712,0 449.5672,201.6959 449.5672,449.56722 0,145.49488 -70.0579,280.23047 -186.8021,364.76467 -13.6815,9.9058 -17.748,29.2313 -8.3919,43.6928 9.5709,14.7992 30.2036,19.1012 44.726,8.6214 134.0341,-96.6774 213.7161,-250.44297 213.7456,-416.98703 v -0.0576 C 2527.5205,486.38586 2297.1212,256 2014.6703,256 Z"
     id="path28"
     sodipodi:nodetypes="sscsccccsccccccssscccscs" />
  <path
     style="color:#000000;fill:url(#paint4_linear_115_2);stroke-width:5.87775;-inkscape-stroke:none"
     d="m 2212.3098,1206.2905 c -8.8401,4.42 -19.567,0.4232 -23.3581,-8.6991 L 2087.5253,953.52976 c -3.3886,-8.47571 0,-16.94554 8.4698,-22.02979 60.9993,-32.19241 99.9687,-93.18873 99.9687,-162.65839 0,-99.96812 -81.3304,-182.99305 -182.9913,-182.99305 -99.9693,0 -182.993,81.33037 -182.993,182.99305 0,40.01687 12.9639,77.44283 36.6248,108.87114 5.6197,7.46473 5.0219,18.1446 -2.0396,24.26921 v 0 c -6.9457,6.01881 -17.5045,5.32524 -23.0601,-1.99843 -29.052,-38.28764 -45.4127,-84.1993 -45.4127,-132.83648 0,-118.60645 96.579,-216.88001 216.8806,-216.88001 118.6065,0 216.8824,96.57901 216.8824,216.88001 0,59.04725 -23.3758,114.02769 -64.6082,153.93171 -21.0071,20.32524 -32.1983,50.82487 -21.0893,77.85662 l 76.2931,185.63685 c 3.3915,8.2582 -0.1587,17.7273 -8.1407,21.7183 z"
     id="path31" />
  <path
     style="color:#000000;fill:url(#paint5_linear_115_2);stroke-width:5.87775;-inkscape-stroke:none"
     d="m 2012.9713,535.57178 c -128.304,0 -231.574,104.99079 -231.574,231.57401 0,51.93241 17.5342,101.04274 48.3995,141.72027 10.7037,14.11 31.4552,15.43596 44.3931,4.22463 v -0.0118 c 13.139,-11.39572 14.1271,-30.96438 4.1558,-44.20941 -21.8407,-29.01049 -33.6708,-63.18177 -33.6708,-100.025 0,-93.66238 76.297,-168.2964 168.2964,-168.2964 93.6603,0 168.2964,76.29824 168.2964,168.2964 0,63.97434 -35.619,119.84235 -92.1268,149.66439 l -0.3673,0.18338 -0.3444,0.2069 c -13.1614,7.90051 -20.4399,25.34367 -14.5452,40.08805 l 0.035,0.0917 101.46,244.1561 c 6.9771,16.7883 27.2354,24.3293 43.4976,16.1982 14.7387,-7.3693 21.425,-25.201 15.1651,-40.4439 l -76.2959,-185.64263 c -8.313,-20.22814 0.1116,-44.67422 17.7136,-61.70487 h 0.012 c 44.085,-42.66468 69.075,-101.57118 69.075,-164.49654 0,-128.30359 -104.9908,-231.57401 -231.574,-231.57401 z"
     id="path32"
     sodipodi:nodetypes="csccccsssccscccsccccscc" />
  <path
     d="m 3150.5623,930.91104 c -44.8406,44.4217 -99.4175,66.63041 -163.7175,66.63041 -64.3043,0 -118.8768,-22.20871 -163.7218,-66.63041 -44.4217,-44.84498 -66.6304,-99.62704 -66.6304,-164.35467 0,-64.72755 22.2087,-119.30006 66.6304,-163.72176 44.845,-44.84068 99.4175,-67.26323 163.7218,-67.26323 64.3,0 118.8769,22.42255 163.7175,67.26323 44.845,44.4217 67.2632,98.99421 67.2632,163.72176 0,64.72763 -22.4182,119.50969 -67.2632,164.35467 z M 2884.678,871.25887 c 27.4979,27.07891 61.5506,40.61617 102.1668,40.61617 40.6119,0 74.6646,-13.53726 102.1626,-40.61617 27.4979,-27.4979 41.249,-62.3973 41.249,-104.7025 0,-42.3051 -13.7511,-77.2088 -41.249,-104.7067 -27.498,-27.4979 -61.5507,-41.2447 -102.1626,-41.2447 -40.6162,0 -74.6689,13.7468 -102.1668,41.2447 -27.4979,27.4979 -41.2491,62.4016 -41.2491,104.7067 0,42.3052 13.7512,77.2046 41.2491,104.7025 z m 588.2422,-208.77208 c 42.7289,0 79.1106,16.28667 109.1451,48.86004 30.4592,32.15427 45.6936,71.71005 45.6936,118.66734 0,46.95718 -15.2344,86.7225 -45.6936,119.30005 -30.0345,32.15009 -66.4162,48.22723 -109.1451,48.22723 -44.4216,0 -78.6881,-15.44003 -102.7996,-46.32447 v 164.35472 h -81.8609 V 671.37196 h 81.8609 v 37.43928 c 24.1115,-30.88444 58.378,-46.32445 102.7996,-46.32445 z m -78.0554,232.25501 c 16.5005,16.49612 37.4436,24.74848 62.825,24.74848 25.3813,0 46.3238,-8.25236 62.8255,-24.74848 16.921,-16.92379 25.3787,-38.49967 25.3787,-64.72763 0,-26.22807 -8.4577,-47.59441 -25.3787,-64.09053 -16.5017,-16.92379 -37.4442,-25.3857 -62.8255,-25.3857 -25.3814,0 -46.3245,8.46191 -62.825,25.3857 -16.4961,16.49612 -24.7442,37.86246 -24.7442,64.09053 0,26.22796 8.2481,47.80384 24.7442,64.72763 z m 372.4903,-31.09398 c 10.9899,39.76532 40.81,59.64798 89.4637,59.64798 31.3117,0 54.9912,-10.5741 71.0861,-31.7267 l 65.9745,38.072 c -31.2867,45.26836 -77.3977,67.90035 -138.3325,67.90035 -52.4482,0 -94.5472,-15.86341 -126.2738,-47.59441 -31.7293,-31.7267 -47.5864,-71.70576 -47.5864,-119.93287 0,-47.80395 15.642,-87.57347 46.9494,-119.30017 31.3108,-32.15008 71.5013,-48.22721 120.5735,-48.22721 46.5299,0 84.8131,16.07713 114.8509,48.22721 30.4561,32.14998 45.6963,71.9196 45.6963,119.30017 0,10.5741 -1.053,21.78532 -3.1801,33.63365 z m -1.269,-63.4577 h 161.8188 c -4.6699,-21.57588 -14.3841,-37.65302 -29.2066,-48.22712 -14.3838,-10.5784 -30.8717,-15.86769 -49.4887,-15.86769 -21.9936,0 -40.1906,5.71257 -54.5745,17.13334 -14.3839,11.00167 -23.9002,26.65553 -28.549,46.96147 z m 489.9283,-137.70333 c 34.6871,0 63.2331,11.63459 85.6671,34.8994 22.8491,23.26909 34.2421,55.41908 34.2421,96.45863 v 194.81144 h -81.848 V 803.99564 c 0,-21.1526 -5.6971,-37.22973 -17.121,-48.22722 -11.4251,-11.42066 -26.6664,-17.13324 -45.6978,-17.13324 -21.1614,0 -38.0895,6.55485 -50.7571,19.67312 -12.6979,13.11398 -19.0602,32.78291 -19.0602,59.01516 v 171.3328 h -81.8497 v -317.2843 h 81.8497 v 35.53223 c 19.8883,-29.61021 51.4229,-44.4174 94.5749,-44.4174 z m 529.3206,335.05466 c -44.0132,0 -81.0217,-9.73185 -111.0629,-29.19113 -30.0053,-19.88266 -51.1687,-46.74773 -63.4538,-80.59104 l 74.8781,-43.78458 c 17.3434,45.26406 51.4293,67.90034 102.1853,67.90034 24.5354,0 42.5153,-4.44264 53.9398,-13.32781 11.4246,-8.88519 17.1181,-20.0964 17.1181,-33.63377 0,-15.64956 -6.9667,-27.70734 -20.9387,-36.16923 -13.9724,-8.88518 -38.9191,-18.40328 -74.8789,-28.55411 -19.89,-5.92631 -36.7838,-11.84833 -50.7554,-17.77036 -13.5598,-5.92202 -27.3066,-13.7468 -41.2418,-23.47864 -13.559,-10.15511 -23.8984,-22.84581 -31.0904,-38.072 -7.192,-15.23058 -10.788,-33.00093 -10.788,-53.30687 0,-40.18861 14.1594,-72.12915 42.5148,-95.82152 28.768,-24.11147 63.2301,-36.16935 103.4223,-36.16935 35.9598,0 67.4619,8.88518 94.5441,26.65135 27.4939,17.34708 48.883,41.67227 64.0903,72.97569 l -73.6046,42.51894 c -17.7552,-38.0764 -46.111,-57.11239 -85.0298,-57.11239 -18.2042,0 -32.588,4.2288 -43.1516,12.69069 -10.1509,8.03853 -15.2453,18.61273 -15.2453,31.72671 0,13.96493 5.7309,25.38569 17.1553,34.27087 11.8374,8.45761 34.2747,17.76606 67.2752,27.92118 13.5223,4.22881 23.6731,7.61095 30.4531,10.15082 7.192,2.1166 16.7067,5.71258 28.5431,10.78795 12.2865,4.65208 21.5758,9.09472 27.9058,13.32781 6.7802,4.2288 14.3839,9.94128 22.8497,17.13324 8.4652,7.19196 14.8338,14.59347 19.0668,22.2087 4.6444,7.61535 8.4271,16.9238 11.4248,27.92129 3.371,10.57839 5.056,22.2087 5.056,34.90359 0,41.03526 -15.0207,73.60863 -45.0623,97.72428 -29.591,24.11146 -68.323,36.16935 -116.1191,36.16935 z m 506.1711,-48.22723 c -32.5487,32.15009 -72.3304,48.22723 -119.3039,48.22723 -46.933,0 -86.7145,-16.07714 -119.264,-48.22723 -32.1777,-32.57755 -48.247,-72.34287 -48.247,-119.30005 0,-46.95729 16.0693,-86.51307 48.247,-118.66734 32.5495,-32.57337 72.331,-48.86004 119.264,-48.86004 46.9735,0 86.7552,16.28667 119.3039,48.86004 32.5899,32.15427 48.8849,71.71005 48.8849,118.66734 0,46.95718 -16.295,86.7225 -48.8849,119.30005 z m -180.8467,-56.47947 c 16.5206,16.50041 37.0079,24.74848 61.5428,24.74848 24.5755,0 45.0625,-8.24807 61.5835,-24.74848 16.4798,-16.49623 24.7195,-37.43928 24.7195,-62.82058 0,-25.38141 -8.2397,-46.32447 -24.7195,-62.82498 -16.521,-16.49613 -37.008,-24.74849 -61.5835,-24.74849 -24.5349,0 -45.0222,8.25236 -61.5428,24.74849 -16.069,16.50051 -24.1234,37.44357 -24.1234,62.82498 0,25.3813 8.0544,46.32435 24.1234,62.82058 z m 509.411,-221.46279 h 81.8435 v 317.2843 h -81.8435 v -35.53652 c -19.891,29.6145 -51.3907,44.42171 -94.543,44.42171 -34.6855,0 -63.4534,-11.63461 -86.3035,-34.9037 -22.4394,-23.26481 -33.638,-55.41909 -33.638,-96.45435 V 671.37196 h 81.8439 v 184.66062 c 0,21.1526 5.7338,37.43929 17.1589,48.86004 11.4251,11.00168 26.6298,16.50042 45.7003,16.50042 21.1222,0 38.0544,-6.55913 50.7537,-19.67312 12.6994,-13.11398 19.0277,-32.7871 19.0277,-59.01516 z m 251.3757,54.57253 c 7.6451,-20.30595 20.1172,-35.53643 37.4601,-45.69155 17.7536,-10.15092 37.4182,-15.23057 58.9939,-15.23057 v 91.37888 c -24.9452,-2.95887 -47.3852,2.11659 -67.2332,15.23058 -19.4812,13.11397 -29.2208,34.90369 -29.2208,65.36046 v 151.66397 h -81.8446 v -317.2843 h 81.8446 z m 296.2673,271.59696 c -47.7948,0 -87.7628,-16.07714 -119.8995,-48.22723 -31.727,-32.15427 -47.6115,-71.91949 -47.6115,-119.30005 0,-47.38057 15.8845,-87.15019 47.6115,-119.30017 32.1367,-32.15008 72.1047,-48.22721 119.8995,-48.22721 30.905,0 59.0352,7.4015 84.4339,22.2087 25.3559,14.80719 44.6115,34.68985 57.7216,59.65227 l -70.4192,41.2447 c -6.3712,-13.11397 -16.0689,-23.47864 -29.178,-31.09387 -12.6994,-7.61534 -27.0836,-11.42077 -43.197,-11.42077 -24.5345,0 -44.8361,8.24807 -60.9049,24.74849 -16.0679,16.07293 -24.1238,36.80645 -24.1238,62.18786 0,24.95802 8.0559,45.68724 24.1238,62.18776 16.0688,16.07713 36.3704,24.11575 60.9049,24.11575 16.5224,0 31.1329,-3.59598 43.7894,-10.78794 13.1537,-7.61534 22.8514,-17.9799 29.2226,-31.09827 l 71.0545,40.61627 c -13.9734,24.95803 -33.638,45.05442 -58.9939,60.285 -25.3987,14.80291 -53.5289,22.20871 -84.4339,22.20871 z M 6431.323,863.64782 c 11.0146,39.76532 40.8296,59.64798 89.4887,59.64798 31.3163,0 54.9874,-10.5741 71.0992,-31.7267 l 65.9592,38.072 c -31.2734,45.26836 -77.3846,67.90035 -138.3324,67.90035 -52.4384,0 -94.543,-15.86341 -126.27,-47.59441 -31.726,-31.7267 -47.6115,-71.70576 -47.6115,-119.93287 0,-47.80395 15.6582,-87.57347 46.9745,-119.30017 31.3163,-32.15008 71.5089,-48.22721 120.5788,-48.22721 46.5208,0 84.8023,16.07713 114.8446,48.22721 30.453,32.14998 45.7004,71.9196 45.7004,119.30017 0,10.5741 -1.0477,21.78532 -3.186,33.63365 z m -1.2312,-63.4577 h 161.8191 c -4.6864,-21.57588 -14.4271,-37.65302 -29.2219,-48.22712 -14.3831,-10.5784 -30.8626,-15.86769 -49.4795,-15.86769 -21.9864,0 -40.1926,5.71257 -54.5767,17.13334 -14.3841,11.00167 -23.8975,26.65553 -28.541,46.96147 z"
     fill="#000000"
     id="path4"
     style="stroke-width:6.61152" />
  <path
     id="path5"
     d="m 5682.1336,1115.5717 v 160.1332 h 66.827 c 51.954,0 87.4421,-31.3312 87.4421,-80.0727 0,-48.7351 -35.4881,-80.0605 -87.4421,-80.0605 z m 413.1364,12.6235 c -20.1353,0 -37.844,6.7137 -50.917,21.1756 l -19.8312,-16.9554 h -17.4296 v 139.1438 h 38.3814 v -78.2305 c 0,-18.9115 13.6071,-32.5664 36.1772,-32.5664 19.5616,0 30.4751,10.5699 30.4751,32.5664 v 78.2305 h 38.3933 v -86.0361 c 0,-37.0134 -19.8611,-57.3279 -55.2492,-57.3279 z m 491.3037,0 v 0 c -39.5439,0 -68.943,31.1706 -68.943,73.4999 0,42.3293 29.1314,74.0722 68.6817,74.0722 21.2762,0 38.9575,-9.2091 50.7296,-24.2261 v 20.0428 h 36.7125 v -139.2183 h -22.1468 l -14.5657,20.0557 c -11.7913,-15.0171 -29.4598,-24.2383 -50.4683,-24.2383 z m -330.4363,4.2323 c -44.2288,0 -76.0889,30.3043 -76.0889,73.4871 0,43.1835 31.8601,74.0851 76.0889,74.0851 44.2287,0 75.8275,-31.2139 75.8275,-74.0851 0,-42.8704 -31.8856,-73.4871 -75.8275,-73.4871 z m 88.4753,0 57.7516,139.1438 h 48.9997 l 57.8015,-139.1438 h -40.7213 l -41.5554,107.6852 -41.567,-107.6852 z m -493.694,4.2209 22.6071,71.6692 h 40.136 l -24.7487,67.474 h 41.7544 l 51.0661,-139.1432 h -41.7792 l -25.9937,70.8476 -22.3087,-70.8476 z m -134.4627,4.9672 h 31.82 c 32.7423,0 54.2651,21.268 54.2651,53.979 0,32.7174 -21.5228,54.0045 -54.2651,54.0045 h -31.82 v -107.9216 z m -318.672,7.0834 v 124.9266 h 53.0083 c 10.944,0 20.1657,-3.389 27.6615,-10.1708 7.4957,-6.782 11.2417,-15.469 11.2417,-26.0561 0,-12.7287 -5.4764,-22.2546 -16.4205,-28.5584 7.8527,-6.3039 11.7892,-14.6339 11.7892,-24.9852 0,-10.2302 -3.6924,-18.6259 -11.067,-25.172 -7.2599,-6.6607 -16.244,-9.9841 -26.9522,-9.9841 z m 94.8123,0 42.6506,76.201 v 48.7256 h 24.4498 V 1224.9 l 42.8373,-76.201 h -27.8484 l -27.1268,52.112 -27.1262,-52.112 z m 1100.401,10.1709 c 24.6481,0 42.0407,17.8317 42.0407,43.1362 0,25.3109 -17.3429,42.8743 -41.1814,42.8743 -24.1062,0 -40.3464,-17.8311 -40.4101,-42.8743 0,-25.0368 15.1706,-42.8621 39.5508,-43.1362 z m -336.8599,3.9091 c 23.8958,0 40.9448,18.4162 40.9448,43.4594 0,25.0369 -17.049,43.4104 -40.9448,43.4104 -24.1701,0 -41.2191,-18.3735 -41.2191,-43.4104 0,-25.0878 17.3167,-43.4594 41.2191,-43.4594 z m -833.7169,8.9382 h 24.6245 c 3.9264,0 7.1368,1.3015 9.6354,3.9212 2.4986,2.6197 3.7473,5.8966 3.7473,9.8229 0,3.9264 -1.3079,7.1898 -3.9213,9.8095 -2.4986,2.6197 -5.6561,3.934 -9.4614,3.934 h -24.6245 z m 0,49.4356 h 28.3718 c 4.1621,0 7.6168,1.4265 10.3576,4.282 2.7344,2.7345 4.0959,6.1955 4.0959,10.3577 0,4.2833 -1.3615,7.8507 -4.0959,10.7063 -2.7408,2.7344 -6.1955,4.0959 -10.3576,4.0959 h -28.3718 z"
     style="fill:#000000;fill-opacity:1;stroke-width:6.37394" />
  <path
     id="path34"
     d="m 5682.1336,1115.5717 v 160.1332 h 66.827 c 51.954,0 87.4421,-31.3312 87.4421,-80.0727 0,-48.7351 -35.4881,-80.0605 -87.4421,-80.0605 z m 413.1364,12.6235 c -20.1353,0 -37.844,6.7137 -50.917,21.1756 l -19.8312,-16.9554 h -17.4296 v 139.1438 h 38.3814 v -78.2305 c 0,-18.9115 13.6071,-32.5664 36.1772,-32.5664 19.5616,0 30.4751,10.5699 30.4751,32.5664 v 78.2305 h 38.3933 v -86.0361 c 0,-37.0134 -19.8611,-57.3279 -55.2492,-57.3279 z m 491.3037,0 v 0 c -39.5439,0 -68.943,31.1706 -68.943,73.4999 0,42.3293 29.1314,74.0722 68.6817,74.0722 21.2762,0 38.9575,-9.2091 50.7296,-24.2261 v 20.0428 h 36.7125 v -139.2183 h -22.1468 l -14.5657,20.0557 c -11.7913,-15.0171 -29.4598,-24.2383 -50.4683,-24.2383 z m -330.4363,4.2323 c -44.2288,0 -76.0889,30.3043 -76.0889,73.4871 0,43.1835 31.8601,74.0851 76.0889,74.0851 44.2287,0 75.8275,-31.2139 75.8275,-74.0851 0,-42.8704 -31.8856,-73.4871 -75.8275,-73.4871 z m 88.4753,0 57.7516,139.1438 h 48.9997 l 57.8015,-139.1438 h -40.7213 l -41.5554,107.6852 -41.567,-107.6852 z m -493.694,4.2209 22.6071,71.6692 h 40.136 l -24.7487,67.474 h 41.7544 l 51.0661,-139.1432 h -41.7792 l -25.9937,70.8476 -22.3087,-70.8476 z m -134.4627,4.9672 h 31.82 c 32.7423,0 54.2651,21.268 54.2651,53.979 0,32.7174 -21.5228,54.0045 -54.2651,54.0045 h -31.82 v -107.9216 z m -318.672,7.0834 v 124.9266 h 53.0083 c 10.944,0 20.1657,-3.389 27.6615,-10.1708 7.4957,-6.782 11.2417,-15.469 11.2417,-26.0561 0,-12.7287 -5.4764,-22.2546 -16.4205,-28.5584 7.8527,-6.3039 11.7892,-14.6339 11.7892,-24.9852 0,-10.2302 -3.6924,-18.6259 -11.067,-25.172 -7.2599,-6.6607 -16.244,-9.9841 -26.9522,-9.9841 z m 94.8123,0 42.6506,76.201 v 48.7256 h 24.4498 V 1224.9 l 42.8373,-76.201 h -27.8484 l -27.1268,52.112 -27.1262,-52.112 z m 1100.401,10.1709 c 24.6481,0 42.0407,17.8317 42.0407,43.1362 0,25.3109 -17.3429,42.8743 -41.1814,42.8743 -24.1062,0 -40.3464,-17.8311 -40.4101,-42.8743 0,-25.0368 15.1706,-42.8621 39.5508,-43.1362 z m -336.8599,3.9091 c 23.8958,0 40.9448,18.4162 40.9448,43.4594 0,25.0369 -17.049,43.4104 -40.9448,43.4104 -24.1701,0 -41.2191,-18.3735 -41.2191,-43.4104 0,-25.0878 17.3167,-43.4594 41.2191,-43.4594 z m -833.7169,8.9382 h 24.6245 c 3.9264,0 7.1368,1.3015 9.6354,3.9212 2.4986,2.6197 3.7473,5.8966 3.7473,9.8229 0,3.9264 -1.3079,7.1898 -3.9213,9.8095 -2.4986,2.6197 -5.6561,3.934 -9.4614,3.934 h -24.6245 z m 0,49.4356 h 28.3718 c 4.1621,0 7.6168,1.4265 10.3576,4.282 2.7344,2.7345 4.0959,6.1955 4.0959,10.3577 0,4.2833 -1.3615,7.8507 -4.0959,10.7063 -2.7408,2.7344 -6.1955,4.0959 -10.3576,4.0959 h -28.3718 z"
     style="fill:#000000;fill-opacity:1;stroke-width:6.37394" />
  <g
     id="g2"
     transform="translate(-2118,-2555)" />
  <g
     id="g3">
    <path
       style="font-style:normal;font-weight:normal;font-size:42.3559px;line-height:1.25;font-family:sans-serif;letter-spacing:0px;word-spacing:0px;fill:#313fb9;fill-opacity:0.235294;stroke:none;stroke-width:16.3728;stroke-miterlimit:4;stroke-dasharray:none;stroke-dashoffset:2.5;stroke-opacity:1;paint-order:stroke markers fill"
       d="m 4289.8902,4091 v 512 h 5683.69 a 64,64 0 0 0 63.9998,-64 v -384 a 64,64 0 0 0 -63.9998,-64 z"
       id="path907-3"
       inkscape:connector-curvature="0"
       transform="translate(-2118,-2555)" />
    <g
       id="g1"
       transform="translate(-2118,-2555)">
      <path
         style="font-style:normal;font-weight:normal;font-size:42.3559px;line-height:1.25;font-family:sans-serif;letter-spacing:0px;word-spacing:0px;fill:#313fb9;fill-opacity:1;stroke:none;stroke-width:9.84745;stroke-miterlimit:4;stroke-dasharray:none;stroke-dashoffset:2.5;stroke-opacity:1;paint-order:stroke markers fill"
         d="m 2438,4091 a 64,64 0 0 0 -64,64 v 384 a 64,64 0 0 0 64,64 h 1851.8902 v -512 z"
         id="rect889-6" />
      <text
         xml:space="preserve"
         style="font-style:normal;font-weight:normal;font-size:147.803px;line-height:1.25;font-family:sans-serif;letter-spacing:0px;word-spacing:0px;fill:#ffffff;fill-opacity:1;stroke:none;stroke-width:2.71077"
         x="2646.2937"
         y="4388.9023"
         id="text883-7"><tspan
           sodipodi:role="line"
           id="tspan881-5"
           x="2646.2937"
           y="4388.9023"
           style="font-style:normal;font-variant:normal;font-weight:600;font-stretch:normal;font-size:147.803px;font-family:'URW Gothic L';-inkscape-font-specification:'URW Gothic L Semi-Bold';fill:#ffffff;fill-opacity:1;stroke-width:2.71077">Community Project</tspan></text>
    </g>
    <text
       xml:space="preserve"
       style="font-style:normal;font-weight:normal;font-size:204.799px;line-height:0.75;font-family:sans-serif;letter-spacing:0px;word-spacing:0px;fill:#000000;fill-opacity:1;stroke:none;stroke-width:5.42157"
       x="4417.1138"
       y="4301.2373"
       id="text921-3"
       transform="translate(-2118,-2555)"><tspan
         sodipodi:role="line"
         x="4417.1138"
         y="4301.2373"
         style="font-style:normal;font-variant:normal;font-weight:normal;font-stretch:normal;font-size:110.853px;line-height:0.75;font-family:'URW Gothic L';-inkscape-font-specification:'URW Gothic L';stroke-width:5.42157"
         id="tspan923-5">This is an offcial                   open source community project, supported by maintainer(s) within</tspan><tspan
         sodipodi:role="line"
         x="4417.1138"
         y="4454.8364"
         style="font-style:normal;font-variant:normal;font-weight:normal;font-stretch:normal;font-size:110.853px;line-height:0.75;font-family:'URW Gothic L';-inkscape-font-specification:'URW Gothic L';stroke-width:5.42157"
         id="tspan927-6">                 .</tspan></text>
    <path
       id="path34-6"
       d="m 3146.373,1664.3379 v 81.8838 h 34.172 c 26.5664,0 44.7132,-16.0213 44.7132,-40.9448 0,-24.9207 -18.1468,-40.939 -44.7132,-40.939 z m 211.2567,6.4552 c -10.2963,0 -19.3516,3.4328 -26.0365,10.8283 l -10.1407,-8.6706 h -8.9122 v 71.1513 h 19.6259 v -40.0034 c 0,-9.6702 6.9581,-16.6529 18.4993,-16.6529 10.003,0 15.5837,5.4051 15.5837,16.6529 v 40.0034 h 19.6323 v -43.9946 c 0,-18.9269 -10.1561,-29.3144 -28.2518,-29.3144 z m 251.2273,0 v 0 c -20.2207,0 -35.254,15.9389 -35.254,37.5838 0,21.645 14.8965,37.8766 35.1204,37.8766 10.8796,0 19.9211,-4.7088 25.9407,-12.3877 v 10.2488 h 18.7727 v -71.1892 h -11.3247 l -7.448,10.2553 c -6.0294,-7.6787 -15.0644,-12.3938 -25.8071,-12.3938 z m -168.9682,2.1639 c -22.6163,0 -38.9076,15.4963 -38.9076,37.5775 0,22.0819 16.2913,37.8834 38.9076,37.8834 22.6164,0 38.7744,-15.9611 38.7744,-37.8834 0,-21.9216 -16.3045,-37.5775 -38.7744,-37.5775 z m 45.2419,0 29.5311,71.1511 h 25.056 l 29.5569,-71.1511 h -20.8231 l -21.2492,55.0649 -21.255,-55.0649 z m -252.4496,2.1586 11.5599,36.6478 h 20.5236 l -12.6551,34.5025 h 21.3509 l 26.1126,-71.1503 h -21.3636 l -13.292,36.2279 -11.4077,-36.2279 z m -68.7574,2.5398 h 16.2711 c 16.7426,0 27.7483,10.8753 27.7483,27.6023 0,16.7302 -11.0057,27.615 -27.7483,27.615 h -16.2711 v -55.1854 z m 448.2181,8.8227 c 12.6036,0 21.4976,9.1186 21.4976,22.0583 0,12.9423 -8.8685,21.9234 -21.0585,21.9234 -12.3264,0 -20.631,-9.1179 -20.6633,-21.9234 0,-12.803 7.7573,-21.918 20.2242,-22.0583 z m -172.253,1.9993 c 12.2192,0 20.9372,9.4171 20.9372,22.2225 0,12.8029 -8.718,22.1983 -20.9372,22.1983 -12.3593,0 -21.0773,-9.3954 -21.0773,-22.1983 0,-12.8284 8.8552,-22.2225 21.0773,-22.2225 z"
       style="fill:#000000;fill-opacity:1;stroke-width:3.25931"
       sodipodi:nodetypes="ccssscscccccsssccsscsssccccccccssssscccccccccccccccccccsssccccssccsssss" />
    <path
       id="path2"
       d="m 2307.5761,1817.9862 v 81.8838 h 34.172 c 26.5664,0 44.7132,-16.0213 44.7132,-40.9448 0,-24.9207 -18.1468,-40.939 -44.7132,-40.939 z m 211.2567,6.4552 c -10.2963,0 -19.3516,3.4328 -26.0365,10.8283 l -10.1407,-8.6706 h -8.9122 v 71.1513 h 19.6259 v -40.0034 c 0,-9.6702 6.9581,-16.6529 18.4993,-16.6529 10.003,0 15.5837,5.4051 15.5837,16.6529 v 40.0034 h 19.6323 v -43.9946 c 0,-18.9269 -10.1561,-29.3144 -28.2518,-29.3144 z m 251.2273,0 v 0 c -20.2207,0 -35.254,15.9389 -35.254,37.5838 0,21.645 14.8965,37.8766 35.1204,37.8766 10.8796,0 19.9211,-4.7088 25.9407,-12.3877 v 10.2488 h 18.7727 v -71.1892 h -11.3247 l -7.448,10.2553 c -6.0294,-7.6787 -15.0644,-12.3938 -25.8071,-12.3938 z m -168.9682,2.1639 c -22.6163,0 -38.9076,15.4963 -38.9076,37.5775 0,22.0819 16.2913,37.8834 38.9076,37.8834 22.6164,0 38.7744,-15.9611 38.7744,-37.8834 0,-21.9216 -16.3045,-37.5775 -38.7744,-37.5775 z m 45.2419,0 29.5311,71.1511 h 25.056 l 29.5569,-71.1511 h -20.8231 l -21.2492,55.0649 -21.255,-55.0649 z m -252.4496,2.1586 11.5599,36.6478 h 20.5236 l -12.6551,34.5025 h 21.3509 l 26.1126,-71.1503 h -21.3636 l -13.292,36.2279 -11.4077,-36.2279 z m -68.7574,2.5398 h 16.2711 c 16.7426,0 27.7483,10.8753 27.7483,27.6023 0,16.7302 -11.0057,27.615 -27.7483,27.615 h -16.2711 v -55.1854 z m 448.2181,8.8227 c 12.6036,0 21.4976,9.1186 21.4976,22.0583 0,12.9423 -8.8685,21.9234 -21.0585,21.9234 -12.3264,0 -20.631,-9.1179 -20.6633,-21.9234 0,-12.803 7.7573,-21.918 20.2242,-22.0583 z m -172.253,1.9993 c 12.2192,0 20.9372,9.4171 20.9372,22.2225 0,12.8029 -8.718,22.1983 -20.9372,22.1983 -12.3593,0 -21.0773,-9.3954 -21.0773,-22.1983 0,-12.8284 8.8552,-22.2225 21.0773,-22.2225 z"
       style="fill:#000000;fill-opacity:1;stroke-width:3.25931"
       sodipodi:nodetypes="ccssscscccccsssccsscsssccccccccssssscccccccccccccccccccsssccccssccsssss" />
  </g>
</svg>
