<?xml version="1.0" encoding="UTF-8" standalone="no"?>
<!-- Created with Inkscape (http://www.inkscape.org/) -->

<svg
   xmlns:dc="http://purl.org/dc/elements/1.1/"
   xmlns:cc="http://creativecommons.org/ns#"
   xmlns:rdf="http://www.w3.org/1999/02/22-rdf-syntax-ns#"
   xmlns:svg="http://www.w3.org/2000/svg"
   xmlns="http://www.w3.org/2000/svg"
   xmlns:sodipodi="http://sodipodi.sourceforge.net/DTD/sodipodi-0.dtd"
   xmlns:inkscape="http://www.inkscape.org/namespaces/inkscape"
   width="429.8934mm"
   height="125.36755mm"
   viewBox="0 0 429.89341 125.36755"
   version="1.1"
   id="svg1334"
   inkscape:version="0.92.4 (5da689c313, 2019-01-14)"
   sodipodi:docname="softbutterfly-open-source--banner--experimental.svg"
   inkscape:export-filename="/home/zodiac/Development/softbutterfly/open-source/open-source-office/banners/softbutterfly-open-source--banner--experimental.png"
   inkscape:export-xdpi="90"
   inkscape:export-ydpi="90">
  <defs
     id="defs1328" />
  <sodipodi:namedview
     id="base"
     pagecolor="#ffffff"
     bordercolor="#666666"
     borderopacity="1.0"
     inkscape:pageopacity="0.0"
     inkscape:pageshadow="2"
     inkscape:zoom="0.98994948"
     inkscape:cx="407.03894"
     inkscape:cy="263.05565"
     inkscape:document-units="mm"
     inkscape:current-layer="text2007"
     showgrid="false"
     inkscape:snap-bbox="true"
     inkscape:bbox-paths="true"
     inkscape:bbox-nodes="true"
     inkscape:snap-bbox-edge-midpoints="true"
     inkscape:snap-bbox-midpoints="true"
     inkscape:object-paths="true"
     inkscape:snap-intersection-paths="true"
     inkscape:snap-smooth-nodes="true"
     inkscape:snap-midpoints="true"
     inkscape:snap-object-midpoints="true"
     inkscape:snap-center="true"
     inkscape:snap-text-baseline="true"
     inkscape:snap-page="true"
     fit-margin-top="0"
     fit-margin-left="0"
     fit-margin-right="0"
     fit-margin-bottom="0"
     inkscape:window-width="1720"
     inkscape:window-height="1340"
     inkscape:window-x="0"
     inkscape:window-y="13"
     inkscape:window-maximized="0" />
  <metadata
     id="metadata1331">
    <rdf:RDF>
      <cc:Work
         rdf:about="">
        <dc:format>image/svg+xml</dc:format>
        <dc:type
           rdf:resource="http://purl.org/dc/dcmitype/StillImage" />
        <dc:title />
      </cc:Work>
    </rdf:RDF>
  </metadata>
  <g
     inkscape:label="Layer 1"
     inkscape:groupmode="layer"
     id="layer1"
     transform="translate(120.88682,10.735262)">
    <g
       aria-label="Open Sourcey"
       style="font-style:normal;font-weight:normal;font-size:42.3559227px;line-height:1.25;font-family:sans-serif;letter-spacing:0px;word-spacing:0px;fill:#000000;fill-opacity:1;stroke:none;stroke-width:1.05889809"
       id="text2007">
      <path
         style="fill:#f5222d;fill-opacity:0.23529412;stroke:none;stroke-width:0.84609115;stroke-miterlimit:4;stroke-dasharray:none;stroke-dashoffset:2.49999976;stroke-opacity:1;paint-order:stroke markers fill"
         d="M -4.9471271,71.240612 V 97.698945 H 288.76569 a 3.3072917,3.3072916 0 0 0 5.1e-4,0 3.3072917,3.3072916 0 0 0 3.30729,-3.307291 v -19.84375 a 3.3072917,3.3072916 0 0 0 -3.30729,-3.307292 3.3072917,3.3072916 0 0 0 -5.1e-4,0 z"
         id="path907"
         inkscape:connector-curvature="0" />
      <path
         style="fill:#f5222d;fill-opacity:1;stroke:none;stroke-width:1.92332625;stroke-miterlimit:4;stroke-dasharray:none;stroke-dashoffset:2.49999976;stroke-opacity:1;paint-order:stroke markers fill"
         d="M 76.5 309.83008 A 12.5 12.5 0 0 0 64 322.33008 L 64 397.33008 A 12.5 12.5 0 0 0 76.5 409.83008 L 438.19727 409.83008 L 438.19727 309.83008 L 76.5 309.83008 z "
         transform="matrix(0.26458333,0,0,0.26458333,-120.88682,-10.735262)"
         id="rect889" />
      <text
         xml:space="preserve"
         style="font-style:normal;font-weight:normal;font-size:7.63794899px;line-height:1.25;font-family:sans-serif;letter-spacing:0px;word-spacing:0px;fill:#ffffff;fill-opacity:1;stroke:none;stroke-width:0.14008254"
         x="-78.651268"
         y="86.635139"
         id="text883"><tspan
           sodipodi:role="line"
           id="tspan881"
           x="-78.651268"
           y="86.635139"
           style="font-style:normal;font-variant:normal;font-weight:600;font-stretch:normal;font-size:7.63794899px;font-family:'URW Gothic L';-inkscape-font-specification:'URW Gothic L Semi-Bold';fill:#ffffff;fill-opacity:1;stroke-width:0.14008254">Experimental</tspan></text>
      <g
         id="g3960"
         transform="matrix(0.99999729,0,0,0.99999729,-1.3423123e-5,1.4735804e-4)">
        <g
           id="g3901">
          <g
             id="g3341"
             transform="matrix(1.1489494,0,0,1.1489494,-16.598981,-54.99321)">
            <path
               style="fill:#313fb9;fill-opacity:1;stroke-width:0.70293492"
               inkscape:connector-curvature="0"
               id="path2153"
               d="m 13.991726,72.775201 h 1.327656 c 0,-7.899652 6.439215,-14.338863 14.338862,-14.338863 v -1.327673 c -8.629862,0.06639 -15.666518,7.036666 -15.666518,15.666536 z"
               class="st0" />
            <path
               style="fill:#313fb9;fill-opacity:1;stroke-width:0.70293492"
               inkscape:connector-curvature="0"
               id="path2155"
               d="m 29.658244,53.258416 c -10.754147,0 -19.516785,8.762638 -19.516785,19.516785 0,7.634116 4.514095,14.604396 11.484388,17.79081 0.06624,0.06639 0.199213,0.06639 0.265526,0.06639 0.06649,0 0.132725,0 0.265526,-0.06639 0.199214,-0.06639 0.331914,-0.199163 0.398302,-0.331916 l 4.248568,-10.22308 -1.194905,-0.531067 -3.983017,9.559242 C 15.385769,85.985541 11.402752,79.679099 11.402752,72.775201 c 0,-10.023926 8.165198,-18.189112 18.18913,-18.189112 10.023906,0 18.189104,8.165186 18.189104,18.189112 0,6.107294 -3.053638,11.749901 -8.09881,15.135466 l 0.730215,1.128523 c 5.443474,-3.651101 8.696276,-9.69201 8.696276,-16.263989 0.06624,-10.754147 -8.696276,-19.516785 -19.450423,-19.516785 z"
               class="st0" />
            <path
               style="fill:#fc3465;fill-opacity:1;stroke-width:0.70293492"
               inkscape:connector-curvature="0"
               id="path2159"
               d="m 36.761313,90.234095 -4.248569,-10.22308 c -0.132725,-0.331916 0,-0.663835 0.331914,-0.862986 2.389811,-1.261288 3.916655,-3.651099 3.916655,-6.372828 0,-3.916635 -3.186414,-7.169431 -7.169431,-7.169431 -3.916655,0 -7.169432,3.186414 -7.169432,7.169431 0,1.792358 0.663828,3.451948 1.858733,4.779621 l -0.995767,0.862986 c -1.394043,-1.593207 -2.190647,-3.584716 -2.190647,-5.70899 0,-4.646855 3.783854,-8.497104 8.497113,-8.497104 4.646845,0 8.497087,3.783866 8.497087,8.497104 0,2.987263 -1.52682,5.70899 -4.115768,7.235814 l 3.983017,9.69201 z"
               class="st1" />
          </g>
          <g
             id="g18344"
             transform="matrix(0.33134199,0,0,0.33134199,126.61757,-4.384029)">
            <path
               d="m 70.385537,168.15005 c 0.160397,3.04754 2.245557,5.04105 5.293099,5.04105 2.932972,0 5.109788,-2.13099 5.109788,-5.01813 0,-1.4894 -0.618674,-2.8184 -1.695625,-3.62038 -0.687416,-0.50412 -1.397745,-0.82491 -3.139197,-1.35192 -1.535228,-0.45828 -2.039333,-0.66451 -2.49761,-1.05404 -0.48119,-0.43536 -0.801984,-1.19153 -0.801984,-1.97059 0,-1.69562 1.237348,-2.95588 2.932972,-2.95588 1.718539,0 2.910059,1.19151 3.024628,3.02461 h 1.764366 c -0.06874,-2.74966 -1.970591,-4.58276 -4.743166,-4.58276 -2.726748,0 -4.697339,1.92476 -4.697339,4.55985 0,1.16861 0.435363,2.29138 1.19152,3.00171 0.664502,0.64159 1.19152,0.89364 3.162111,1.4894 1.329003,0.41245 2.062246,0.73325 2.612179,1.12278 0.756157,0.52702 1.168606,1.39775 1.168606,2.42887 0,1.94768 -1.420659,3.36833 -3.345422,3.36833 -1.07695,0 -2.108074,-0.48119 -2.726747,-1.26026 -0.481191,-0.59576 -0.687416,-1.1686 -0.801985,-2.22264 z"
               style="font-style:normal;font-variant:normal;font-weight:normal;font-stretch:normal;font-size:22.91384697px;line-height:1.25;font-family:'URW Gothic L';-inkscape-font-specification:'URW Gothic L';letter-spacing:0px;word-spacing:0px;fill:#000000;fill-opacity:1;stroke:none;stroke-width:0.26458332"
               id="path1142"
               inkscape:connector-curvature="0" />
            <path
               d="m 88.832257,160.06146 c -3.712043,0 -6.576274,2.81842 -6.576274,6.48462 0,3.84954 2.818404,6.64502 6.713758,6.64502 3.666215,0 6.370049,-2.77258 6.370049,-6.53044 0,-3.82662 -2.749662,-6.5992 -6.507533,-6.5992 z m 0,1.55815 c 2.749662,0 4.788995,2.15391 4.788995,5.06396 0,2.86422 -1.970591,4.94939 -4.697339,4.94939 -2.887145,0 -4.949391,-2.10807 -4.949391,-5.04104 0,-2.84132 2.08516,-4.97231 4.857735,-4.97231 z"
               style="font-style:normal;font-variant:normal;font-weight:normal;font-stretch:normal;font-size:22.91384697px;line-height:1.25;font-family:'URW Gothic L';-inkscape-font-specification:'URW Gothic L';letter-spacing:0px;word-spacing:0px;fill:#000000;fill-opacity:1;stroke:none;stroke-width:0.26458332"
               id="path1144"
               inkscape:connector-curvature="0" />
            <path
               d="m 98.60036,172.89322 h 1.69562 v -10.99865 h 3.11629 v -1.53523 h -3.11629 c -0.0229,-2.08516 0.80199,-2.84131 3.11629,-2.86423 v -1.53523 c -3.23086,0 -4.857738,1.4894 -4.81191,4.39946 h -1.947677 v 1.53523 h 1.947677 z"
               style="font-style:normal;font-variant:normal;font-weight:normal;font-stretch:normal;font-size:22.91384697px;line-height:1.25;font-family:'URW Gothic L';-inkscape-font-specification:'URW Gothic L';letter-spacing:0px;word-spacing:0px;fill:#000000;fill-opacity:1;stroke:none;stroke-width:0.26458332"
               id="path1146"
               inkscape:connector-curvature="0" />
            <path
               d="m 106.47019,172.89322 h 1.69563 v -10.99865 h 2.8184 v -1.53523 h -2.8184 v -4.39946 h -1.69563 v 4.39946 h -2.70383 v 1.53523 h 2.70383 z"
               style="font-style:normal;font-variant:normal;font-weight:normal;font-stretch:normal;font-size:22.91384697px;line-height:1.25;font-family:'URW Gothic L';-inkscape-font-specification:'URW Gothic L';letter-spacing:0px;word-spacing:0px;fill:#000000;fill-opacity:1;stroke:none;stroke-width:0.26458332"
               id="path1148"
               inkscape:connector-curvature="0" />
            <path
               d="m 112.83666,172.89322 h 4.51403 c 1.87893,0 3.25376,-0.29788 4.28489,-0.93947 1.39774,-0.8478 2.19973,-2.36012 2.19973,-4.10158 0,-1.05404 -0.29788,-2.08515 -0.8249,-2.77258 -0.48119,-0.64158 -0.96238,-0.96238 -2.06225,-1.42064 1.35192,-0.71033 1.87894,-1.60397 1.87894,-3.18504 0,-1.58105 -0.71033,-2.91006 -1.92476,-3.68913 -1.00821,-0.64159 -2.06225,-0.8249 -4.58277,-0.8249 h -3.48291 z m 3.1392,-3.00172 v -4.33071 h 1.4894 c 2.17681,0 3.20794,0.71032 3.20794,2.22264 0,1.46648 -0.93947,2.10807 -3.1392,2.10807 z m 0,-7.40117 v -3.45999 h 1.28317 c 1.62689,0 2.42887,0.54993 2.42887,1.71854 0,1.21443 -0.80198,1.74145 -2.70383,1.74145 z"
               style="font-style:normal;font-weight:bold;font-size:22.91384697px;line-height:1.25;font-family:sans-serif;letter-spacing:0px;word-spacing:0px;fill:#000000;fill-opacity:1;stroke:none;stroke-width:0.26458332"
               id="path1150"
               inkscape:connector-curvature="0" />
            <path
               d="m 137.10421,160.19895 h -3.04754 v 5.98051 c 0,1.67271 -0.11457,2.49761 -0.48119,3.04755 -0.43536,0.73323 -1.28317,1.1686 -2.3143,1.1686 -0.77907,0 -1.37483,-0.25206 -1.78728,-0.80199 -0.43536,-0.54992 -0.61867,-1.4894 -0.61867,-3.18502 v -6.20965 h -3.04754 v 6.80541 c 0,2.1539 0.25205,3.25376 0.96238,4.3078 0.84781,1.21443 2.22264,1.87894 3.87244,1.87894 1.53523,0 2.49761,-0.38954 3.6433,-1.51232 v 1.21444 h 2.8184 z"
               style="font-style:normal;font-weight:bold;font-size:22.91384697px;line-height:1.25;font-family:sans-serif;letter-spacing:0px;word-spacing:0px;fill:#000000;fill-opacity:1;stroke:none;stroke-width:0.26458332"
               id="path1152"
               inkscape:connector-curvature="0" />
            <path
               d="m 140.00532,172.89322 h 3.04755 v -9.9217 h 1.8331 v -2.77257 h -1.8331 v -4.23907 h -3.04755 v 4.23907 h -1.4894 v 2.77257 h 1.4894 z"
               style="font-style:normal;font-weight:bold;font-size:22.91384697px;line-height:1.25;font-family:sans-serif;letter-spacing:0px;word-spacing:0px;fill:#000000;fill-opacity:1;stroke:none;stroke-width:0.26458332"
               id="path1154"
               inkscape:connector-curvature="0" />
            <path
               d="m 146.89738,172.89322 h 3.04754 v -9.9217 h 1.83311 v -2.77257 h -1.83311 v -4.23907 h -3.04754 v 4.23907 h -1.4894 v 2.77257 h 1.4894 z"
               style="font-style:normal;font-weight:bold;font-size:22.91384697px;line-height:1.25;font-family:sans-serif;letter-spacing:0px;word-spacing:0px;fill:#000000;fill-opacity:1;stroke:none;stroke-width:0.26458332"
               id="path1156"
               inkscape:connector-curvature="0" />
            <path
               d="m 165.91085,167.898 c 0.0917,-0.43537 0.11457,-0.71032 0.11457,-1.16861 0,-3.94118 -2.77257,-6.82832 -6.55336,-6.82832 -3.73495,0 -6.69084,2.95589 -6.69084,6.69085 0,3.71203 3.00171,6.59918 6.87415,6.59918 2.08516,0 3.71205,-0.75616 5.04105,-2.29138 0.48119,-0.59576 0.80198,-1.12278 1.00821,-1.76437 h -3.32251 c -0.77907,0.91655 -1.53523,1.26027 -2.79549,1.26027 -1.81019,0 -3.1392,-0.96238 -3.50582,-2.49762 z m -9.92169,-2.68092 c 0.48119,-1.62689 1.71854,-2.52053 3.52873,-2.52053 1.87894,0 3.11628,0.89364 3.50582,2.52053 z"
               style="font-style:normal;font-weight:bold;font-size:22.91384697px;line-height:1.25;font-family:sans-serif;letter-spacing:0px;word-spacing:0px;fill:#000000;fill-opacity:1;stroke:none;stroke-width:0.26458332"
               id="path1158"
               inkscape:connector-curvature="0" />
            <path
               d="m 168.01034,172.89322 h 3.04754 v -7.05747 c 0,-1.97059 0.89364,-2.95588 2.72675,-3.00171 v -2.93297 h -0.22914 c -1.30609,0 -1.94768,0.36662 -2.74966,1.53522 v -1.23734 h -2.79549 z"
               style="font-style:normal;font-weight:bold;font-size:22.91384697px;line-height:1.25;font-family:sans-serif;letter-spacing:0px;word-spacing:0px;fill:#000000;fill-opacity:1;stroke:none;stroke-width:0.26458332"
               id="path1160"
               inkscape:connector-curvature="0" />
            <path
               d="m 175.44159,172.89322 h 3.04754 v -9.9217 h 1.71854 v -2.54344 h -1.71854 c 0.0229,-1.14569 0.41245,-1.53522 1.60397,-1.53522 h 0.29788 v -2.88715 c -0.36662,-0.0458 -0.54994,-0.0458 -0.75616,-0.0458 -1.30609,0 -2.40595,0.48119 -3.18502,1.42066 -0.61868,0.73325 -0.84782,1.46649 -1.00821,3.04754 h -1.09987 v 2.54344 h 1.09987 z"
               style="font-style:normal;font-weight:bold;font-size:22.91384697px;line-height:1.25;font-family:sans-serif;letter-spacing:0px;word-spacing:0px;fill:#000000;fill-opacity:1;stroke:none;stroke-width:0.26458332"
               id="path1162"
               inkscape:connector-curvature="0" />
            <path
               d="m 181.7497,172.89322 h 3.04754 v -16.93334 h -3.04754 z"
               style="font-style:normal;font-weight:bold;font-size:22.91384697px;line-height:1.25;font-family:sans-serif;letter-spacing:0px;word-spacing:0px;fill:#000000;fill-opacity:1;stroke:none;stroke-width:0.26458332"
               id="path1164"
               inkscape:connector-curvature="0" />
            <path
               d="m 188.423,177.13228 h 3.27668 l 7.33243,-16.93333 h -3.50582 l -3.07045,8.22607 -2.8184,-8.22607 h -3.48291 l 4.65151,11.50275 z"
               style="font-style:normal;font-weight:bold;font-size:22.91384697px;line-height:1.25;font-family:sans-serif;letter-spacing:0px;word-spacing:0px;fill:#000000;fill-opacity:1;stroke:none;stroke-width:0.26458332"
               id="path1166"
               inkscape:connector-curvature="0" />
            <g
               transform="matrix(0.97158187,0,0,0.97158187,72.014108,-112.5835)"
               id="g1230">
              <path
                 inkscape:export-ydpi="90"
                 inkscape:export-xdpi="90"
                 inkscape:export-filename="/home/sheylabre/Documents/Softbutterfly/Softbutterfly-logo/png/softbutterfly-office-160x39.png"
                 sodipodi:nodetypes="ccc"
                 inkscape:connector-curvature="0"
                 id="path1182"
                 d="m 124.71996,273.88239 -0.53726,-1.69475 -0.47742,1.67016"
                 style="fill:none;fill-rule:evenodd;stroke:#333333;stroke-width:0.25425965;stroke-linecap:butt;stroke-linejoin:miter;stroke-miterlimit:4;stroke-dasharray:none;stroke-opacity:1" />
              <path
                 sodipodi:nodetypes="cccc"
                 inkscape:export-ydpi="90"
                 inkscape:export-xdpi="90"
                 inkscape:export-filename="/home/sheylabre/Documents/Softbutterfly/Softbutterfly-logo/png/softbutterfly-office-160x39.png"
                 inkscape:connector-curvature="0"
                 id="path1184"
                 d="m 123.9594,269.49019 -0.7844,-1.37573 0.42092,-0.26385 z"
                 style="fill:none;fill-rule:evenodd;stroke:#333333;stroke-width:0.25425965;stroke-linecap:butt;stroke-linejoin:miter;stroke-miterlimit:4;stroke-dasharray:none;stroke-opacity:1" />
              <path
                 sodipodi:nodetypes="cccc"
                 inkscape:export-ydpi="90"
                 inkscape:export-xdpi="90"
                 inkscape:export-filename="/home/sheylabre/Documents/Softbutterfly/Softbutterfly-logo/png/softbutterfly-office-160x39.png"
                 inkscape:connector-curvature="0"
                 id="path1186"
                 d="m 124.48312,269.53613 0.7118,-1.42221 -0.42095,-0.26368 z"
                 style="fill:none;fill-rule:evenodd;stroke:#333333;stroke-width:0.25425965;stroke-linecap:butt;stroke-linejoin:miter;stroke-miterlimit:4;stroke-dasharray:none;stroke-opacity:1" />
              <path
                 inkscape:export-ydpi="90"
                 inkscape:export-xdpi="90"
                 inkscape:export-filename="/home/sheylabre/Documents/Softbutterfly/Softbutterfly-logo/png/softbutterfly-office-160x39.png"
                 sodipodi:nodetypes="ccccccccccccccc"
                 inkscape:connector-curvature="0"
                 id="path1188"
                 d="m 124.68405,275.25413 0.0664,0.0826 1.67427,2.95855 2.54202,-0.53509 0.85516,-2.86652 -1.54418,-2.40602 2.16182,0.0274 0.64574,-2.95908 1.01073,-1.07863 -0.14039,-2.15718 -3.06023,0.74686 -3.62882,2.87265 5.70524,-0.42008 -2.18693,-2.41718 1.59848,5.38506"
                 style="fill:none;fill-rule:evenodd;stroke:#fc3465;stroke-width:0.3813895;stroke-linecap:butt;stroke-linejoin:miter;stroke-miterlimit:4;stroke-dasharray:none;stroke-opacity:1" />
              <path
                 inkscape:export-ydpi="90"
                 inkscape:export-xdpi="90"
                 inkscape:export-filename="/home/sheylabre/Documents/Softbutterfly/Softbutterfly-logo/png/softbutterfly-office-160x39.png"
                 sodipodi:nodetypes="cc"
                 inkscape:connector-curvature="0"
                 id="path1190"
                 d="m 131.94546,266.29558 -0.83212,3.23393"
                 style="fill:none;fill-rule:evenodd;stroke:#fc3465;stroke-width:0.30172026;stroke-linecap:butt;stroke-linejoin:miter;stroke-miterlimit:4;stroke-dasharray:none;stroke-opacity:1" />
              <path
                 inkscape:export-ydpi="90"
                 inkscape:export-xdpi="90"
                 inkscape:export-filename="/home/sheylabre/Documents/Softbutterfly/Softbutterfly-logo/png/softbutterfly-office-160x39.png"
                 inkscape:connector-curvature="0"
                 id="path1192"
                 d="m 132.06792,268.42332 -3.28484,-1.27215"
                 style="fill:none;fill-rule:evenodd;stroke:#fc3465;stroke-width:0.3813895;stroke-linecap:butt;stroke-linejoin:miter;stroke-miterlimit:4;stroke-dasharray:none;stroke-opacity:1" />
              <path
                 inkscape:export-ydpi="90"
                 inkscape:export-xdpi="90"
                 inkscape:export-filename="/home/sheylabre/Documents/Softbutterfly/Softbutterfly-logo/png/softbutterfly-office-160x39.png"
                 sodipodi:nodetypes="cccc"
                 inkscape:connector-curvature="0"
                 id="path1194"
                 d="m 124.79632,270.19324 3.47741,2.29869 -3.3461,1.42359 2.8189,3.08469"
                 style="fill:none;fill-opacity:1;fill-rule:evenodd;stroke:#fc3465;stroke-width:0.3813895;stroke-linecap:butt;stroke-linejoin:miter;stroke-miterlimit:4;stroke-dasharray:none;stroke-opacity:1" />
              <path
                 inkscape:export-ydpi="90"
                 inkscape:export-xdpi="90"
                 inkscape:export-filename="/home/sheylabre/Documents/Softbutterfly/Softbutterfly-logo/png/softbutterfly-office-160x39.png"
                 inkscape:connector-curvature="0"
                 id="path1196"
                 d="m 129.76571,274.89476 -3.28484,3.4014"
                 style="fill:none;fill-rule:evenodd;stroke:#fc3465;stroke-width:0.3813895;stroke-linecap:butt;stroke-linejoin:miter;stroke-miterlimit:4;stroke-dasharray:none;stroke-opacity:1" />
              <path
                 inkscape:export-ydpi="90"
                 inkscape:export-xdpi="90"
                 inkscape:export-filename="/home/sheylabre/Documents/Softbutterfly/Softbutterfly-logo/png/softbutterfly-office-160x39.png"
                 sodipodi:nodetypes="ccc"
                 inkscape:connector-curvature="0"
                 id="path1198"
                 d="m 124.75045,275.33668 4.14714,2.31484 -0.59423,-5.19209"
                 style="fill:none;fill-rule:evenodd;stroke:#fc3465;stroke-width:0.3813895;stroke-linecap:butt;stroke-linejoin:miter;stroke-miterlimit:4;stroke-dasharray:none;stroke-opacity:1" />
              <path
                 inkscape:export-ydpi="90"
                 inkscape:export-xdpi="90"
                 inkscape:export-filename="/home/sheylabre/Documents/Softbutterfly/Softbutterfly-logo/png/softbutterfly-office-160x39.png"
                 inkscape:connector-curvature="0"
                 id="path1200"
                 d="m 129.77541,274.89152 -4.84778,-0.976 3.71958,2.08728"
                 style="fill:none;fill-rule:evenodd;stroke:#fc3465;stroke-width:0.3813895;stroke-linecap:butt;stroke-linejoin:miter;stroke-miterlimit:4;stroke-dasharray:none;stroke-opacity:1"
                 sodipodi:nodetypes="ccc" />
              <path
                 inkscape:export-ydpi="90"
                 inkscape:export-xdpi="90"
                 inkscape:export-filename="/home/sheylabre/Documents/Softbutterfly/Softbutterfly-logo/png/softbutterfly-office-160x39.png"
                 inkscape:connector-curvature="0"
                 id="path1202"
                 d="m 128.25337,272.53364 1.28057,-2.84181"
                 style="fill:none;fill-rule:evenodd;stroke:#fc3465;stroke-width:0.3813895;stroke-linecap:butt;stroke-linejoin:miter;stroke-miterlimit:4;stroke-dasharray:none;stroke-opacity:1" />
              <path
                 inkscape:export-ydpi="90"
                 inkscape:export-xdpi="90"
                 inkscape:export-filename="/home/sheylabre/Documents/Softbutterfly/Softbutterfly-logo/png/softbutterfly-office-160x39.png"
                 sodipodi:nodetypes="cccccccccccccc"
                 inkscape:connector-curvature="0"
                 id="path1204"
                 d="m 123.71764,275.35068 -1.76878,3.0144 -2.49869,-0.58068 -0.89844,-2.82088 1.54417,-2.40594 -2.16181,0.0275 -0.64577,-2.95902 -1.0107,-1.07858 0.14036,-2.15708 3.12321,0.8159 3.6429,2.8335 -5.78734,-0.45461 2.14595,-2.36039 -1.55248,5.33269"
                 style="fill:none;fill-rule:evenodd;stroke:#313fb9;stroke-width:0.3813895;stroke-linecap:butt;stroke-linejoin:miter;stroke-miterlimit:4;stroke-dasharray:none;stroke-opacity:1" />
              <path
                 inkscape:export-ydpi="90"
                 inkscape:export-xdpi="90"
                 inkscape:export-filename="/home/sheylabre/Documents/Softbutterfly/Softbutterfly-logo/png/softbutterfly-office-160x39.png"
                 sodipodi:nodetypes="cc"
                 inkscape:connector-curvature="0"
                 id="path1206"
                 d="m 116.4369,266.3647 0.82336,3.23375"
                 style="fill:none;fill-rule:evenodd;stroke:#313fb9;stroke-width:0.30172026;stroke-linecap:butt;stroke-linejoin:miter;stroke-miterlimit:4;stroke-dasharray:none;stroke-opacity:1" />
              <path
                 inkscape:export-ydpi="90"
                 inkscape:export-xdpi="90"
                 inkscape:export-filename="/home/sheylabre/Documents/Softbutterfly/Softbutterfly-logo/png/softbutterfly-office-160x39.png"
                 inkscape:connector-curvature="0"
                 id="path1208"
                 d="m 116.30569,268.49216 3.28484,-1.27224"
                 style="fill:none;fill-rule:evenodd;stroke:#313fb9;stroke-width:0.3813895;stroke-linecap:butt;stroke-linejoin:miter;stroke-miterlimit:4;stroke-dasharray:none;stroke-opacity:1" />
              <path
                 inkscape:export-ydpi="90"
                 inkscape:export-xdpi="90"
                 inkscape:export-filename="/home/sheylabre/Documents/Softbutterfly/Softbutterfly-logo/png/softbutterfly-office-160x39.png"
                 sodipodi:nodetypes="cccc"
                 inkscape:connector-curvature="0"
                 id="path1210"
                 d="m 123.64392,270.24393 -3.5073,2.28897 3.36616,1.32567 -2.88726,3.24187"
                 style="fill:none;fill-rule:evenodd;stroke:#313fb9;stroke-width:0.3813895;stroke-linecap:butt;stroke-linejoin:miter;stroke-miterlimit:4;stroke-dasharray:none;stroke-opacity:1" />
              <path
                 inkscape:export-ydpi="90"
                 inkscape:export-xdpi="90"
                 inkscape:export-filename="/home/sheylabre/Documents/Softbutterfly/Softbutterfly-logo/png/softbutterfly-office-160x39.png"
                 inkscape:connector-curvature="0"
                 id="path1212"
                 d="m 118.60789,274.96352 3.28484,3.40156"
                 style="fill:none;fill-rule:evenodd;stroke:#313fb9;stroke-width:0.30172026;stroke-linecap:butt;stroke-linejoin:miter;stroke-miterlimit:4;stroke-dasharray:none;stroke-opacity:1" />
              <path
                 inkscape:export-ydpi="90"
                 inkscape:export-xdpi="90"
                 inkscape:export-filename="/home/sheylabre/Documents/Softbutterfly/Softbutterfly-logo/png/softbutterfly-office-160x39.png"
                 sodipodi:nodetypes="ccc"
                 inkscape:connector-curvature="0"
                 id="path1214"
                 d="m 123.71764,275.35068 -4.22665,2.33332 0.6052,-5.13895"
                 style="fill:none;fill-rule:evenodd;stroke:#313fb9;stroke-width:0.3813895;stroke-linecap:butt;stroke-linejoin:miter;stroke-miterlimit:4;stroke-dasharray:none;stroke-opacity:1" />
              <path
                 inkscape:export-ydpi="90"
                 inkscape:export-xdpi="90"
                 inkscape:export-filename="/home/sheylabre/Documents/Softbutterfly/Softbutterfly-logo/png/softbutterfly-office-160x39.png"
                 sodipodi:nodetypes="ccc"
                 inkscape:connector-curvature="0"
                 id="path1216"
                 d="m 118.59819,274.96035 4.90459,-1.10178 -3.77639,2.21308"
                 style="fill:none;fill-rule:evenodd;stroke:#313fb9;stroke-width:0.3813895;stroke-linecap:butt;stroke-linejoin:miter;stroke-miterlimit:4;stroke-dasharray:none;stroke-opacity:1" />
              <path
                 inkscape:export-ydpi="90"
                 inkscape:export-xdpi="90"
                 inkscape:export-filename="/home/sheylabre/Documents/Softbutterfly/Softbutterfly-logo/png/softbutterfly-office-160x39.png"
                 sodipodi:nodetypes="cc"
                 inkscape:connector-curvature="0"
                 id="path1218"
                 d="m 120.11378,272.5688 -1.27412,-2.80814"
                 style="fill:none;fill-rule:evenodd;stroke:#313fb9;stroke-width:0.3813895;stroke-linecap:butt;stroke-linejoin:miter;stroke-miterlimit:4;stroke-dasharray:none;stroke-opacity:1" />
              <path
                 inkscape:export-ydpi="90"
                 inkscape:export-xdpi="90"
                 inkscape:export-filename="/home/sheylabre/Documents/Softbutterfly/Softbutterfly-logo/png/softbutterfly-office-160x39.png"
                 sodipodi:nodetypes="ccc"
                 inkscape:connector-curvature="0"
                 id="path1220"
                 d="m 124.68693,270.27057 -0.49877,-0.41978 -0.51199,0.40362"
                 style="fill:none;fill-rule:evenodd;stroke:#333333;stroke-width:0.19108951;stroke-linecap:butt;stroke-linejoin:miter;stroke-miterlimit:4;stroke-dasharray:none;stroke-opacity:1" />
              <path
                 inkscape:export-ydpi="90"
                 inkscape:export-xdpi="90"
                 inkscape:export-filename="/home/sheylabre/Documents/Softbutterfly/Softbutterfly-logo/png/softbutterfly-office-160x39.png"
                 inkscape:connector-curvature="0"
                 id="path1222"
                 d="m 124.65768,275.29739 -0.48128,-0.41229 -0.46032,0.4536"
                 style="fill:none;fill-rule:evenodd;stroke:#333333;stroke-width:0.25425965;stroke-linecap:butt;stroke-linejoin:miter;stroke-miterlimit:4;stroke-dasharray:none;stroke-opacity:1" />
              <path
                 inkscape:export-ydpi="90"
                 inkscape:export-xdpi="90"
                 inkscape:export-filename="/home/sheylabre/Documents/Softbutterfly/Softbutterfly-logo/png/softbutterfly-office-160x39.png"
                 inkscape:connector-curvature="0"
                 id="path1224"
                 d="m 124.1764,274.8851 0.0125,-5.39491"
                 style="fill:none;fill-rule:evenodd;stroke:#333333;stroke-width:0.25425965;stroke-linecap:butt;stroke-linejoin:miter;stroke-miterlimit:4;stroke-dasharray:none;stroke-opacity:1"
                 sodipodi:nodetypes="cc" />
              <path
                 sodipodi:nodetypes="ccc"
                 inkscape:export-ydpi="90"
                 inkscape:export-xdpi="90"
                 inkscape:export-filename="/home/sheylabre/Documents/Softbutterfly/Softbutterfly-logo/png/softbutterfly-office-160x39.png"
                 inkscape:connector-curvature="0"
                 id="path1226"
                 d="m 124.70621,270.19837 -0.52273,1.66019 -0.50924,-1.61094"
                 style="fill:none;fill-rule:evenodd;stroke:#333333;stroke-width:0.25425965;stroke-linecap:butt;stroke-linejoin:miter;stroke-miterlimit:4;stroke-dasharray:none;stroke-opacity:1" />
              <path
                 inkscape:export-ydpi="90"
                 inkscape:export-xdpi="90"
                 inkscape:export-filename="/home/sheylabre/Documents/Softbutterfly/Softbutterfly-logo/png/softbutterfly-office-160x39.png"
                 sodipodi:nodetypes="cccccccc"
                 inkscape:connector-curvature="0"
                 id="path1228"
                 d="m 124.41862,269.49019 h -0.45922 l -0.28697,0.30149 0.0443,5.47985 0.473,0.63223 0.53504,-0.66546 -0.0191,-5.42763 z"
                 style="fill:none;fill-rule:evenodd;stroke:#333333;stroke-width:0.25425965;stroke-linecap:butt;stroke-linejoin:miter;stroke-miterlimit:4;stroke-dasharray:none;stroke-opacity:1" />
            </g>
          </g>
          <g
             id="g3157"
             transform="matrix(1.0000021,0,0,1.0000021,-9.9407798e-5,-1.1179138e-4)">
            <path
               id="path2863"
               style="font-style:normal;font-variant:normal;font-weight:600;font-stretch:normal;font-family:'URW Gothic L';-inkscape-font-specification:'URW Gothic L Semi-Bold';stroke-width:0.57284665"
               d="m 57.227893,16.933332 c -5.04105,0 -8.936407,3.826616 -8.936407,8.776011 0,4.880653 3.941185,8.753096 8.913494,8.753096 4.92648,0 8.730183,-3.826615 8.730183,-8.77601 0,-4.834826 -3.872444,-8.753097 -8.70727,-8.753097 z m -0.04583,3.02463 c 3.1392,0 5.590983,2.520525 5.590983,5.774294 0,3.25377 -2.383042,5.705553 -5.590983,5.705553 -3.207942,0 -5.728467,-2.520525 -5.728467,-5.728466 0,-3.276683 2.474698,-5.751381 5.728467,-5.751381 z"
               inkscape:connector-curvature="0" />
            <path
               id="path2865"
               style="font-style:normal;font-variant:normal;font-weight:600;font-stretch:normal;font-family:'URW Gothic L';-inkscape-font-specification:'URW Gothic L Semi-Bold';stroke-width:0.57284665"
               d="m 68.085486,38.403624 h 3.047544 v -5.430586 c 1.145693,1.031124 2.337214,1.489401 3.895357,1.489401 3.666219,0 6.347141,-2.841319 6.347141,-6.690848 0,-3.826616 -2.658008,-6.599194 -6.324227,-6.599194 -1.71854,0 -3.185027,0.641588 -4.170324,1.787282 v -1.489401 h -2.795491 z m 6.576279,-14.435735 c 2.062248,0 3.643305,1.672712 3.643305,3.872443 0,2.153903 -1.581057,3.826616 -3.597477,3.826616 -2.153904,0 -3.757874,-1.649799 -3.757874,-3.872443 0,-2.176818 1.60397,-3.826616 3.712046,-3.826616 z"
               inkscape:connector-curvature="0" />
            <path
               id="path2867"
               style="font-style:normal;font-variant:normal;font-weight:600;font-stretch:normal;font-family:'URW Gothic L';-inkscape-font-specification:'URW Gothic L Semi-Bold';stroke-width:0.57284665"
               d="m 95.791929,29.169336 c 0.09166,-0.435363 0.114569,-0.71033 0.114569,-1.168607 0,-3.941185 -2.772578,-6.828332 -6.553366,-6.828332 -3.73496,0 -6.690848,2.955889 -6.690848,6.690849 0,3.712046 3.001716,6.599193 6.874159,6.599193 2.085162,0 3.712047,-0.756157 5.041051,-2.291386 0.481191,-0.595761 0.801985,-1.122779 1.00821,-1.764368 h -3.322511 c -0.779071,0.916555 -1.535229,1.260263 -2.795491,1.260263 -1.810196,0 -3.1392,-0.962382 -3.505822,-2.497612 z m -9.921704,-2.680922 c 0.481191,-1.626885 1.71854,-2.520525 3.528735,-2.520525 1.878937,0 3.116286,0.89364 3.505822,2.520525 z"
               inkscape:connector-curvature="0" />
            <path
               id="path2869"
               style="font-style:normal;font-variant:normal;font-weight:600;font-stretch:normal;font-family:'URW Gothic L';-inkscape-font-specification:'URW Gothic L Semi-Bold';stroke-width:0.57284665"
               d="m 97.891407,34.164559 h 3.047553 V 28.18404 c 0,-1.695626 0.11457,-2.42887 0.5041,-3.047544 0.48119,-0.756158 1.28318,-1.168607 2.24556,-1.168607 0.77907,0 1.42066,0.274966 1.83311,0.801985 0.41245,0.549933 0.59576,1.489402 0.59576,3.185027 v 6.209658 h 3.04755 v -6.805418 c 0,-2.268473 -0.22914,-3.368339 -0.91656,-4.353634 -0.8249,-1.191522 -2.19973,-1.83311 -3.9641,-1.83311 -1.44357,0 -2.45178,0.435364 -3.57456,1.512315 v -1.214434 h -2.818413 z"
               inkscape:connector-curvature="0" />
            <path
               id="path2871"
               style="font-style:normal;font-variant:normal;font-weight:600;font-stretch:normal;font-family:'URW Gothic L';-inkscape-font-specification:'URW Gothic L Semi-Bold';stroke-width:0.57284665"
               d="m 117.114,29.329733 c 0.11457,1.329005 0.41245,2.176818 1.09987,3.070458 1.00821,1.306091 2.68092,2.062248 4.4682,2.062248 3.04755,0 5.40767,-2.360128 5.40767,-5.430586 0,-1.397746 -0.52701,-2.612181 -1.51231,-3.528735 -0.6645,-0.618675 -1.21444,-0.916555 -2.86423,-1.535229 -1.60398,-0.595761 -1.6498,-0.618674 -1.87894,-0.756158 -0.61868,-0.389536 -0.93947,-0.916554 -0.93947,-1.535229 0,-1.00821 0.71033,-1.71854 1.74145,-1.71854 1.05404,0 1.69563,0.641588 1.78729,1.787282 h 3.25376 c -0.0687,-1.283177 -0.36662,-2.153904 -1.05403,-3.001717 -0.91656,-1.145693 -2.38305,-1.810195 -3.9641,-1.810195 -2.72675,0 -4.92648,2.130989 -4.92648,4.811912 0,2.130989 1.26026,3.757874 3.52873,4.605687 2.26848,0.847813 2.40596,0.916554 2.93298,1.30609 0.5041,0.41245 0.77907,1.008211 0.77907,1.71854 0,1.214435 -0.93947,2.062248 -2.29139,2.062248 -1.39774,0 -2.1539,-0.687416 -2.29138,-2.108076 z"
               inkscape:connector-curvature="0" />
            <path
               id="path2873"
               style="font-style:normal;font-variant:normal;font-weight:600;font-stretch:normal;font-family:'URW Gothic L';-inkscape-font-specification:'URW Gothic L Semi-Bold';stroke-width:0.57284665"
               d="m 136.09885,21.172397 c -3.68913,0 -6.71376,3.001717 -6.71376,6.645021 0,3.666219 3.02463,6.645021 6.73668,6.645021 3.68913,0 6.75959,-2.978802 6.75959,-6.553365 0,-3.780788 -2.95589,-6.736677 -6.78251,-6.736677 z m 0.0229,2.795492 c 2.03933,0 3.68913,1.741454 3.68913,3.849529 0,2.13099 -1.6498,3.84953 -3.66622,3.84953 -2.06225,0 -3.68913,-1.71854 -3.68913,-3.895357 0,-2.085162 1.67271,-3.803702 3.66622,-3.803702 z"
               inkscape:connector-curvature="0" />
            <path
               id="path2875"
               style="font-style:normal;font-variant:normal;font-weight:600;font-stretch:normal;font-family:'URW Gothic L';-inkscape-font-specification:'URW Gothic L Semi-Bold';stroke-width:0.57284665"
               d="m 155.91075,21.470278 h -3.04754 v 5.980519 c 0,1.672712 -0.11457,2.497611 -0.48119,3.047543 -0.43536,0.733244 -1.28318,1.168608 -2.3143,1.168608 -0.77907,0 -1.37483,-0.252053 -1.78728,-0.801986 -0.43537,-0.549932 -0.61868,-1.489401 -0.61868,-3.185027 v -6.209657 h -3.04754 v 6.805418 c 0,2.153903 0.25205,3.253769 0.96238,4.307806 0.84781,1.214435 2.22265,1.878937 3.87244,1.878937 1.53523,0 2.49762,-0.389536 3.64331,-1.512315 v 1.214435 h 2.8184 z"
               inkscape:connector-curvature="0" />
            <path
               id="path2877"
               style="font-style:normal;font-variant:normal;font-weight:600;font-stretch:normal;font-family:'URW Gothic L';-inkscape-font-specification:'URW Gothic L Semi-Bold';stroke-width:0.57284665"
               d="m 158.35359,34.164559 h 3.04755 v -7.05747 c 0,-1.970593 0.89364,-2.955889 2.72674,-3.001717 v -2.932975 h -0.22914 c -1.30608,0 -1.94767,0.366622 -2.74966,1.535229 v -1.237348 h -2.79549 z"
               inkscape:connector-curvature="0" />
            <path
               id="path2879"
               style="font-style:normal;font-variant:normal;font-weight:600;font-stretch:normal;font-family:'URW Gothic L';-inkscape-font-specification:'URW Gothic L Semi-Bold';stroke-width:0.57284665"
               d="m 174.78999,29.994235 c -0.75616,1.168608 -1.62688,1.672713 -2.88715,1.672713 -2.10808,0 -3.68913,-1.649799 -3.68913,-3.872443 0,-2.222646 1.51232,-3.826616 3.62039,-3.826616 1.37483,0 2.33722,0.572847 2.95589,1.741454 h 3.43708 c -0.43536,-1.283177 -0.84781,-1.947679 -1.71854,-2.749664 -1.23735,-1.145694 -2.91006,-1.787282 -4.67443,-1.787282 -3.75787,0 -6.69085,2.910061 -6.69085,6.645021 0,3.689133 3.02463,6.645021 6.78251,6.645021 2.95589,0 5.24727,-1.626884 6.30131,-4.468204 z"
               inkscape:connector-curvature="0" />
            <path
               id="path2881"
               style="font-style:normal;font-variant:normal;font-weight:600;font-stretch:normal;font-family:'URW Gothic L';-inkscape-font-specification:'URW Gothic L Semi-Bold';stroke-width:0.57284665"
               d="m 192.95209,29.169336 c 0.0917,-0.435363 0.11457,-0.71033 0.11457,-1.168607 0,-3.941185 -2.77258,-6.828332 -6.55337,-6.828332 -3.73495,0 -6.69085,2.955889 -6.69085,6.690849 0,3.712046 3.00172,6.599193 6.87417,6.599193 2.08516,0 3.71204,-0.756157 5.04105,-2.291386 0.48119,-0.595761 0.80198,-1.122779 1.0082,-1.764368 h -3.3225 c -0.77908,0.916555 -1.53523,1.260263 -2.7955,1.260263 -1.81019,0 -3.1392,-0.962382 -3.50581,-2.497612 z m -9.9217,-2.680922 c 0.48119,-1.626885 1.71854,-2.520525 3.52874,-2.520525 1.87893,0 3.11628,0.89364 3.50581,2.520525 z"
               inkscape:connector-curvature="0" />
          </g>
        </g>
      </g>
      <text
         xml:space="preserve"
         style="font-style:normal;font-weight:normal;font-size:10.58333302px;line-height:0.75;font-family:sans-serif;letter-spacing:0px;word-spacing:0px;fill:#000000;fill-opacity:1;stroke:none;stroke-width:0.28016677"
         x="1.6273569"
         y="82.104996"
         id="text921"><tspan
           sodipodi:role="line"
           x="1.6273569"
           y="82.104996"
           style="font-style:normal;font-variant:normal;font-weight:normal;font-stretch:normal;font-size:5.72846174px;line-height:0.75;font-family:'URW Gothic L';-inkscape-font-specification:'URW Gothic L';stroke-width:0.28016677"
           id="tspan923">This code is highly unstable, take it with caution at your own risk. It's available because it works </tspan><tspan
           sodipodi:role="line"
           x="1.6273569"
           y="90.042496"
           style="font-style:normal;font-variant:normal;font-weight:normal;font-stretch:normal;font-size:5.72846174px;line-height:0.75;font-family:'URW Gothic L';-inkscape-font-specification:'URW Gothic L';stroke-width:0.28016677"
           id="tspan927">pretty well for specific problems and we may need some quick feedback on it.</tspan></text>
    </g>
  </g>
</svg>
